version 1
nodes
0 "root" -1
end
skeleton
time 0
0 0 0 0 0 0 0
end
triangles
sides.bmp
0 -44.400000 -15.000000 2.000000 0.000000 -1.000000 0.000000 0.000000 0.000000
0 44.400000 -15.000000 2.000000 0.000000 -1.000000 0.000000 1.000000 0.000000
0 44.400000 -15.000000 25.000000 0.000000 -1.000000 0.000000 1.000000 1.000000
sides.bmp
0 -44.400000 -15.000000 2.000000 0.000000 -1.000000 0.000000 0.000000 0.000000
0 44.400000 -15.000000 25.000000 0.000000 -1.000000 0.000000 1.000000 1.000000
0 -44.400000 -15.000000 25.000000 0.000000 -1.000000 0.000000 0.000000 1.000000
rear.bmp
0 44.400000 15.000000 2.000000 0.000000 1.000000 0.000000 0.000000 0.000000
0 -44.400000 15.000000 2.000000 0.000000 1.000000 0.000000 1.000000 0.000000
0 -44.400000 15.000000 25.000000 0.000000 1.000000 0.000000 1.000000 1.000000
rear.bmp
0 44.400000 15.000000 2.000000 0.000000 1.000000 -0.000000 0.000000 0.000000
0 -44.400000 15.000000 25.000000 0.000000 1.000000 -0.000000 1.000000 1.000000
0 44.400000 15.000000 25.000000 0.000000 1.000000 -0.000000 0.000000 1.000000
sides.bmp
0 -44.400000 -15.000000 25.000000 -1.000000 0.000000 0.000000 0.000000 1.000000
0 -44.400000 15.000000 25.000000 -1.000000 0.000000 0.000000 0.450000 1.000000
0 -44.400000 15.000000 2.000000 -1.000000 0.000000 0.000000 0.450000 0.000000
sides.bmp
0 -44.400000 -15.000000 25.000000 -1.000000 0.000000 0.000000 0.000000 1.000000
0 -44.400000 15.000000 2.000000 -1.000000 0.000000 0.000000 0.450000 0.000000
0 -44.400000 -15.000000 2.000000 -1.000000 0.000000 0.000000 0.000000 0.000000
sides.bmp
0 44.400000 -15.000000 2.000000 1.000000 0.000000 0.000000 0.000000 0.000000
0 44.400000 15.000000 2.000000 1.000000 0.000000 0.000000 0.450000 0.000000
0 44.400000 15.000000 25.000000 1.000000 0.000000 0.000000 0.450000 1.000000
sides.bmp
0 44.400000 -15.000000 2.000000 1.000000 0.000000 0.000000 0.000000 0.000000
0 44.400000 15.000000 25.000000 1.000000 0.000000 0.000000 0.450000 1.000000
0 44.400000 -15.000000 25.000000 1.000000 0.000000 0.000000 0.000000 1.000000
sides.bmp
0 -44.400000 -15.000000 25.000000 0.000000 0.000000 1.000000 0.000000 0.000000
0 44.400000 -15.000000 25.000000 0.000000 0.000000 1.000000 1.000000 0.000000
0 44.400000 15.000000 25.000000 0.000000 0.000000 1.000000 1.000000 1.000000
sides.bmp
0 -44.400000 -15.000000 25.000000 0.000000 0.000000 1.000000 0.000000 0.000000
0 44.400000 15.000000 25.000000 0.000000 0.000000 1.000000 1.000000 1.000000
0 -44.400000 15.000000 25.000000 0.000000 0.000000 1.000000 0.000000 1.000000
details.bmp
0 -44.400000 15.000000 2.000000 0.000000 0.000000 -1.000000 0.265625 0.769531
0 44.400000 15.000000 2.000000 0.000000 0.000000 -1.000000 0.480469 0.769531
0 44.400000 -15.000000 2.000000 0.000000 0.000000 -1.000000 0.480469 0.984375
details.bmp
0 -44.400000 15.000000 2.000000 0.000000 0.000000 -1.000000 0.265625 0.769531
0 44.400000 -15.000000 2.000000 0.000000 0.000000 -1.000000 0.480469 0.984375
0 -44.400000 -15.000000 2.000000 0.000000 0.000000 -1.000000 0.265625 0.984375
details.bmp
0 -44.760000 -15.300000 25.000000 0.000000 -1.000000 0.000000 0.265625 0.769531
0 44.760000 -15.300000 25.000000 0.000000 -1.000000 0.000000 0.480469 0.769531
0 44.760000 -15.300000 25.700000 0.000000 -1.000000 0.000000 0.480469 0.984375
details.bmp
0 -44.760000 -15.300000 25.000000 0.000000 -1.000000 0.000000 0.265625 0.769531
0 44.760000 -15.300000 25.700000 0.000000 -1.000000 0.000000 0.480469 0.984375
0 -44.760000 -15.300000 25.700000 0.000000 -1.000000 0.000000 0.265625 0.984375
details.bmp
0 44.760000 15.300000 25.000000 0.000000 1.000000 0.000000 0.265625 0.769531
0 -44.760000 15.300000 25.000000 0.000000 1.000000 0.000000 0.480469 0.769531
0 -44.760000 15.300000 25.700000 0.000000 1.000000 0.000000 0.480469 0.984375
details.bmp
0 44.760000 15.300000 25.000000 0.000000 1.000000 -0.000000 0.265625 0.769531
0 -44.760000 15.300000 25.700000 0.000000 1.000000 -0.000000 0.480469 0.984375
0 44.760000 15.300000 25.700000 0.000000 1.000000 -0.000000 0.265625 0.984375
details.bmp
0 -44.760000 15.300000 25.000000 -1.000000 0.000000 0.000000 0.265625 0.769531
0 -44.760000 -15.300000 25.000000 -1.000000 0.000000 0.000000 0.480469 0.769531
0 -44.760000 -15.300000 25.700000 -1.000000 0.000000 0.000000 0.480469 0.984375
details.bmp
0 -44.760000 15.300000 25.000000 -1.000000 0.000000 0.000000 0.265625 0.769531
0 -44.760000 -15.300000 25.700000 -1.000000 0.000000 0.000000 0.480469 0.984375
0 -44.760000 15.300000 25.700000 -1.000000 0.000000 0.000000 0.265625 0.984375
details.bmp
0 44.760000 -15.300000 25.000000 1.000000 0.000000 0.000000 0.265625 0.769531
0 44.760000 15.300000 25.000000 1.000000 0.000000 0.000000 0.480469 0.769531
0 44.760000 15.300000 25.700000 1.000000 0.000000 0.000000 0.480469 0.984375
details.bmp
0 44.760000 -15.300000 25.000000 1.000000 0.000000 0.000000 0.265625 0.769531
0 44.760000 15.300000 25.700000 1.000000 0.000000 0.000000 0.480469 0.984375
0 44.760000 -15.300000 25.700000 1.000000 0.000000 0.000000 0.265625 0.984375
details.bmp
0 -44.760000 -15.300000 25.700000 0.000000 0.000000 1.000000 0.265625 0.769531
0 44.760000 -15.300000 25.700000 0.000000 0.000000 1.000000 0.480469 0.769531
0 44.760000 15.300000 25.700000 0.000000 0.000000 1.000000 0.480469 0.984375
details.bmp
0 -44.760000 -15.300000 25.700000 0.000000 0.000000 1.000000 0.265625 0.769531
0 44.760000 15.300000 25.700000 0.000000 0.000000 1.000000 0.480469 0.984375
0 -44.760000 15.300000 25.700000 0.000000 0.000000 1.000000 0.265625 0.984375
details.bmp
0 -44.760000 15.300000 25.000000 0.000000 0.000000 -1.000000 0.265625 0.769531
0 44.760000 15.300000 25.000000 0.000000 0.000000 -1.000000 0.480469 0.769531
0 44.760000 -15.300000 25.000000 0.000000 0.000000 -1.000000 0.480469 0.984375
details.bmp
0 -44.760000 15.300000 25.000000 0.000000 0.000000 -1.000000 0.265625 0.769531
0 44.760000 -15.300000 25.000000 0.000000 0.000000 -1.000000 0.480469 0.984375
0 -44.760000 -15.300000 25.000000 0.000000 0.000000 -1.000000 0.265625 0.984375
sides.bmp
0 -45.600000 -16.000000 25.700000 0.000000 -1.000000 0.000000 0.000000 0.000000
0 45.600000 -16.000000 25.700000 0.000000 -1.000000 0.000000 1.000000 0.000000
0 45.600000 -16.000000 30.000000 0.000000 -1.000000 0.000000 1.000000 1.000000
sides.bmp
0 -45.600000 -16.000000 25.700000 0.000000 -1.000000 0.000000 0.000000 0.000000
0 45.600000 -16.000000 30.000000 0.000000 -1.000000 0.000000 1.000000 1.000000
0 -45.600000 -16.000000 30.000000 0.000000 -1.000000 0.000000 0.000000 1.000000
rear.bmp
0 45.600000 16.000000 25.700000 0.000000 1.000000 0.000000 0.000000 0.000000
0 -45.600000 16.000000 25.700000 0.000000 1.000000 0.000000 1.000000 0.000000
0 -45.600000 16.000000 30.000000 0.000000 1.000000 0.000000 1.000000 1.000000
rear.bmp
0 45.600000 16.000000 25.700000 0.000000 1.000000 -0.000000 0.000000 0.000000
0 -45.600000 16.000000 30.000000 0.000000 1.000000 -0.000000 1.000000 1.000000
0 45.600000 16.000000 30.000000 0.000000 1.000000 -0.000000 0.000000 1.000000
sides.bmp
0 -45.600000 -16.000000 30.000000 -1.000000 0.000000 0.000000 0.000000 1.000000
0 -45.600000 16.000000 30.000000 -1.000000 0.000000 0.000000 0.450000 1.000000
0 -45.600000 16.000000 25.700000 -1.000000 0.000000 0.000000 0.450000 0.000000
sides.bmp
0 -45.600000 -16.000000 30.000000 -1.000000 0.000000 0.000000 0.000000 1.000000
0 -45.600000 16.000000 25.700000 -1.000000 0.000000 0.000000 0.450000 0.000000
0 -45.600000 -16.000000 25.700000 -1.000000 0.000000 0.000000 0.000000 0.000000
sides.bmp
0 45.600000 -16.000000 25.700000 1.000000 0.000000 0.000000 0.000000 0.000000
0 45.600000 16.000000 25.700000 1.000000 0.000000 0.000000 0.450000 0.000000
0 45.600000 16.000000 30.000000 1.000000 0.000000 0.000000 0.450000 1.000000
sides.bmp
0 45.600000 -16.000000 25.700000 1.000000 0.000000 0.000000 0.000000 0.000000
0 45.600000 16.000000 30.000000 1.000000 0.000000 0.000000 0.450000 1.000000
0 45.600000 -16.000000 30.000000 1.000000 0.000000 0.000000 0.000000 1.000000
cabinet.bmp
0 -45.600000 -16.000000 30.000000 0.000000 0.000000 1.000000 0.000000 0.000000
0 45.600000 -16.000000 30.000000 0.000000 0.000000 1.000000 1.000000 0.000000
0 45.600000 16.000000 30.000000 0.000000 0.000000 1.000000 1.000000 1.000000
cabinet.bmp
0 -45.600000 -16.000000 30.000000 0.000000 0.000000 1.000000 0.000000 0.000000
0 45.600000 16.000000 30.000000 0.000000 0.000000 1.000000 1.000000 1.000000
0 -45.600000 16.000000 30.000000 0.000000 0.000000 1.000000 0.000000 1.000000
details.bmp
0 -45.600000 16.000000 25.700000 0.000000 0.000000 -1.000000 0.265625 0.769531
0 45.600000 16.000000 25.700000 0.000000 0.000000 -1.000000 0.480469 0.769531
0 45.600000 -16.000000 25.700000 0.000000 0.000000 -1.000000 0.480469 0.984375
details.bmp
0 -45.600000 16.000000 25.700000 0.000000 0.000000 -1.000000 0.265625 0.769531
0 45.600000 -16.000000 25.700000 0.000000 0.000000 -1.000000 0.480469 0.984375
0 -45.600000 -16.000000 25.700000 0.000000 0.000000 -1.000000 0.265625 0.984375
details.bmp
0 -37.920000 -15.600000 2.000000 0.000000 -1.000000 0.000000 0.015625 0.769531
0 -34.080000 -15.600000 2.000000 0.000000 -1.000000 0.000000 0.230469 0.769531
0 -34.080000 -15.600000 25.000000 0.000000 -1.000000 0.000000 0.230469 0.984375
details.bmp
0 -37.920000 -15.600000 2.000000 0.000000 -1.000000 0.000000 0.015625 0.769531
0 -34.080000 -15.600000 25.000000 0.000000 -1.000000 0.000000 0.230469 0.984375
0 -37.920000 -15.600000 25.000000 0.000000 -1.000000 0.000000 0.015625 0.984375
details.bmp
0 -34.080000 -14.900000 2.000000 0.000000 1.000000 0.000000 0.015625 0.769531
0 -37.920000 -14.900000 2.000000 0.000000 1.000000 0.000000 0.230469 0.769531
0 -37.920000 -14.900000 25.000000 0.000000 1.000000 0.000000 0.230469 0.984375
details.bmp
0 -34.080000 -14.900000 2.000000 0.000000 1.000000 -0.000000 0.015625 0.769531
0 -37.920000 -14.900000 25.000000 0.000000 1.000000 -0.000000 0.230469 0.984375
0 -34.080000 -14.900000 25.000000 0.000000 1.000000 -0.000000 0.015625 0.984375
details.bmp
0 -37.920000 -14.900000 2.000000 -1.000000 0.000000 0.000000 0.015625 0.769531
0 -37.920000 -15.600000 2.000000 -1.000000 0.000000 0.000000 0.230469 0.769531
0 -37.920000 -15.600000 25.000000 -1.000000 0.000000 0.000000 0.230469 0.984375
details.bmp
0 -37.920000 -14.900000 2.000000 -1.000000 0.000000 0.000000 0.015625 0.769531
0 -37.920000 -15.600000 25.000000 -1.000000 0.000000 0.000000 0.230469 0.984375
0 -37.920000 -14.900000 25.000000 -1.000000 0.000000 0.000000 0.015625 0.984375
details.bmp
0 -34.080000 -15.600000 2.000000 1.000000 0.000000 0.000000 0.015625 0.769531
0 -34.080000 -14.900000 2.000000 1.000000 0.000000 0.000000 0.230469 0.769531
0 -34.080000 -14.900000 25.000000 1.000000 0.000000 0.000000 0.230469 0.984375
details.bmp
0 -34.080000 -15.600000 2.000000 1.000000 0.000000 0.000000 0.015625 0.769531
0 -34.080000 -14.900000 25.000000 1.000000 0.000000 0.000000 0.230469 0.984375
0 -34.080000 -15.600000 25.000000 1.000000 0.000000 0.000000 0.015625 0.984375
details.bmp
0 -37.920000 -15.600000 25.000000 0.000000 0.000000 1.000000 0.015625 0.769531
0 -34.080000 -15.600000 25.000000 0.000000 0.000000 1.000000 0.230469 0.769531
0 -34.080000 -14.900000 25.000000 0.000000 0.000000 1.000000 0.230469 0.984375
details.bmp
0 -37.920000 -15.600000 25.000000 0.000000 0.000000 1.000000 0.015625 0.769531
0 -34.080000 -14.900000 25.000000 0.000000 0.000000 1.000000 0.230469 0.984375
0 -37.920000 -14.900000 25.000000 0.000000 0.000000 1.000000 0.015625 0.984375
details.bmp
0 -37.920000 -14.900000 2.000000 0.000000 0.000000 -1.000000 0.015625 0.769531
0 -34.080000 -14.900000 2.000000 0.000000 0.000000 -1.000000 0.230469 0.769531
0 -34.080000 -15.600000 2.000000 0.000000 0.000000 -1.000000 0.230469 0.984375
details.bmp
0 -37.920000 -14.900000 2.000000 0.000000 0.000000 -1.000000 0.015625 0.769531
0 -34.080000 -15.600000 2.000000 0.000000 0.000000 -1.000000 0.230469 0.984375
0 -37.920000 -15.600000 2.000000 0.000000 0.000000 -1.000000 0.015625 0.984375
details.bmp
0 -37.920000 14.900000 2.000000 0.000000 -1.000000 0.000000 0.015625 0.769531
0 -34.080000 14.900000 2.000000 0.000000 -1.000000 0.000000 0.230469 0.769531
0 -34.080000 14.900000 25.000000 0.000000 -1.000000 0.000000 0.230469 0.984375
details.bmp
0 -37.920000 14.900000 2.000000 0.000000 -1.000000 0.000000 0.015625 0.769531
0 -34.080000 14.900000 25.000000 0.000000 -1.000000 0.000000 0.230469 0.984375
0 -37.920000 14.900000 25.000000 0.000000 -1.000000 0.000000 0.015625 0.984375
details.bmp
0 -34.080000 15.600000 2.000000 0.000000 1.000000 0.000000 0.015625 0.769531
0 -37.920000 15.600000 2.000000 0.000000 1.000000 0.000000 0.230469 0.769531
0 -37.920000 15.600000 25.000000 0.000000 1.000000 0.000000 0.230469 0.984375
details.bmp
0 -34.080000 15.600000 2.000000 0.000000 1.000000 -0.000000 0.015625 0.769531
0 -37.920000 15.600000 25.000000 0.000000 1.000000 -0.000000 0.230469 0.984375
0 -34.080000 15.600000 25.000000 0.000000 1.000000 -0.000000 0.015625 0.984375
details.bmp
0 -37.920000 15.600000 2.000000 -1.000000 0.000000 0.000000 0.015625 0.769531
0 -37.920000 14.900000 2.000000 -1.000000 0.000000 0.000000 0.230469 0.769531
0 -37.920000 14.900000 25.000000 -1.000000 0.000000 0.000000 0.230469 0.984375
details.bmp
0 -37.920000 15.600000 2.000000 -1.000000 0.000000 0.000000 0.015625 0.769531
0 -37.920000 14.900000 25.000000 -1.000000 0.000000 0.000000 0.230469 0.984375
0 -37.920000 15.600000 25.000000 -1.000000 0.000000 0.000000 0.015625 0.984375
details.bmp
0 -34.080000 14.900000 2.000000 1.000000 0.000000 0.000000 0.015625 0.769531
0 -34.080000 15.600000 2.000000 1.000000 0.000000 0.000000 0.230469 0.769531
0 -34.080000 15.600000 25.000000 1.000000 0.000000 0.000000 0.230469 0.984375
details.bmp
0 -34.080000 14.900000 2.000000 1.000000 0.000000 0.000000 0.015625 0.769531
0 -34.080000 15.600000 25.000000 1.000000 0.000000 0.000000 0.230469 0.984375
0 -34.080000 14.900000 25.000000 1.000000 0.000000 0.000000 0.015625 0.984375
details.bmp
0 -37.920000 14.900000 25.000000 0.000000 0.000000 1.000000 0.015625 0.769531
0 -34.080000 14.900000 25.000000 0.000000 0.000000 1.000000 0.230469 0.769531
0 -34.080000 15.600000 25.000000 0.000000 0.000000 1.000000 0.230469 0.984375
details.bmp
0 -37.920000 14.900000 25.000000 0.000000 0.000000 1.000000 0.015625 0.769531
0 -34.080000 15.600000 25.000000 0.000000 0.000000 1.000000 0.230469 0.984375
0 -37.920000 15.600000 25.000000 0.000000 0.000000 1.000000 0.015625 0.984375
details.bmp
0 -37.920000 15.600000 2.000000 0.000000 0.000000 -1.000000 0.015625 0.769531
0 -34.080000 15.600000 2.000000 0.000000 0.000000 -1.000000 0.230469 0.769531
0 -34.080000 14.900000 2.000000 0.000000 0.000000 -1.000000 0.230469 0.984375
details.bmp
0 -37.920000 15.600000 2.000000 0.000000 0.000000 -1.000000 0.015625 0.769531
0 -34.080000 14.900000 2.000000 0.000000 0.000000 -1.000000 0.230469 0.984375
0 -37.920000 14.900000 2.000000 0.000000 0.000000 -1.000000 0.015625 0.984375
details.bmp
0 -37.920000 -16.400000 30.000000 0.000000 -1.000000 0.000000 0.015625 0.769531
0 -34.080000 -16.400000 30.000000 0.000000 -1.000000 0.000000 0.230469 0.769531
0 -34.080000 -16.400000 30.600000 0.000000 -1.000000 0.000000 0.230469 0.984375
details.bmp
0 -37.920000 -16.400000 30.000000 0.000000 -1.000000 0.000000 0.015625 0.769531
0 -34.080000 -16.400000 30.600000 0.000000 -1.000000 0.000000 0.230469 0.984375
0 -37.920000 -16.400000 30.600000 0.000000 -1.000000 0.000000 0.015625 0.984375
details.bmp
0 -34.080000 16.400000 30.000000 0.000000 1.000000 0.000000 0.015625 0.769531
0 -37.920000 16.400000 30.000000 0.000000 1.000000 0.000000 0.230469 0.769531
0 -37.920000 16.400000 30.600000 0.000000 1.000000 0.000000 0.230469 0.984375
details.bmp
0 -34.080000 16.400000 30.000000 0.000000 1.000000 -0.000000 0.015625 0.769531
0 -37.920000 16.400000 30.600000 0.000000 1.000000 -0.000000 0.230469 0.984375
0 -34.080000 16.400000 30.600000 0.000000 1.000000 -0.000000 0.015625 0.984375
details.bmp
0 -37.920000 16.400000 30.000000 -1.000000 0.000000 0.000000 0.015625 0.769531
0 -37.920000 -16.400000 30.000000 -1.000000 0.000000 0.000000 0.230469 0.769531
0 -37.920000 -16.400000 30.600000 -1.000000 0.000000 0.000000 0.230469 0.984375
details.bmp
0 -37.920000 16.400000 30.000000 -1.000000 0.000000 0.000000 0.015625 0.769531
0 -37.920000 -16.400000 30.600000 -1.000000 0.000000 0.000000 0.230469 0.984375
0 -37.920000 16.400000 30.600000 -1.000000 0.000000 0.000000 0.015625 0.984375
details.bmp
0 -34.080000 -16.400000 30.000000 1.000000 0.000000 0.000000 0.015625 0.769531
0 -34.080000 16.400000 30.000000 1.000000 0.000000 0.000000 0.230469 0.769531
0 -34.080000 16.400000 30.600000 1.000000 0.000000 0.000000 0.230469 0.984375
details.bmp
0 -34.080000 -16.400000 30.000000 1.000000 0.000000 0.000000 0.015625 0.769531
0 -34.080000 16.400000 30.600000 1.000000 0.000000 0.000000 0.230469 0.984375
0 -34.080000 -16.400000 30.600000 1.000000 0.000000 0.000000 0.015625 0.984375
details.bmp
0 -37.920000 -16.400000 30.600000 0.000000 0.000000 1.000000 0.015625 0.769531
0 -34.080000 -16.400000 30.600000 0.000000 0.000000 1.000000 0.230469 0.769531
0 -34.080000 16.400000 30.600000 0.000000 0.000000 1.000000 0.230469 0.984375
details.bmp
0 -37.920000 -16.400000 30.600000 0.000000 0.000000 1.000000 0.015625 0.769531
0 -34.080000 16.400000 30.600000 0.000000 0.000000 1.000000 0.230469 0.984375
0 -37.920000 16.400000 30.600000 0.000000 0.000000 1.000000 0.015625 0.984375
details.bmp
0 -37.920000 16.400000 30.000000 0.000000 0.000000 -1.000000 0.015625 0.769531
0 -34.080000 16.400000 30.000000 0.000000 0.000000 -1.000000 0.230469 0.769531
0 -34.080000 -16.400000 30.000000 0.000000 0.000000 -1.000000 0.230469 0.984375
details.bmp
0 -37.920000 16.400000 30.000000 0.000000 0.000000 -1.000000 0.015625 0.769531
0 -34.080000 -16.400000 30.000000 0.000000 0.000000 -1.000000 0.230469 0.984375
0 -37.920000 -16.400000 30.000000 0.000000 0.000000 -1.000000 0.015625 0.984375
details.bmp
0 -37.920000 -16.500000 25.700000 0.000000 -1.000000 0.000000 0.015625 0.769531
0 -34.080000 -16.500000 25.700000 0.000000 -1.000000 0.000000 0.230469 0.769531
0 -34.080000 -16.500000 30.600000 0.000000 -1.000000 0.000000 0.230469 0.984375
details.bmp
0 -37.920000 -16.500000 25.700000 0.000000 -1.000000 0.000000 0.015625 0.769531
0 -34.080000 -16.500000 30.600000 0.000000 -1.000000 0.000000 0.230469 0.984375
0 -37.920000 -16.500000 30.600000 0.000000 -1.000000 0.000000 0.015625 0.984375
details.bmp
0 -34.080000 -15.900000 25.700000 0.000000 1.000000 0.000000 0.015625 0.769531
0 -37.920000 -15.900000 25.700000 0.000000 1.000000 0.000000 0.230469 0.769531
0 -37.920000 -15.900000 30.600000 0.000000 1.000000 0.000000 0.230469 0.984375
details.bmp
0 -34.080000 -15.900000 25.700000 0.000000 1.000000 -0.000000 0.015625 0.769531
0 -37.920000 -15.900000 30.600000 0.000000 1.000000 -0.000000 0.230469 0.984375
0 -34.080000 -15.900000 30.600000 0.000000 1.000000 -0.000000 0.015625 0.984375
details.bmp
0 -37.920000 -15.900000 25.700000 -1.000000 0.000000 0.000000 0.015625 0.769531
0 -37.920000 -16.500000 25.700000 -1.000000 0.000000 0.000000 0.230469 0.769531
0 -37.920000 -16.500000 30.600000 -1.000000 0.000000 0.000000 0.230469 0.984375
details.bmp
0 -37.920000 -15.900000 25.700000 -1.000000 0.000000 0.000000 0.015625 0.769531
0 -37.920000 -16.500000 30.600000 -1.000000 0.000000 0.000000 0.230469 0.984375
0 -37.920000 -15.900000 30.600000 -1.000000 0.000000 0.000000 0.015625 0.984375
details.bmp
0 -34.080000 -16.500000 25.700000 1.000000 0.000000 0.000000 0.015625 0.769531
0 -34.080000 -15.900000 25.700000 1.000000 0.000000 0.000000 0.230469 0.769531
0 -34.080000 -15.900000 30.600000 1.000000 0.000000 0.000000 0.230469 0.984375
details.bmp
0 -34.080000 -16.500000 25.700000 1.000000 0.000000 0.000000 0.015625 0.769531
0 -34.080000 -15.900000 30.600000 1.000000 0.000000 0.000000 0.230469 0.984375
0 -34.080000 -16.500000 30.600000 1.000000 0.000000 0.000000 0.015625 0.984375
details.bmp
0 -37.920000 -16.500000 30.600000 0.000000 0.000000 1.000000 0.015625 0.769531
0 -34.080000 -16.500000 30.600000 0.000000 0.000000 1.000000 0.230469 0.769531
0 -34.080000 -15.900000 30.600000 0.000000 0.000000 1.000000 0.230469 0.984375
details.bmp
0 -37.920000 -16.500000 30.600000 0.000000 0.000000 1.000000 0.015625 0.769531
0 -34.080000 -15.900000 30.600000 0.000000 0.000000 1.000000 0.230469 0.984375
0 -37.920000 -15.900000 30.600000 0.000000 0.000000 1.000000 0.015625 0.984375
details.bmp
0 -37.920000 -15.900000 25.700000 0.000000 0.000000 -1.000000 0.015625 0.769531
0 -34.080000 -15.900000 25.700000 0.000000 0.000000 -1.000000 0.230469 0.769531
0 -34.080000 -16.500000 25.700000 0.000000 0.000000 -1.000000 0.230469 0.984375
details.bmp
0 -37.920000 -15.900000 25.700000 0.000000 0.000000 -1.000000 0.015625 0.769531
0 -34.080000 -16.500000 25.700000 0.000000 0.000000 -1.000000 0.230469 0.984375
0 -37.920000 -16.500000 25.700000 0.000000 0.000000 -1.000000 0.015625 0.984375
details.bmp
0 -38.640000 15.400000 23.000000 0.000000 -1.000000 0.000000 0.015625 0.769531
0 -33.360000 15.400000 23.000000 0.000000 -1.000000 0.000000 0.230469 0.769531
0 -33.360000 15.400000 28.000000 0.000000 -1.000000 0.000000 0.230469 0.984375
details.bmp
0 -38.640000 15.400000 23.000000 0.000000 -1.000000 0.000000 0.015625 0.769531
0 -33.360000 15.400000 28.000000 0.000000 -1.000000 0.000000 0.230469 0.984375
0 -38.640000 15.400000 28.000000 0.000000 -1.000000 0.000000 0.015625 0.984375
details.bmp
0 -33.360000 16.800000 23.000000 0.000000 1.000000 0.000000 0.015625 0.769531
0 -38.640000 16.800000 23.000000 0.000000 1.000000 0.000000 0.230469 0.769531
0 -38.640000 16.800000 28.000000 0.000000 1.000000 0.000000 0.230469 0.984375
details.bmp
0 -33.360000 16.800000 23.000000 0.000000 1.000000 -0.000000 0.015625 0.769531
0 -38.640000 16.800000 28.000000 0.000000 1.000000 -0.000000 0.230469 0.984375
0 -33.360000 16.800000 28.000000 0.000000 1.000000 -0.000000 0.015625 0.984375
details.bmp
0 -38.640000 16.800000 23.000000 -1.000000 0.000000 0.000000 0.015625 0.769531
0 -38.640000 15.400000 23.000000 -1.000000 0.000000 0.000000 0.230469 0.769531
0 -38.640000 15.400000 28.000000 -1.000000 0.000000 0.000000 0.230469 0.984375
details.bmp
0 -38.640000 16.800000 23.000000 -1.000000 0.000000 0.000000 0.015625 0.769531
0 -38.640000 15.400000 28.000000 -1.000000 0.000000 0.000000 0.230469 0.984375
0 -38.640000 16.800000 28.000000 -1.000000 0.000000 0.000000 0.015625 0.984375
details.bmp
0 -33.360000 15.400000 23.000000 1.000000 0.000000 0.000000 0.015625 0.769531
0 -33.360000 16.800000 23.000000 1.000000 0.000000 0.000000 0.230469 0.769531
0 -33.360000 16.800000 28.000000 1.000000 0.000000 0.000000 0.230469 0.984375
details.bmp
0 -33.360000 15.400000 23.000000 1.000000 0.000000 0.000000 0.015625 0.769531
0 -33.360000 16.800000 28.000000 1.000000 0.000000 0.000000 0.230469 0.984375
0 -33.360000 15.400000 28.000000 1.000000 0.000000 0.000000 0.015625 0.984375
details.bmp
0 -38.640000 15.400000 28.000000 0.000000 0.000000 1.000000 0.015625 0.769531
0 -33.360000 15.400000 28.000000 0.000000 0.000000 1.000000 0.230469 0.769531
0 -33.360000 16.800000 28.000000 0.000000 0.000000 1.000000 0.230469 0.984375
details.bmp
0 -38.640000 15.400000 28.000000 0.000000 0.000000 1.000000 0.015625 0.769531
0 -33.360000 16.800000 28.000000 0.000000 0.000000 1.000000 0.230469 0.984375
0 -38.640000 16.800000 28.000000 0.000000 0.000000 1.000000 0.015625 0.984375
details.bmp
0 -38.640000 16.800000 23.000000 0.000000 0.000000 -1.000000 0.015625 0.769531
0 -33.360000 16.800000 23.000000 0.000000 0.000000 -1.000000 0.230469 0.769531
0 -33.360000 15.400000 23.000000 0.000000 0.000000 -1.000000 0.230469 0.984375
details.bmp
0 -38.640000 16.800000 23.000000 0.000000 0.000000 -1.000000 0.015625 0.769531
0 -33.360000 15.400000 23.000000 0.000000 0.000000 -1.000000 0.230469 0.984375
0 -38.640000 15.400000 23.000000 0.000000 0.000000 -1.000000 0.015625 0.984375
details.bmp
0 -39.600000 -15.500000 0.000000 0.000000 -1.000000 0.000000 0.265625 0.769531
0 -32.400000 -15.500000 0.000000 0.000000 -1.000000 0.000000 0.480469 0.769531
0 -32.400000 -15.500000 2.200000 0.000000 -1.000000 0.000000 0.480469 0.984375
details.bmp
0 -39.600000 -15.500000 0.000000 0.000000 -1.000000 0.000000 0.265625 0.769531
0 -32.400000 -15.500000 2.200000 0.000000 -1.000000 0.000000 0.480469 0.984375
0 -39.600000 -15.500000 2.200000 0.000000 -1.000000 0.000000 0.265625 0.984375
details.bmp
0 -32.400000 15.500000 0.000000 0.000000 1.000000 0.000000 0.265625 0.769531
0 -39.600000 15.500000 0.000000 0.000000 1.000000 0.000000 0.480469 0.769531
0 -39.600000 15.500000 2.200000 0.000000 1.000000 0.000000 0.480469 0.984375
details.bmp
0 -32.400000 15.500000 0.000000 0.000000 1.000000 -0.000000 0.265625 0.769531
0 -39.600000 15.500000 2.200000 0.000000 1.000000 -0.000000 0.480469 0.984375
0 -32.400000 15.500000 2.200000 0.000000 1.000000 -0.000000 0.265625 0.984375
details.bmp
0 -39.600000 15.500000 0.000000 -1.000000 0.000000 0.000000 0.265625 0.769531
0 -39.600000 -15.500000 0.000000 -1.000000 0.000000 0.000000 0.480469 0.769531
0 -39.600000 -15.500000 2.200000 -1.000000 0.000000 0.000000 0.480469 0.984375
details.bmp
0 -39.600000 15.500000 0.000000 -1.000000 0.000000 0.000000 0.265625 0.769531
0 -39.600000 -15.500000 2.200000 -1.000000 0.000000 0.000000 0.480469 0.984375
0 -39.600000 15.500000 2.200000 -1.000000 0.000000 0.000000 0.265625 0.984375
details.bmp
0 -32.400000 -15.500000 0.000000 1.000000 0.000000 0.000000 0.265625 0.769531
0 -32.400000 15.500000 0.000000 1.000000 0.000000 0.000000 0.480469 0.769531
0 -32.400000 15.500000 2.200000 1.000000 0.000000 0.000000 0.480469 0.984375
details.bmp
0 -32.400000 -15.500000 0.000000 1.000000 0.000000 0.000000 0.265625 0.769531
0 -32.400000 15.500000 2.200000 1.000000 0.000000 0.000000 0.480469 0.984375
0 -32.400000 -15.500000 2.200000 1.000000 0.000000 0.000000 0.265625 0.984375
details.bmp
0 -39.600000 -15.500000 2.200000 0.000000 0.000000 1.000000 0.265625 0.769531
0 -32.400000 -15.500000 2.200000 0.000000 0.000000 1.000000 0.480469 0.769531
0 -32.400000 15.500000 2.200000 0.000000 0.000000 1.000000 0.480469 0.984375
details.bmp
0 -39.600000 -15.500000 2.200000 0.000000 0.000000 1.000000 0.265625 0.769531
0 -32.400000 15.500000 2.200000 0.000000 0.000000 1.000000 0.480469 0.984375
0 -39.600000 15.500000 2.200000 0.000000 0.000000 1.000000 0.265625 0.984375
details.bmp
0 -39.600000 15.500000 0.000000 0.000000 0.000000 -1.000000 0.265625 0.769531
0 -32.400000 15.500000 0.000000 0.000000 0.000000 -1.000000 0.480469 0.769531
0 -32.400000 -15.500000 0.000000 0.000000 0.000000 -1.000000 0.480469 0.984375
details.bmp
0 -39.600000 15.500000 0.000000 0.000000 0.000000 -1.000000 0.265625 0.769531
0 -32.400000 -15.500000 0.000000 0.000000 0.000000 -1.000000 0.480469 0.984375
0 -39.600000 -15.500000 0.000000 0.000000 0.000000 -1.000000 0.265625 0.984375
details.bmp
0 34.080000 -15.600000 2.000000 0.000000 -1.000000 0.000000 0.015625 0.769531
0 37.920000 -15.600000 2.000000 0.000000 -1.000000 0.000000 0.230469 0.769531
0 37.920000 -15.600000 25.000000 0.000000 -1.000000 0.000000 0.230469 0.984375
details.bmp
0 34.080000 -15.600000 2.000000 0.000000 -1.000000 0.000000 0.015625 0.769531
0 37.920000 -15.600000 25.000000 0.000000 -1.000000 0.000000 0.230469 0.984375
0 34.080000 -15.600000 25.000000 0.000000 -1.000000 0.000000 0.015625 0.984375
details.bmp
0 37.920000 -14.900000 2.000000 0.000000 1.000000 0.000000 0.015625 0.769531
0 34.080000 -14.900000 2.000000 0.000000 1.000000 0.000000 0.230469 0.769531
0 34.080000 -14.900000 25.000000 0.000000 1.000000 0.000000 0.230469 0.984375
details.bmp
0 37.920000 -14.900000 2.000000 0.000000 1.000000 -0.000000 0.015625 0.769531
0 34.080000 -14.900000 25.000000 0.000000 1.000000 -0.000000 0.230469 0.984375
0 37.920000 -14.900000 25.000000 0.000000 1.000000 -0.000000 0.015625 0.984375
details.bmp
0 34.080000 -14.900000 2.000000 -1.000000 0.000000 0.000000 0.015625 0.769531
0 34.080000 -15.600000 2.000000 -1.000000 0.000000 0.000000 0.230469 0.769531
0 34.080000 -15.600000 25.000000 -1.000000 0.000000 0.000000 0.230469 0.984375
details.bmp
0 34.080000 -14.900000 2.000000 -1.000000 0.000000 0.000000 0.015625 0.769531
0 34.080000 -15.600000 25.000000 -1.000000 0.000000 0.000000 0.230469 0.984375
0 34.080000 -14.900000 25.000000 -1.000000 0.000000 0.000000 0.015625 0.984375
details.bmp
0 37.920000 -15.600000 2.000000 1.000000 0.000000 0.000000 0.015625 0.769531
0 37.920000 -14.900000 2.000000 1.000000 0.000000 0.000000 0.230469 0.769531
0 37.920000 -14.900000 25.000000 1.000000 0.000000 0.000000 0.230469 0.984375
details.bmp
0 37.920000 -15.600000 2.000000 1.000000 0.000000 0.000000 0.015625 0.769531
0 37.920000 -14.900000 25.000000 1.000000 0.000000 0.000000 0.230469 0.984375
0 37.920000 -15.600000 25.000000 1.000000 0.000000 0.000000 0.015625 0.984375
details.bmp
0 34.080000 -15.600000 25.000000 0.000000 0.000000 1.000000 0.015625 0.769531
0 37.920000 -15.600000 25.000000 0.000000 0.000000 1.000000 0.230469 0.769531
0 37.920000 -14.900000 25.000000 0.000000 0.000000 1.000000 0.230469 0.984375
details.bmp
0 34.080000 -15.600000 25.000000 0.000000 0.000000 1.000000 0.015625 0.769531
0 37.920000 -14.900000 25.000000 0.000000 0.000000 1.000000 0.230469 0.984375
0 34.080000 -14.900000 25.000000 0.000000 0.000000 1.000000 0.015625 0.984375
details.bmp
0 34.080000 -14.900000 2.000000 0.000000 0.000000 -1.000000 0.015625 0.769531
0 37.920000 -14.900000 2.000000 0.000000 0.000000 -1.000000 0.230469 0.769531
0 37.920000 -15.600000 2.000000 0.000000 0.000000 -1.000000 0.230469 0.984375
details.bmp
0 34.080000 -14.900000 2.000000 0.000000 0.000000 -1.000000 0.015625 0.769531
0 37.920000 -15.600000 2.000000 0.000000 0.000000 -1.000000 0.230469 0.984375
0 34.080000 -15.600000 2.000000 0.000000 0.000000 -1.000000 0.015625 0.984375
details.bmp
0 34.080000 14.900000 2.000000 0.000000 -1.000000 0.000000 0.015625 0.769531
0 37.920000 14.900000 2.000000 0.000000 -1.000000 0.000000 0.230469 0.769531
0 37.920000 14.900000 25.000000 0.000000 -1.000000 0.000000 0.230469 0.984375
details.bmp
0 34.080000 14.900000 2.000000 0.000000 -1.000000 0.000000 0.015625 0.769531
0 37.920000 14.900000 25.000000 0.000000 -1.000000 0.000000 0.230469 0.984375
0 34.080000 14.900000 25.000000 0.000000 -1.000000 0.000000 0.015625 0.984375
details.bmp
0 37.920000 15.600000 2.000000 0.000000 1.000000 0.000000 0.015625 0.769531
0 34.080000 15.600000 2.000000 0.000000 1.000000 0.000000 0.230469 0.769531
0 34.080000 15.600000 25.000000 0.000000 1.000000 0.000000 0.230469 0.984375
details.bmp
0 37.920000 15.600000 2.000000 0.000000 1.000000 -0.000000 0.015625 0.769531
0 34.080000 15.600000 25.000000 0.000000 1.000000 -0.000000 0.230469 0.984375
0 37.920000 15.600000 25.000000 0.000000 1.000000 -0.000000 0.015625 0.984375
details.bmp
0 34.080000 15.600000 2.000000 -1.000000 0.000000 0.000000 0.015625 0.769531
0 34.080000 14.900000 2.000000 -1.000000 0.000000 0.000000 0.230469 0.769531
0 34.080000 14.900000 25.000000 -1.000000 0.000000 0.000000 0.230469 0.984375
details.bmp
0 34.080000 15.600000 2.000000 -1.000000 0.000000 0.000000 0.015625 0.769531
0 34.080000 14.900000 25.000000 -1.000000 0.000000 0.000000 0.230469 0.984375
0 34.080000 15.600000 25.000000 -1.000000 0.000000 0.000000 0.015625 0.984375
details.bmp
0 37.920000 14.900000 2.000000 1.000000 0.000000 0.000000 0.015625 0.769531
0 37.920000 15.600000 2.000000 1.000000 0.000000 0.000000 0.230469 0.769531
0 37.920000 15.600000 25.000000 1.000000 0.000000 0.000000 0.230469 0.984375
details.bmp
0 37.920000 14.900000 2.000000 1.000000 0.000000 0.000000 0.015625 0.769531
0 37.920000 15.600000 25.000000 1.000000 0.000000 0.000000 0.230469 0.984375
0 37.920000 14.900000 25.000000 1.000000 0.000000 0.000000 0.015625 0.984375
details.bmp
0 34.080000 14.900000 25.000000 0.000000 0.000000 1.000000 0.015625 0.769531
0 37.920000 14.900000 25.000000 0.000000 0.000000 1.000000 0.230469 0.769531
0 37.920000 15.600000 25.000000 0.000000 0.000000 1.000000 0.230469 0.984375
details.bmp
0 34.080000 14.900000 25.000000 0.000000 0.000000 1.000000 0.015625 0.769531
0 37.920000 15.600000 25.000000 0.000000 0.000000 1.000000 0.230469 0.984375
0 34.080000 15.600000 25.000000 0.000000 0.000000 1.000000 0.015625 0.984375
details.bmp
0 34.080000 15.600000 2.000000 0.000000 0.000000 -1.000000 0.015625 0.769531
0 37.920000 15.600000 2.000000 0.000000 0.000000 -1.000000 0.230469 0.769531
0 37.920000 14.900000 2.000000 0.000000 0.000000 -1.000000 0.230469 0.984375
details.bmp
0 34.080000 15.600000 2.000000 0.000000 0.000000 -1.000000 0.015625 0.769531
0 37.920000 14.900000 2.000000 0.000000 0.000000 -1.000000 0.230469 0.984375
0 34.080000 14.900000 2.000000 0.000000 0.000000 -1.000000 0.015625 0.984375
details.bmp
0 34.080000 -16.400000 30.000000 0.000000 -1.000000 0.000000 0.015625 0.769531
0 37.920000 -16.400000 30.000000 0.000000 -1.000000 0.000000 0.230469 0.769531
0 37.920000 -16.400000 30.600000 0.000000 -1.000000 0.000000 0.230469 0.984375
details.bmp
0 34.080000 -16.400000 30.000000 0.000000 -1.000000 0.000000 0.015625 0.769531
0 37.920000 -16.400000 30.600000 0.000000 -1.000000 0.000000 0.230469 0.984375
0 34.080000 -16.400000 30.600000 0.000000 -1.000000 0.000000 0.015625 0.984375
details.bmp
0 37.920000 16.400000 30.000000 0.000000 1.000000 0.000000 0.015625 0.769531
0 34.080000 16.400000 30.000000 0.000000 1.000000 0.000000 0.230469 0.769531
0 34.080000 16.400000 30.600000 0.000000 1.000000 0.000000 0.230469 0.984375
details.bmp
0 37.920000 16.400000 30.000000 0.000000 1.000000 -0.000000 0.015625 0.769531
0 34.080000 16.400000 30.600000 0.000000 1.000000 -0.000000 0.230469 0.984375
0 37.920000 16.400000 30.600000 0.000000 1.000000 -0.000000 0.015625 0.984375
details.bmp
0 34.080000 16.400000 30.000000 -1.000000 0.000000 0.000000 0.015625 0.769531
0 34.080000 -16.400000 30.000000 -1.000000 0.000000 0.000000 0.230469 0.769531
0 34.080000 -16.400000 30.600000 -1.000000 0.000000 0.000000 0.230469 0.984375
details.bmp
0 34.080000 16.400000 30.000000 -1.000000 0.000000 0.000000 0.015625 0.769531
0 34.080000 -16.400000 30.600000 -1.000000 0.000000 0.000000 0.230469 0.984375
0 34.080000 16.400000 30.600000 -1.000000 0.000000 0.000000 0.015625 0.984375
details.bmp
0 37.920000 -16.400000 30.000000 1.000000 0.000000 0.000000 0.015625 0.769531
0 37.920000 16.400000 30.000000 1.000000 0.000000 0.000000 0.230469 0.769531
0 37.920000 16.400000 30.600000 1.000000 0.000000 0.000000 0.230469 0.984375
details.bmp
0 37.920000 -16.400000 30.000000 1.000000 0.000000 0.000000 0.015625 0.769531
0 37.920000 16.400000 30.600000 1.000000 0.000000 0.000000 0.230469 0.984375
0 37.920000 -16.400000 30.600000 1.000000 0.000000 0.000000 0.015625 0.984375
details.bmp
0 34.080000 -16.400000 30.600000 0.000000 0.000000 1.000000 0.015625 0.769531
0 37.920000 -16.400000 30.600000 0.000000 0.000000 1.000000 0.230469 0.769531
0 37.920000 16.400000 30.600000 0.000000 0.000000 1.000000 0.230469 0.984375
details.bmp
0 34.080000 -16.400000 30.600000 0.000000 0.000000 1.000000 0.015625 0.769531
0 37.920000 16.400000 30.600000 0.000000 0.000000 1.000000 0.230469 0.984375
0 34.080000 16.400000 30.600000 0.000000 0.000000 1.000000 0.015625 0.984375
details.bmp
0 34.080000 16.400000 30.000000 0.000000 0.000000 -1.000000 0.015625 0.769531
0 37.920000 16.400000 30.000000 0.000000 0.000000 -1.000000 0.230469 0.769531
0 37.920000 -16.400000 30.000000 0.000000 0.000000 -1.000000 0.230469 0.984375
details.bmp
0 34.080000 16.400000 30.000000 0.000000 0.000000 -1.000000 0.015625 0.769531
0 37.920000 -16.400000 30.000000 0.000000 0.000000 -1.000000 0.230469 0.984375
0 34.080000 -16.400000 30.000000 0.000000 0.000000 -1.000000 0.015625 0.984375
details.bmp
0 34.080000 -16.500000 25.700000 0.000000 -1.000000 0.000000 0.015625 0.769531
0 37.920000 -16.500000 25.700000 0.000000 -1.000000 0.000000 0.230469 0.769531
0 37.920000 -16.500000 30.600000 0.000000 -1.000000 0.000000 0.230469 0.984375
details.bmp
0 34.080000 -16.500000 25.700000 0.000000 -1.000000 0.000000 0.015625 0.769531
0 37.920000 -16.500000 30.600000 0.000000 -1.000000 0.000000 0.230469 0.984375
0 34.080000 -16.500000 30.600000 0.000000 -1.000000 0.000000 0.015625 0.984375
details.bmp
0 37.920000 -15.900000 25.700000 0.000000 1.000000 0.000000 0.015625 0.769531
0 34.080000 -15.900000 25.700000 0.000000 1.000000 0.000000 0.230469 0.769531
0 34.080000 -15.900000 30.600000 0.000000 1.000000 0.000000 0.230469 0.984375
details.bmp
0 37.920000 -15.900000 25.700000 0.000000 1.000000 -0.000000 0.015625 0.769531
0 34.080000 -15.900000 30.600000 0.000000 1.000000 -0.000000 0.230469 0.984375
0 37.920000 -15.900000 30.600000 0.000000 1.000000 -0.000000 0.015625 0.984375
details.bmp
0 34.080000 -15.900000 25.700000 -1.000000 0.000000 0.000000 0.015625 0.769531
0 34.080000 -16.500000 25.700000 -1.000000 0.000000 0.000000 0.230469 0.769531
0 34.080000 -16.500000 30.600000 -1.000000 0.000000 0.000000 0.230469 0.984375
details.bmp
0 34.080000 -15.900000 25.700000 -1.000000 0.000000 0.000000 0.015625 0.769531
0 34.080000 -16.500000 30.600000 -1.000000 0.000000 0.000000 0.230469 0.984375
0 34.080000 -15.900000 30.600000 -1.000000 0.000000 0.000000 0.015625 0.984375
details.bmp
0 37.920000 -16.500000 25.700000 1.000000 0.000000 0.000000 0.015625 0.769531
0 37.920000 -15.900000 25.700000 1.000000 0.000000 0.000000 0.230469 0.769531
0 37.920000 -15.900000 30.600000 1.000000 0.000000 0.000000 0.230469 0.984375
details.bmp
0 37.920000 -16.500000 25.700000 1.000000 0.000000 0.000000 0.015625 0.769531
0 37.920000 -15.900000 30.600000 1.000000 0.000000 0.000000 0.230469 0.984375
0 37.920000 -16.500000 30.600000 1.000000 0.000000 0.000000 0.015625 0.984375
details.bmp
0 34.080000 -16.500000 30.600000 0.000000 0.000000 1.000000 0.015625 0.769531
0 37.920000 -16.500000 30.600000 0.000000 0.000000 1.000000 0.230469 0.769531
0 37.920000 -15.900000 30.600000 0.000000 0.000000 1.000000 0.230469 0.984375
details.bmp
0 34.080000 -16.500000 30.600000 0.000000 0.000000 1.000000 0.015625 0.769531
0 37.920000 -15.900000 30.600000 0.000000 0.000000 1.000000 0.230469 0.984375
0 34.080000 -15.900000 30.600000 0.000000 0.000000 1.000000 0.015625 0.984375
details.bmp
0 34.080000 -15.900000 25.700000 0.000000 0.000000 -1.000000 0.015625 0.769531
0 37.920000 -15.900000 25.700000 0.000000 0.000000 -1.000000 0.230469 0.769531
0 37.920000 -16.500000 25.700000 0.000000 0.000000 -1.000000 0.230469 0.984375
details.bmp
0 34.080000 -15.900000 25.700000 0.000000 0.000000 -1.000000 0.015625 0.769531
0 37.920000 -16.500000 25.700000 0.000000 0.000000 -1.000000 0.230469 0.984375
0 34.080000 -16.500000 25.700000 0.000000 0.000000 -1.000000 0.015625 0.984375
details.bmp
0 33.360000 15.400000 23.000000 0.000000 -1.000000 0.000000 0.015625 0.769531
0 38.640000 15.400000 23.000000 0.000000 -1.000000 0.000000 0.230469 0.769531
0 38.640000 15.400000 28.000000 0.000000 -1.000000 0.000000 0.230469 0.984375
details.bmp
0 33.360000 15.400000 23.000000 0.000000 -1.000000 0.000000 0.015625 0.769531
0 38.640000 15.400000 28.000000 0.000000 -1.000000 0.000000 0.230469 0.984375
0 33.360000 15.400000 28.000000 0.000000 -1.000000 0.000000 0.015625 0.984375
details.bmp
0 38.640000 16.800000 23.000000 0.000000 1.000000 0.000000 0.015625 0.769531
0 33.360000 16.800000 23.000000 0.000000 1.000000 0.000000 0.230469 0.769531
0 33.360000 16.800000 28.000000 0.000000 1.000000 0.000000 0.230469 0.984375
details.bmp
0 38.640000 16.800000 23.000000 0.000000 1.000000 -0.000000 0.015625 0.769531
0 33.360000 16.800000 28.000000 0.000000 1.000000 -0.000000 0.230469 0.984375
0 38.640000 16.800000 28.000000 0.000000 1.000000 -0.000000 0.015625 0.984375
details.bmp
0 33.360000 16.800000 23.000000 -1.000000 0.000000 0.000000 0.015625 0.769531
0 33.360000 15.400000 23.000000 -1.000000 0.000000 0.000000 0.230469 0.769531
0 33.360000 15.400000 28.000000 -1.000000 0.000000 0.000000 0.230469 0.984375
details.bmp
0 33.360000 16.800000 23.000000 -1.000000 0.000000 0.000000 0.015625 0.769531
0 33.360000 15.400000 28.000000 -1.000000 0.000000 0.000000 0.230469 0.984375
0 33.360000 16.800000 28.000000 -1.000000 0.000000 0.000000 0.015625 0.984375
details.bmp
0 38.640000 15.400000 23.000000 1.000000 0.000000 0.000000 0.015625 0.769531
0 38.640000 16.800000 23.000000 1.000000 0.000000 0.000000 0.230469 0.769531
0 38.640000 16.800000 28.000000 1.000000 0.000000 0.000000 0.230469 0.984375
details.bmp
0 38.640000 15.400000 23.000000 1.000000 0.000000 0.000000 0.015625 0.769531
0 38.640000 16.800000 28.000000 1.000000 0.000000 0.000000 0.230469 0.984375
0 38.640000 15.400000 28.000000 1.000000 0.000000 0.000000 0.015625 0.984375
details.bmp
0 33.360000 15.400000 28.000000 0.000000 0.000000 1.000000 0.015625 0.769531
0 38.640000 15.400000 28.000000 0.000000 0.000000 1.000000 0.230469 0.769531
0 38.640000 16.800000 28.000000 0.000000 0.000000 1.000000 0.230469 0.984375
details.bmp
0 33.360000 15.400000 28.000000 0.000000 0.000000 1.000000 0.015625 0.769531
0 38.640000 16.800000 28.000000 0.000000 0.000000 1.000000 0.230469 0.984375
0 33.360000 16.800000 28.000000 0.000000 0.000000 1.000000 0.015625 0.984375
details.bmp
0 33.360000 16.800000 23.000000 0.000000 0.000000 -1.000000 0.015625 0.769531
0 38.640000 16.800000 23.000000 0.000000 0.000000 -1.000000 0.230469 0.769531
0 38.640000 15.400000 23.000000 0.000000 0.000000 -1.000000 0.230469 0.984375
details.bmp
0 33.360000 16.800000 23.000000 0.000000 0.000000 -1.000000 0.015625 0.769531
0 38.640000 15.400000 23.000000 0.000000 0.000000 -1.000000 0.230469 0.984375
0 33.360000 15.400000 23.000000 0.000000 0.000000 -1.000000 0.015625 0.984375
details.bmp
0 32.400000 -15.500000 0.000000 0.000000 -1.000000 0.000000 0.265625 0.769531
0 39.600000 -15.500000 0.000000 0.000000 -1.000000 0.000000 0.480469 0.769531
0 39.600000 -15.500000 2.200000 0.000000 -1.000000 0.000000 0.480469 0.984375
details.bmp
0 32.400000 -15.500000 0.000000 0.000000 -1.000000 0.000000 0.265625 0.769531
0 39.600000 -15.500000 2.200000 0.000000 -1.000000 0.000000 0.480469 0.984375
0 32.400000 -15.500000 2.200000 0.000000 -1.000000 0.000000 0.265625 0.984375
details.bmp
0 39.600000 15.500000 0.000000 0.000000 1.000000 0.000000 0.265625 0.769531
0 32.400000 15.500000 0.000000 0.000000 1.000000 0.000000 0.480469 0.769531
0 32.400000 15.500000 2.200000 0.000000 1.000000 0.000000 0.480469 0.984375
details.bmp
0 39.600000 15.500000 0.000000 0.000000 1.000000 -0.000000 0.265625 0.769531
0 32.400000 15.500000 2.200000 0.000000 1.000000 -0.000000 0.480469 0.984375
0 39.600000 15.500000 2.200000 0.000000 1.000000 -0.000000 0.265625 0.984375
details.bmp
0 32.400000 15.500000 0.000000 -1.000000 0.000000 0.000000 0.265625 0.769531
0 32.400000 -15.500000 0.000000 -1.000000 0.000000 0.000000 0.480469 0.769531
0 32.400000 -15.500000 2.200000 -1.000000 0.000000 0.000000 0.480469 0.984375
details.bmp
0 32.400000 15.500000 0.000000 -1.000000 0.000000 0.000000 0.265625 0.769531
0 32.400000 -15.500000 2.200000 -1.000000 0.000000 0.000000 0.480469 0.984375
0 32.400000 15.500000 2.200000 -1.000000 0.000000 0.000000 0.265625 0.984375
details.bmp
0 39.600000 -15.500000 0.000000 1.000000 0.000000 0.000000 0.265625 0.769531
0 39.600000 15.500000 0.000000 1.000000 0.000000 0.000000 0.480469 0.769531
0 39.600000 15.500000 2.200000 1.000000 0.000000 0.000000 0.480469 0.984375
details.bmp
0 39.600000 -15.500000 0.000000 1.000000 0.000000 0.000000 0.265625 0.769531
0 39.600000 15.500000 2.200000 1.000000 0.000000 0.000000 0.480469 0.984375
0 39.600000 -15.500000 2.200000 1.000000 0.000000 0.000000 0.265625 0.984375
details.bmp
0 32.400000 -15.500000 2.200000 0.000000 0.000000 1.000000 0.265625 0.769531
0 39.600000 -15.500000 2.200000 0.000000 0.000000 1.000000 0.480469 0.769531
0 39.600000 15.500000 2.200000 0.000000 0.000000 1.000000 0.480469 0.984375
details.bmp
0 32.400000 -15.500000 2.200000 0.000000 0.000000 1.000000 0.265625 0.769531
0 39.600000 15.500000 2.200000 0.000000 0.000000 1.000000 0.480469 0.984375
0 32.400000 15.500000 2.200000 0.000000 0.000000 1.000000 0.265625 0.984375
details.bmp
0 32.400000 15.500000 0.000000 0.000000 0.000000 -1.000000 0.265625 0.769531
0 39.600000 15.500000 0.000000 0.000000 0.000000 -1.000000 0.480469 0.769531
0 39.600000 -15.500000 0.000000 0.000000 0.000000 -1.000000 0.480469 0.984375
details.bmp
0 32.400000 15.500000 0.000000 0.000000 0.000000 -1.000000 0.265625 0.769531
0 39.600000 -15.500000 0.000000 0.000000 0.000000 -1.000000 0.480469 0.984375
0 32.400000 -15.500000 0.000000 0.000000 0.000000 -1.000000 0.265625 0.984375
details.bmp
0 -3.000000 -16.100000 19.500000 0.000000 -1.000000 0.000000 0.265625 0.769531
0 3.000000 -16.100000 19.500000 0.000000 -1.000000 0.000000 0.480469 0.769531
0 3.000000 -16.100000 25.000000 0.000000 -1.000000 0.000000 0.480469 0.984375
details.bmp
0 -3.000000 -16.100000 19.500000 0.000000 -1.000000 0.000000 0.265625 0.769531
0 3.000000 -16.100000 25.000000 0.000000 -1.000000 0.000000 0.480469 0.984375
0 -3.000000 -16.100000 25.000000 0.000000 -1.000000 0.000000 0.265625 0.984375
details.bmp
0 3.000000 -15.000000 19.500000 0.000000 1.000000 0.000000 0.265625 0.769531
0 -3.000000 -15.000000 19.500000 0.000000 1.000000 0.000000 0.480469 0.769531
0 -3.000000 -15.000000 25.000000 0.000000 1.000000 0.000000 0.480469 0.984375
details.bmp
0 3.000000 -15.000000 19.500000 0.000000 1.000000 -0.000000 0.265625 0.769531
0 -3.000000 -15.000000 25.000000 0.000000 1.000000 -0.000000 0.480469 0.984375
0 3.000000 -15.000000 25.000000 0.000000 1.000000 -0.000000 0.265625 0.984375
details.bmp
0 -3.000000 -15.000000 19.500000 -1.000000 0.000000 0.000000 0.265625 0.769531
0 -3.000000 -16.100000 19.500000 -1.000000 0.000000 0.000000 0.480469 0.769531
0 -3.000000 -16.100000 25.000000 -1.000000 0.000000 0.000000 0.480469 0.984375
details.bmp
0 -3.000000 -15.000000 19.500000 -1.000000 0.000000 0.000000 0.265625 0.769531
0 -3.000000 -16.100000 25.000000 -1.000000 0.000000 0.000000 0.480469 0.984375
0 -3.000000 -15.000000 25.000000 -1.000000 0.000000 0.000000 0.265625 0.984375
details.bmp
0 3.000000 -16.100000 19.500000 1.000000 0.000000 0.000000 0.265625 0.769531
0 3.000000 -15.000000 19.500000 1.000000 0.000000 0.000000 0.480469 0.769531
0 3.000000 -15.000000 25.000000 1.000000 0.000000 0.000000 0.480469 0.984375
details.bmp
0 3.000000 -16.100000 19.500000 1.000000 0.000000 0.000000 0.265625 0.769531
0 3.000000 -15.000000 25.000000 1.000000 0.000000 0.000000 0.480469 0.984375
0 3.000000 -16.100000 25.000000 1.000000 0.000000 0.000000 0.265625 0.984375
details.bmp
0 -3.000000 -16.100000 25.000000 0.000000 0.000000 1.000000 0.265625 0.769531
0 3.000000 -16.100000 25.000000 0.000000 0.000000 1.000000 0.480469 0.769531
0 3.000000 -15.000000 25.000000 0.000000 0.000000 1.000000 0.480469 0.984375
details.bmp
0 -3.000000 -16.100000 25.000000 0.000000 0.000000 1.000000 0.265625 0.769531
0 3.000000 -15.000000 25.000000 0.000000 0.000000 1.000000 0.480469 0.984375
0 -3.000000 -15.000000 25.000000 0.000000 0.000000 1.000000 0.265625 0.984375
details.bmp
0 -3.000000 -15.000000 19.500000 0.000000 0.000000 -1.000000 0.265625 0.769531
0 3.000000 -15.000000 19.500000 0.000000 0.000000 -1.000000 0.480469 0.769531
0 3.000000 -16.100000 19.500000 0.000000 0.000000 -1.000000 0.480469 0.984375
details.bmp
0 -3.000000 -15.000000 19.500000 0.000000 0.000000 -1.000000 0.265625 0.769531
0 3.000000 -16.100000 19.500000 0.000000 0.000000 -1.000000 0.480469 0.984375
0 -3.000000 -16.100000 19.500000 0.000000 0.000000 -1.000000 0.265625 0.984375
details.bmp
0 -2.040000 -17.000000 22.000000 0.000000 -1.000000 0.000000 0.015625 0.769531
0 2.040000 -17.000000 22.000000 0.000000 -1.000000 0.000000 0.230469 0.769531
0 2.040000 -17.000000 28.000000 0.000000 -1.000000 0.000000 0.230469 0.984375
details.bmp
0 -2.040000 -17.000000 22.000000 0.000000 -1.000000 0.000000 0.015625 0.769531
0 2.040000 -17.000000 28.000000 0.000000 -1.000000 0.000000 0.230469 0.984375
0 -2.040000 -17.000000 28.000000 0.000000 -1.000000 0.000000 0.015625 0.984375
details.bmp
0 2.040000 -15.800000 22.000000 0.000000 1.000000 0.000000 0.015625 0.769531
0 -2.040000 -15.800000 22.000000 0.000000 1.000000 0.000000 0.230469 0.769531
0 -2.040000 -15.800000 28.000000 0.000000 1.000000 0.000000 0.230469 0.984375
details.bmp
0 2.040000 -15.800000 22.000000 0.000000 1.000000 -0.000000 0.015625 0.769531
0 -2.040000 -15.800000 28.000000 0.000000 1.000000 -0.000000 0.230469 0.984375
0 2.040000 -15.800000 28.000000 0.000000 1.000000 -0.000000 0.015625 0.984375
details.bmp
0 -2.040000 -15.800000 22.000000 -1.000000 0.000000 0.000000 0.015625 0.769531
0 -2.040000 -17.000000 22.000000 -1.000000 0.000000 0.000000 0.230469 0.769531
0 -2.040000 -17.000000 28.000000 -1.000000 0.000000 0.000000 0.230469 0.984375
details.bmp
0 -2.040000 -15.800000 22.000000 -1.000000 0.000000 0.000000 0.015625 0.769531
0 -2.040000 -17.000000 28.000000 -1.000000 0.000000 0.000000 0.230469 0.984375
0 -2.040000 -15.800000 28.000000 -1.000000 0.000000 0.000000 0.015625 0.984375
details.bmp
0 2.040000 -17.000000 22.000000 1.000000 0.000000 0.000000 0.015625 0.769531
0 2.040000 -15.800000 22.000000 1.000000 0.000000 0.000000 0.230469 0.769531
0 2.040000 -15.800000 28.000000 1.000000 0.000000 0.000000 0.230469 0.984375
details.bmp
0 2.040000 -17.000000 22.000000 1.000000 0.000000 0.000000 0.015625 0.769531
0 2.040000 -15.800000 28.000000 1.000000 0.000000 0.000000 0.230469 0.984375
0 2.040000 -17.000000 28.000000 1.000000 0.000000 0.000000 0.015625 0.984375
details.bmp
0 -2.040000 -17.000000 28.000000 0.000000 0.000000 1.000000 0.015625 0.769531
0 2.040000 -17.000000 28.000000 0.000000 0.000000 1.000000 0.230469 0.769531
0 2.040000 -15.800000 28.000000 0.000000 0.000000 1.000000 0.230469 0.984375
details.bmp
0 -2.040000 -17.000000 28.000000 0.000000 0.000000 1.000000 0.015625 0.769531
0 2.040000 -15.800000 28.000000 0.000000 0.000000 1.000000 0.230469 0.984375
0 -2.040000 -15.800000 28.000000 0.000000 0.000000 1.000000 0.015625 0.984375
details.bmp
0 -2.040000 -15.800000 22.000000 0.000000 0.000000 -1.000000 0.015625 0.769531
0 2.040000 -15.800000 22.000000 0.000000 0.000000 -1.000000 0.230469 0.769531
0 2.040000 -17.000000 22.000000 0.000000 0.000000 -1.000000 0.230469 0.984375
details.bmp
0 -2.040000 -15.800000 22.000000 0.000000 0.000000 -1.000000 0.015625 0.769531
0 2.040000 -17.000000 22.000000 0.000000 0.000000 -1.000000 0.230469 0.984375
0 -2.040000 -17.000000 22.000000 0.000000 0.000000 -1.000000 0.015625 0.984375
details.bmp
0 -0.660000 -17.150000 22.700000 0.000000 -1.000000 0.000000 0.015625 0.519531
0 0.660000 -17.150000 22.700000 0.000000 -1.000000 0.000000 0.230469 0.519531
0 0.660000 -17.150000 24.000000 0.000000 -1.000000 0.000000 0.230469 0.734375
details.bmp
0 -0.660000 -17.150000 22.700000 0.000000 -1.000000 0.000000 0.015625 0.519531
0 0.660000 -17.150000 24.000000 0.000000 -1.000000 0.000000 0.230469 0.734375
0 -0.660000 -17.150000 24.000000 0.000000 -1.000000 0.000000 0.015625 0.734375
details.bmp
0 0.660000 -16.900000 22.700000 0.000000 1.000000 0.000000 0.015625 0.519531
0 -0.660000 -16.900000 22.700000 0.000000 1.000000 0.000000 0.230469 0.519531
0 -0.660000 -16.900000 24.000000 0.000000 1.000000 0.000000 0.230469 0.734375
details.bmp
0 0.660000 -16.900000 22.700000 0.000000 1.000000 -0.000000 0.015625 0.519531
0 -0.660000 -16.900000 24.000000 0.000000 1.000000 -0.000000 0.230469 0.734375
0 0.660000 -16.900000 24.000000 0.000000 1.000000 -0.000000 0.015625 0.734375
details.bmp
0 -0.660000 -16.900000 22.700000 -1.000000 0.000000 0.000000 0.015625 0.519531
0 -0.660000 -17.150000 22.700000 -1.000000 0.000000 0.000000 0.230469 0.519531
0 -0.660000 -17.150000 24.000000 -1.000000 0.000000 0.000000 0.230469 0.734375
details.bmp
0 -0.660000 -16.900000 22.700000 -1.000000 0.000000 0.000000 0.015625 0.519531
0 -0.660000 -17.150000 24.000000 -1.000000 0.000000 0.000000 0.230469 0.734375
0 -0.660000 -16.900000 24.000000 -1.000000 0.000000 0.000000 0.015625 0.734375
details.bmp
0 0.660000 -17.150000 22.700000 1.000000 0.000000 0.000000 0.015625 0.519531
0 0.660000 -16.900000 22.700000 1.000000 0.000000 0.000000 0.230469 0.519531
0 0.660000 -16.900000 24.000000 1.000000 0.000000 0.000000 0.230469 0.734375
details.bmp
0 0.660000 -17.150000 22.700000 1.000000 0.000000 0.000000 0.015625 0.519531
0 0.660000 -16.900000 24.000000 1.000000 0.000000 0.000000 0.230469 0.734375
0 0.660000 -17.150000 24.000000 1.000000 0.000000 0.000000 0.015625 0.734375
details.bmp
0 -0.660000 -17.150000 24.000000 0.000000 0.000000 1.000000 0.015625 0.519531
0 0.660000 -17.150000 24.000000 0.000000 0.000000 1.000000 0.230469 0.519531
0 0.660000 -16.900000 24.000000 0.000000 0.000000 1.000000 0.230469 0.734375
details.bmp
0 -0.660000 -17.150000 24.000000 0.000000 0.000000 1.000000 0.015625 0.519531
0 0.660000 -16.900000 24.000000 0.000000 0.000000 1.000000 0.230469 0.734375
0 -0.660000 -16.900000 24.000000 0.000000 0.000000 1.000000 0.015625 0.734375
details.bmp
0 -0.660000 -16.900000 22.700000 0.000000 0.000000 -1.000000 0.015625 0.519531
0 0.660000 -16.900000 22.700000 0.000000 0.000000 -1.000000 0.230469 0.519531
0 0.660000 -17.150000 22.700000 0.000000 0.000000 -1.000000 0.230469 0.734375
details.bmp
0 -0.660000 -16.900000 22.700000 0.000000 0.000000 -1.000000 0.015625 0.519531
0 0.660000 -17.150000 22.700000 0.000000 0.000000 -1.000000 0.230469 0.734375
0 -0.660000 -17.150000 22.700000 0.000000 0.000000 -1.000000 0.015625 0.734375
details.bmp
0 -46.560000 -6.000000 13.000000 0.000000 -1.000000 0.000000 0.015625 0.769531
0 -44.400000 -6.000000 13.000000 0.000000 -1.000000 0.000000 0.230469 0.769531
0 -44.400000 -6.000000 18.000000 0.000000 -1.000000 0.000000 0.230469 0.984375
details.bmp
0 -46.560000 -6.000000 13.000000 0.000000 -1.000000 0.000000 0.015625 0.769531
0 -44.400000 -6.000000 18.000000 0.000000 -1.000000 0.000000 0.230469 0.984375
0 -46.560000 -6.000000 18.000000 0.000000 -1.000000 0.000000 0.015625 0.984375
details.bmp
0 -44.400000 -4.000000 13.000000 0.000000 1.000000 0.000000 0.015625 0.769531
0 -46.560000 -4.000000 13.000000 0.000000 1.000000 0.000000 0.230469 0.769531
0 -46.560000 -4.000000 18.000000 0.000000 1.000000 0.000000 0.230469 0.984375
details.bmp
0 -44.400000 -4.000000 13.000000 0.000000 1.000000 -0.000000 0.015625 0.769531
0 -46.560000 -4.000000 18.000000 0.000000 1.000000 -0.000000 0.230469 0.984375
0 -44.400000 -4.000000 18.000000 0.000000 1.000000 -0.000000 0.015625 0.984375
details.bmp
0 -46.560000 -4.000000 13.000000 -1.000000 0.000000 0.000000 0.015625 0.769531
0 -46.560000 -6.000000 13.000000 -1.000000 0.000000 0.000000 0.230469 0.769531
0 -46.560000 -6.000000 18.000000 -1.000000 0.000000 0.000000 0.230469 0.984375
details.bmp
0 -46.560000 -4.000000 13.000000 -1.000000 0.000000 0.000000 0.015625 0.769531
0 -46.560000 -6.000000 18.000000 -1.000000 0.000000 0.000000 0.230469 0.984375
0 -46.560000 -4.000000 18.000000 -1.000000 0.000000 0.000000 0.015625 0.984375
details.bmp
0 -44.400000 -6.000000 13.000000 1.000000 0.000000 0.000000 0.015625 0.769531
0 -44.400000 -4.000000 13.000000 1.000000 0.000000 0.000000 0.230469 0.769531
0 -44.400000 -4.000000 18.000000 1.000000 0.000000 0.000000 0.230469 0.984375
details.bmp
0 -44.400000 -6.000000 13.000000 1.000000 0.000000 0.000000 0.015625 0.769531
0 -44.400000 -4.000000 18.000000 1.000000 0.000000 0.000000 0.230469 0.984375
0 -44.400000 -6.000000 18.000000 1.000000 0.000000 0.000000 0.015625 0.984375
details.bmp
0 -46.560000 -6.000000 18.000000 0.000000 0.000000 1.000000 0.015625 0.769531
0 -44.400000 -6.000000 18.000000 0.000000 0.000000 1.000000 0.230469 0.769531
0 -44.400000 -4.000000 18.000000 0.000000 0.000000 1.000000 0.230469 0.984375
details.bmp
0 -46.560000 -6.000000 18.000000 0.000000 0.000000 1.000000 0.015625 0.769531
0 -44.400000 -4.000000 18.000000 0.000000 0.000000 1.000000 0.230469 0.984375
0 -46.560000 -4.000000 18.000000 0.000000 0.000000 1.000000 0.015625 0.984375
details.bmp
0 -46.560000 -4.000000 13.000000 0.000000 0.000000 -1.000000 0.015625 0.769531
0 -44.400000 -4.000000 13.000000 0.000000 0.000000 -1.000000 0.230469 0.769531
0 -44.400000 -6.000000 13.000000 0.000000 0.000000 -1.000000 0.230469 0.984375
details.bmp
0 -46.560000 -4.000000 13.000000 0.000000 0.000000 -1.000000 0.015625 0.769531
0 -44.400000 -6.000000 13.000000 0.000000 0.000000 -1.000000 0.230469 0.984375
0 -46.560000 -6.000000 13.000000 0.000000 0.000000 -1.000000 0.015625 0.984375
details.bmp
0 -46.560000 4.000000 13.000000 0.000000 -1.000000 0.000000 0.015625 0.769531
0 -44.400000 4.000000 13.000000 0.000000 -1.000000 0.000000 0.230469 0.769531
0 -44.400000 4.000000 18.000000 0.000000 -1.000000 0.000000 0.230469 0.984375
details.bmp
0 -46.560000 4.000000 13.000000 0.000000 -1.000000 0.000000 0.015625 0.769531
0 -44.400000 4.000000 18.000000 0.000000 -1.000000 0.000000 0.230469 0.984375
0 -46.560000 4.000000 18.000000 0.000000 -1.000000 0.000000 0.015625 0.984375
details.bmp
0 -44.400000 6.000000 13.000000 0.000000 1.000000 0.000000 0.015625 0.769531
0 -46.560000 6.000000 13.000000 0.000000 1.000000 0.000000 0.230469 0.769531
0 -46.560000 6.000000 18.000000 0.000000 1.000000 0.000000 0.230469 0.984375
details.bmp
0 -44.400000 6.000000 13.000000 0.000000 1.000000 -0.000000 0.015625 0.769531
0 -46.560000 6.000000 18.000000 0.000000 1.000000 -0.000000 0.230469 0.984375
0 -44.400000 6.000000 18.000000 0.000000 1.000000 -0.000000 0.015625 0.984375
details.bmp
0 -46.560000 6.000000 13.000000 -1.000000 0.000000 0.000000 0.015625 0.769531
0 -46.560000 4.000000 13.000000 -1.000000 0.000000 0.000000 0.230469 0.769531
0 -46.560000 4.000000 18.000000 -1.000000 0.000000 0.000000 0.230469 0.984375
details.bmp
0 -46.560000 6.000000 13.000000 -1.000000 0.000000 0.000000 0.015625 0.769531
0 -46.560000 4.000000 18.000000 -1.000000 0.000000 0.000000 0.230469 0.984375
0 -46.560000 6.000000 18.000000 -1.000000 0.000000 0.000000 0.015625 0.984375
details.bmp
0 -44.400000 4.000000 13.000000 1.000000 0.000000 0.000000 0.015625 0.769531
0 -44.400000 6.000000 13.000000 1.000000 0.000000 0.000000 0.230469 0.769531
0 -44.400000 6.000000 18.000000 1.000000 0.000000 0.000000 0.230469 0.984375
details.bmp
0 -44.400000 4.000000 13.000000 1.000000 0.000000 0.000000 0.015625 0.769531
0 -44.400000 6.000000 18.000000 1.000000 0.000000 0.000000 0.230469 0.984375
0 -44.400000 4.000000 18.000000 1.000000 0.000000 0.000000 0.015625 0.984375
details.bmp
0 -46.560000 4.000000 18.000000 0.000000 0.000000 1.000000 0.015625 0.769531
0 -44.400000 4.000000 18.000000 0.000000 0.000000 1.000000 0.230469 0.769531
0 -44.400000 6.000000 18.000000 0.000000 0.000000 1.000000 0.230469 0.984375
details.bmp
0 -46.560000 4.000000 18.000000 0.000000 0.000000 1.000000 0.015625 0.769531
0 -44.400000 6.000000 18.000000 0.000000 0.000000 1.000000 0.230469 0.984375
0 -46.560000 6.000000 18.000000 0.000000 0.000000 1.000000 0.015625 0.984375
details.bmp
0 -46.560000 6.000000 13.000000 0.000000 0.000000 -1.000000 0.015625 0.769531
0 -44.400000 6.000000 13.000000 0.000000 0.000000 -1.000000 0.230469 0.769531
0 -44.400000 4.000000 13.000000 0.000000 0.000000 -1.000000 0.230469 0.984375
details.bmp
0 -46.560000 6.000000 13.000000 0.000000 0.000000 -1.000000 0.015625 0.769531
0 -44.400000 4.000000 13.000000 0.000000 0.000000 -1.000000 0.230469 0.984375
0 -46.560000 4.000000 13.000000 0.000000 0.000000 -1.000000 0.015625 0.984375
details.bmp
0 -48.600000 -6.000000 13.000000 0.000000 -1.000000 0.000000 0.015625 0.769531
0 -46.800000 -6.000000 13.000000 0.000000 -1.000000 0.000000 0.230469 0.769531
0 -46.800000 -6.000000 14.600000 0.000000 -1.000000 0.000000 0.230469 0.984375
details.bmp
0 -48.600000 -6.000000 13.000000 0.000000 -1.000000 0.000000 0.015625 0.769531
0 -46.800000 -6.000000 14.600000 0.000000 -1.000000 0.000000 0.230469 0.984375
0 -48.600000 -6.000000 14.600000 0.000000 -1.000000 0.000000 0.015625 0.984375
details.bmp
0 -46.800000 6.000000 13.000000 0.000000 1.000000 0.000000 0.015625 0.769531
0 -48.600000 6.000000 13.000000 0.000000 1.000000 0.000000 0.230469 0.769531
0 -48.600000 6.000000 14.600000 0.000000 1.000000 0.000000 0.230469 0.984375
details.bmp
0 -46.800000 6.000000 13.000000 0.000000 1.000000 -0.000000 0.015625 0.769531
0 -48.600000 6.000000 14.600000 0.000000 1.000000 -0.000000 0.230469 0.984375
0 -46.800000 6.000000 14.600000 0.000000 1.000000 -0.000000 0.015625 0.984375
details.bmp
0 -48.600000 6.000000 13.000000 -1.000000 0.000000 0.000000 0.015625 0.769531
0 -48.600000 -6.000000 13.000000 -1.000000 0.000000 0.000000 0.230469 0.769531
0 -48.600000 -6.000000 14.600000 -1.000000 0.000000 0.000000 0.230469 0.984375
details.bmp
0 -48.600000 6.000000 13.000000 -1.000000 0.000000 0.000000 0.015625 0.769531
0 -48.600000 -6.000000 14.600000 -1.000000 0.000000 0.000000 0.230469 0.984375
0 -48.600000 6.000000 14.600000 -1.000000 0.000000 0.000000 0.015625 0.984375
details.bmp
0 -46.800000 -6.000000 13.000000 1.000000 0.000000 0.000000 0.015625 0.769531
0 -46.800000 6.000000 13.000000 1.000000 0.000000 0.000000 0.230469 0.769531
0 -46.800000 6.000000 14.600000 1.000000 0.000000 0.000000 0.230469 0.984375
details.bmp
0 -46.800000 -6.000000 13.000000 1.000000 0.000000 0.000000 0.015625 0.769531
0 -46.800000 6.000000 14.600000 1.000000 0.000000 0.000000 0.230469 0.984375
0 -46.800000 -6.000000 14.600000 1.000000 0.000000 0.000000 0.015625 0.984375
details.bmp
0 -48.600000 -6.000000 14.600000 0.000000 0.000000 1.000000 0.015625 0.769531
0 -46.800000 -6.000000 14.600000 0.000000 0.000000 1.000000 0.230469 0.769531
0 -46.800000 6.000000 14.600000 0.000000 0.000000 1.000000 0.230469 0.984375
details.bmp
0 -48.600000 -6.000000 14.600000 0.000000 0.000000 1.000000 0.015625 0.769531
0 -46.800000 6.000000 14.600000 0.000000 0.000000 1.000000 0.230469 0.984375
0 -48.600000 6.000000 14.600000 0.000000 0.000000 1.000000 0.015625 0.984375
details.bmp
0 -48.600000 6.000000 13.000000 0.000000 0.000000 -1.000000 0.015625 0.769531
0 -46.800000 6.000000 13.000000 0.000000 0.000000 -1.000000 0.230469 0.769531
0 -46.800000 -6.000000 13.000000 0.000000 0.000000 -1.000000 0.230469 0.984375
details.bmp
0 -48.600000 6.000000 13.000000 0.000000 0.000000 -1.000000 0.015625 0.769531
0 -46.800000 -6.000000 13.000000 0.000000 0.000000 -1.000000 0.230469 0.984375
0 -48.600000 -6.000000 13.000000 0.000000 0.000000 -1.000000 0.015625 0.984375
details.bmp
0 -48.600000 -5.700000 14.000000 0.000000 -1.000000 0.000000 0.015625 0.769531
0 -45.360000 -5.700000 14.000000 0.000000 -1.000000 0.000000 0.230469 0.769531
0 -45.360000 -5.700000 16.000000 0.000000 -1.000000 0.000000 0.230469 0.984375
details.bmp
0 -48.600000 -5.700000 14.000000 0.000000 -1.000000 0.000000 0.015625 0.769531
0 -45.360000 -5.700000 16.000000 0.000000 -1.000000 0.000000 0.230469 0.984375
0 -48.600000 -5.700000 16.000000 0.000000 -1.000000 0.000000 0.015625 0.984375
details.bmp
0 -45.360000 -4.300000 14.000000 0.000000 1.000000 0.000000 0.015625 0.769531
0 -48.600000 -4.300000 14.000000 0.000000 1.000000 0.000000 0.230469 0.769531
0 -48.600000 -4.300000 16.000000 0.000000 1.000000 0.000000 0.230469 0.984375
details.bmp
0 -45.360000 -4.300000 14.000000 0.000000 1.000000 -0.000000 0.015625 0.769531
0 -48.600000 -4.300000 16.000000 0.000000 1.000000 -0.000000 0.230469 0.984375
0 -45.360000 -4.300000 16.000000 0.000000 1.000000 -0.000000 0.015625 0.984375
details.bmp
0 -48.600000 -4.300000 14.000000 -1.000000 0.000000 0.000000 0.015625 0.769531
0 -48.600000 -5.700000 14.000000 -1.000000 0.000000 0.000000 0.230469 0.769531
0 -48.600000 -5.700000 16.000000 -1.000000 0.000000 0.000000 0.230469 0.984375
details.bmp
0 -48.600000 -4.300000 14.000000 -1.000000 0.000000 0.000000 0.015625 0.769531
0 -48.600000 -5.700000 16.000000 -1.000000 0.000000 0.000000 0.230469 0.984375
0 -48.600000 -4.300000 16.000000 -1.000000 0.000000 0.000000 0.015625 0.984375
details.bmp
0 -45.360000 -5.700000 14.000000 1.000000 0.000000 0.000000 0.015625 0.769531
0 -45.360000 -4.300000 14.000000 1.000000 0.000000 0.000000 0.230469 0.769531
0 -45.360000 -4.300000 16.000000 1.000000 0.000000 0.000000 0.230469 0.984375
details.bmp
0 -45.360000 -5.700000 14.000000 1.000000 0.000000 0.000000 0.015625 0.769531
0 -45.360000 -4.300000 16.000000 1.000000 0.000000 0.000000 0.230469 0.984375
0 -45.360000 -5.700000 16.000000 1.000000 0.000000 0.000000 0.015625 0.984375
details.bmp
0 -48.600000 -5.700000 16.000000 0.000000 0.000000 1.000000 0.015625 0.769531
0 -45.360000 -5.700000 16.000000 0.000000 0.000000 1.000000 0.230469 0.769531
0 -45.360000 -4.300000 16.000000 0.000000 0.000000 1.000000 0.230469 0.984375
details.bmp
0 -48.600000 -5.700000 16.000000 0.000000 0.000000 1.000000 0.015625 0.769531
0 -45.360000 -4.300000 16.000000 0.000000 0.000000 1.000000 0.230469 0.984375
0 -48.600000 -4.300000 16.000000 0.000000 0.000000 1.000000 0.015625 0.984375
details.bmp
0 -48.600000 -4.300000 14.000000 0.000000 0.000000 -1.000000 0.015625 0.769531
0 -45.360000 -4.300000 14.000000 0.000000 0.000000 -1.000000 0.230469 0.769531
0 -45.360000 -5.700000 14.000000 0.000000 0.000000 -1.000000 0.230469 0.984375
details.bmp
0 -48.600000 -4.300000 14.000000 0.000000 0.000000 -1.000000 0.015625 0.769531
0 -45.360000 -5.700000 14.000000 0.000000 0.000000 -1.000000 0.230469 0.984375
0 -48.600000 -5.700000 14.000000 0.000000 0.000000 -1.000000 0.015625 0.984375
details.bmp
0 -48.600000 4.300000 14.000000 0.000000 -1.000000 0.000000 0.015625 0.769531
0 -45.360000 4.300000 14.000000 0.000000 -1.000000 0.000000 0.230469 0.769531
0 -45.360000 4.300000 16.000000 0.000000 -1.000000 0.000000 0.230469 0.984375
details.bmp
0 -48.600000 4.300000 14.000000 0.000000 -1.000000 0.000000 0.015625 0.769531
0 -45.360000 4.300000 16.000000 0.000000 -1.000000 0.000000 0.230469 0.984375
0 -48.600000 4.300000 16.000000 0.000000 -1.000000 0.000000 0.015625 0.984375
details.bmp
0 -45.360000 5.700000 14.000000 0.000000 1.000000 0.000000 0.015625 0.769531
0 -48.600000 5.700000 14.000000 0.000000 1.000000 0.000000 0.230469 0.769531
0 -48.600000 5.700000 16.000000 0.000000 1.000000 0.000000 0.230469 0.984375
details.bmp
0 -45.360000 5.700000 14.000000 0.000000 1.000000 -0.000000 0.015625 0.769531
0 -48.600000 5.700000 16.000000 0.000000 1.000000 -0.000000 0.230469 0.984375
0 -45.360000 5.700000 16.000000 0.000000 1.000000 -0.000000 0.015625 0.984375
details.bmp
0 -48.600000 5.700000 14.000000 -1.000000 0.000000 0.000000 0.015625 0.769531
0 -48.600000 4.300000 14.000000 -1.000000 0.000000 0.000000 0.230469 0.769531
0 -48.600000 4.300000 16.000000 -1.000000 0.000000 0.000000 0.230469 0.984375
details.bmp
0 -48.600000 5.700000 14.000000 -1.000000 0.000000 0.000000 0.015625 0.769531
0 -48.600000 4.300000 16.000000 -1.000000 0.000000 0.000000 0.230469 0.984375
0 -48.600000 5.700000 16.000000 -1.000000 0.000000 0.000000 0.015625 0.984375
details.bmp
0 -45.360000 4.300000 14.000000 1.000000 0.000000 0.000000 0.015625 0.769531
0 -45.360000 5.700000 14.000000 1.000000 0.000000 0.000000 0.230469 0.769531
0 -45.360000 5.700000 16.000000 1.000000 0.000000 0.000000 0.230469 0.984375
details.bmp
0 -45.360000 4.300000 14.000000 1.000000 0.000000 0.000000 0.015625 0.769531
0 -45.360000 5.700000 16.000000 1.000000 0.000000 0.000000 0.230469 0.984375
0 -45.360000 4.300000 16.000000 1.000000 0.000000 0.000000 0.015625 0.984375
details.bmp
0 -48.600000 4.300000 16.000000 0.000000 0.000000 1.000000 0.015625 0.769531
0 -45.360000 4.300000 16.000000 0.000000 0.000000 1.000000 0.230469 0.769531
0 -45.360000 5.700000 16.000000 0.000000 0.000000 1.000000 0.230469 0.984375
details.bmp
0 -48.600000 4.300000 16.000000 0.000000 0.000000 1.000000 0.015625 0.769531
0 -45.360000 5.700000 16.000000 0.000000 0.000000 1.000000 0.230469 0.984375
0 -48.600000 5.700000 16.000000 0.000000 0.000000 1.000000 0.015625 0.984375
details.bmp
0 -48.600000 5.700000 14.000000 0.000000 0.000000 -1.000000 0.015625 0.769531
0 -45.360000 5.700000 14.000000 0.000000 0.000000 -1.000000 0.230469 0.769531
0 -45.360000 4.300000 14.000000 0.000000 0.000000 -1.000000 0.230469 0.984375
details.bmp
0 -48.600000 5.700000 14.000000 0.000000 0.000000 -1.000000 0.015625 0.769531
0 -45.360000 4.300000 14.000000 0.000000 0.000000 -1.000000 0.230469 0.984375
0 -48.600000 4.300000 14.000000 0.000000 0.000000 -1.000000 0.015625 0.984375
details.bmp
0 44.400000 -6.000000 13.000000 0.000000 -1.000000 0.000000 0.015625 0.769531
0 46.560000 -6.000000 13.000000 0.000000 -1.000000 0.000000 0.230469 0.769531
0 46.560000 -6.000000 18.000000 0.000000 -1.000000 0.000000 0.230469 0.984375
details.bmp
0 44.400000 -6.000000 13.000000 0.000000 -1.000000 0.000000 0.015625 0.769531
0 46.560000 -6.000000 18.000000 0.000000 -1.000000 0.000000 0.230469 0.984375
0 44.400000 -6.000000 18.000000 0.000000 -1.000000 0.000000 0.015625 0.984375
details.bmp
0 46.560000 -4.000000 13.000000 0.000000 1.000000 0.000000 0.015625 0.769531
0 44.400000 -4.000000 13.000000 0.000000 1.000000 0.000000 0.230469 0.769531
0 44.400000 -4.000000 18.000000 0.000000 1.000000 0.000000 0.230469 0.984375
details.bmp
0 46.560000 -4.000000 13.000000 0.000000 1.000000 -0.000000 0.015625 0.769531
0 44.400000 -4.000000 18.000000 0.000000 1.000000 -0.000000 0.230469 0.984375
0 46.560000 -4.000000 18.000000 0.000000 1.000000 -0.000000 0.015625 0.984375
details.bmp
0 44.400000 -4.000000 13.000000 -1.000000 0.000000 0.000000 0.015625 0.769531
0 44.400000 -6.000000 13.000000 -1.000000 0.000000 0.000000 0.230469 0.769531
0 44.400000 -6.000000 18.000000 -1.000000 0.000000 0.000000 0.230469 0.984375
details.bmp
0 44.400000 -4.000000 13.000000 -1.000000 0.000000 0.000000 0.015625 0.769531
0 44.400000 -6.000000 18.000000 -1.000000 0.000000 0.000000 0.230469 0.984375
0 44.400000 -4.000000 18.000000 -1.000000 0.000000 0.000000 0.015625 0.984375
details.bmp
0 46.560000 -6.000000 13.000000 1.000000 0.000000 0.000000 0.015625 0.769531
0 46.560000 -4.000000 13.000000 1.000000 0.000000 0.000000 0.230469 0.769531
0 46.560000 -4.000000 18.000000 1.000000 0.000000 0.000000 0.230469 0.984375
details.bmp
0 46.560000 -6.000000 13.000000 1.000000 0.000000 0.000000 0.015625 0.769531
0 46.560000 -4.000000 18.000000 1.000000 0.000000 0.000000 0.230469 0.984375
0 46.560000 -6.000000 18.000000 1.000000 0.000000 0.000000 0.015625 0.984375
details.bmp
0 44.400000 -6.000000 18.000000 0.000000 0.000000 1.000000 0.015625 0.769531
0 46.560000 -6.000000 18.000000 0.000000 0.000000 1.000000 0.230469 0.769531
0 46.560000 -4.000000 18.000000 0.000000 0.000000 1.000000 0.230469 0.984375
details.bmp
0 44.400000 -6.000000 18.000000 0.000000 0.000000 1.000000 0.015625 0.769531
0 46.560000 -4.000000 18.000000 0.000000 0.000000 1.000000 0.230469 0.984375
0 44.400000 -4.000000 18.000000 0.000000 0.000000 1.000000 0.015625 0.984375
details.bmp
0 44.400000 -4.000000 13.000000 0.000000 0.000000 -1.000000 0.015625 0.769531
0 46.560000 -4.000000 13.000000 0.000000 0.000000 -1.000000 0.230469 0.769531
0 46.560000 -6.000000 13.000000 0.000000 0.000000 -1.000000 0.230469 0.984375
details.bmp
0 44.400000 -4.000000 13.000000 0.000000 0.000000 -1.000000 0.015625 0.769531
0 46.560000 -6.000000 13.000000 0.000000 0.000000 -1.000000 0.230469 0.984375
0 44.400000 -6.000000 13.000000 0.000000 0.000000 -1.000000 0.015625 0.984375
details.bmp
0 44.400000 4.000000 13.000000 0.000000 -1.000000 0.000000 0.015625 0.769531
0 46.560000 4.000000 13.000000 0.000000 -1.000000 0.000000 0.230469 0.769531
0 46.560000 4.000000 18.000000 0.000000 -1.000000 0.000000 0.230469 0.984375
details.bmp
0 44.400000 4.000000 13.000000 0.000000 -1.000000 0.000000 0.015625 0.769531
0 46.560000 4.000000 18.000000 0.000000 -1.000000 0.000000 0.230469 0.984375
0 44.400000 4.000000 18.000000 0.000000 -1.000000 0.000000 0.015625 0.984375
details.bmp
0 46.560000 6.000000 13.000000 0.000000 1.000000 0.000000 0.015625 0.769531
0 44.400000 6.000000 13.000000 0.000000 1.000000 0.000000 0.230469 0.769531
0 44.400000 6.000000 18.000000 0.000000 1.000000 0.000000 0.230469 0.984375
details.bmp
0 46.560000 6.000000 13.000000 0.000000 1.000000 -0.000000 0.015625 0.769531
0 44.400000 6.000000 18.000000 0.000000 1.000000 -0.000000 0.230469 0.984375
0 46.560000 6.000000 18.000000 0.000000 1.000000 -0.000000 0.015625 0.984375
details.bmp
0 44.400000 6.000000 13.000000 -1.000000 0.000000 0.000000 0.015625 0.769531
0 44.400000 4.000000 13.000000 -1.000000 0.000000 0.000000 0.230469 0.769531
0 44.400000 4.000000 18.000000 -1.000000 0.000000 0.000000 0.230469 0.984375
details.bmp
0 44.400000 6.000000 13.000000 -1.000000 0.000000 0.000000 0.015625 0.769531
0 44.400000 4.000000 18.000000 -1.000000 0.000000 0.000000 0.230469 0.984375
0 44.400000 6.000000 18.000000 -1.000000 0.000000 0.000000 0.015625 0.984375
details.bmp
0 46.560000 4.000000 13.000000 1.000000 0.000000 0.000000 0.015625 0.769531
0 46.560000 6.000000 13.000000 1.000000 0.000000 0.000000 0.230469 0.769531
0 46.560000 6.000000 18.000000 1.000000 0.000000 0.000000 0.230469 0.984375
details.bmp
0 46.560000 4.000000 13.000000 1.000000 0.000000 0.000000 0.015625 0.769531
0 46.560000 6.000000 18.000000 1.000000 0.000000 0.000000 0.230469 0.984375
0 46.560000 4.000000 18.000000 1.000000 0.000000 0.000000 0.015625 0.984375
details.bmp
0 44.400000 4.000000 18.000000 0.000000 0.000000 1.000000 0.015625 0.769531
0 46.560000 4.000000 18.000000 0.000000 0.000000 1.000000 0.230469 0.769531
0 46.560000 6.000000 18.000000 0.000000 0.000000 1.000000 0.230469 0.984375
details.bmp
0 44.400000 4.000000 18.000000 0.000000 0.000000 1.000000 0.015625 0.769531
0 46.560000 6.000000 18.000000 0.000000 0.000000 1.000000 0.230469 0.984375
0 44.400000 6.000000 18.000000 0.000000 0.000000 1.000000 0.015625 0.984375
details.bmp
0 44.400000 6.000000 13.000000 0.000000 0.000000 -1.000000 0.015625 0.769531
0 46.560000 6.000000 13.000000 0.000000 0.000000 -1.000000 0.230469 0.769531
0 46.560000 4.000000 13.000000 0.000000 0.000000 -1.000000 0.230469 0.984375
details.bmp
0 44.400000 6.000000 13.000000 0.000000 0.000000 -1.000000 0.015625 0.769531
0 46.560000 4.000000 13.000000 0.000000 0.000000 -1.000000 0.230469 0.984375
0 44.400000 4.000000 13.000000 0.000000 0.000000 -1.000000 0.015625 0.984375
details.bmp
0 46.800000 -6.000000 13.000000 0.000000 -1.000000 0.000000 0.015625 0.769531
0 48.600000 -6.000000 13.000000 0.000000 -1.000000 0.000000 0.230469 0.769531
0 48.600000 -6.000000 14.600000 0.000000 -1.000000 0.000000 0.230469 0.984375
details.bmp
0 46.800000 -6.000000 13.000000 0.000000 -1.000000 0.000000 0.015625 0.769531
0 48.600000 -6.000000 14.600000 0.000000 -1.000000 0.000000 0.230469 0.984375
0 46.800000 -6.000000 14.600000 0.000000 -1.000000 0.000000 0.015625 0.984375
details.bmp
0 48.600000 6.000000 13.000000 0.000000 1.000000 0.000000 0.015625 0.769531
0 46.800000 6.000000 13.000000 0.000000 1.000000 0.000000 0.230469 0.769531
0 46.800000 6.000000 14.600000 0.000000 1.000000 0.000000 0.230469 0.984375
details.bmp
0 48.600000 6.000000 13.000000 0.000000 1.000000 -0.000000 0.015625 0.769531
0 46.800000 6.000000 14.600000 0.000000 1.000000 -0.000000 0.230469 0.984375
0 48.600000 6.000000 14.600000 0.000000 1.000000 -0.000000 0.015625 0.984375
details.bmp
0 46.800000 6.000000 13.000000 -1.000000 0.000000 0.000000 0.015625 0.769531
0 46.800000 -6.000000 13.000000 -1.000000 0.000000 0.000000 0.230469 0.769531
0 46.800000 -6.000000 14.600000 -1.000000 0.000000 0.000000 0.230469 0.984375
details.bmp
0 46.800000 6.000000 13.000000 -1.000000 0.000000 0.000000 0.015625 0.769531
0 46.800000 -6.000000 14.600000 -1.000000 0.000000 0.000000 0.230469 0.984375
0 46.800000 6.000000 14.600000 -1.000000 0.000000 0.000000 0.015625 0.984375
details.bmp
0 48.600000 -6.000000 13.000000 1.000000 0.000000 0.000000 0.015625 0.769531
0 48.600000 6.000000 13.000000 1.000000 0.000000 0.000000 0.230469 0.769531
0 48.600000 6.000000 14.600000 1.000000 0.000000 0.000000 0.230469 0.984375
details.bmp
0 48.600000 -6.000000 13.000000 1.000000 0.000000 0.000000 0.015625 0.769531
0 48.600000 6.000000 14.600000 1.000000 0.000000 0.000000 0.230469 0.984375
0 48.600000 -6.000000 14.600000 1.000000 0.000000 0.000000 0.015625 0.984375
details.bmp
0 46.800000 -6.000000 14.600000 0.000000 0.000000 1.000000 0.015625 0.769531
0 48.600000 -6.000000 14.600000 0.000000 0.000000 1.000000 0.230469 0.769531
0 48.600000 6.000000 14.600000 0.000000 0.000000 1.000000 0.230469 0.984375
details.bmp
0 46.800000 -6.000000 14.600000 0.000000 0.000000 1.000000 0.015625 0.769531
0 48.600000 6.000000 14.600000 0.000000 0.000000 1.000000 0.230469 0.984375
0 46.800000 6.000000 14.600000 0.000000 0.000000 1.000000 0.015625 0.984375
details.bmp
0 46.800000 6.000000 13.000000 0.000000 0.000000 -1.000000 0.015625 0.769531
0 48.600000 6.000000 13.000000 0.000000 0.000000 -1.000000 0.230469 0.769531
0 48.600000 -6.000000 13.000000 0.000000 0.000000 -1.000000 0.230469 0.984375
details.bmp
0 46.800000 6.000000 13.000000 0.000000 0.000000 -1.000000 0.015625 0.769531
0 48.600000 -6.000000 13.000000 0.000000 0.000000 -1.000000 0.230469 0.984375
0 46.800000 -6.000000 13.000000 0.000000 0.000000 -1.000000 0.015625 0.984375
details.bmp
0 45.360000 -5.700000 14.000000 0.000000 -1.000000 0.000000 0.015625 0.769531
0 48.600000 -5.700000 14.000000 0.000000 -1.000000 0.000000 0.230469 0.769531
0 48.600000 -5.700000 16.000000 0.000000 -1.000000 0.000000 0.230469 0.984375
details.bmp
0 45.360000 -5.700000 14.000000 0.000000 -1.000000 0.000000 0.015625 0.769531
0 48.600000 -5.700000 16.000000 0.000000 -1.000000 0.000000 0.230469 0.984375
0 45.360000 -5.700000 16.000000 0.000000 -1.000000 0.000000 0.015625 0.984375
details.bmp
0 48.600000 -4.300000 14.000000 0.000000 1.000000 0.000000 0.015625 0.769531
0 45.360000 -4.300000 14.000000 0.000000 1.000000 0.000000 0.230469 0.769531
0 45.360000 -4.300000 16.000000 0.000000 1.000000 0.000000 0.230469 0.984375
details.bmp
0 48.600000 -4.300000 14.000000 0.000000 1.000000 -0.000000 0.015625 0.769531
0 45.360000 -4.300000 16.000000 0.000000 1.000000 -0.000000 0.230469 0.984375
0 48.600000 -4.300000 16.000000 0.000000 1.000000 -0.000000 0.015625 0.984375
details.bmp
0 45.360000 -4.300000 14.000000 -1.000000 0.000000 0.000000 0.015625 0.769531
0 45.360000 -5.700000 14.000000 -1.000000 0.000000 0.000000 0.230469 0.769531
0 45.360000 -5.700000 16.000000 -1.000000 0.000000 0.000000 0.230469 0.984375
details.bmp
0 45.360000 -4.300000 14.000000 -1.000000 0.000000 0.000000 0.015625 0.769531
0 45.360000 -5.700000 16.000000 -1.000000 0.000000 0.000000 0.230469 0.984375
0 45.360000 -4.300000 16.000000 -1.000000 0.000000 0.000000 0.015625 0.984375
details.bmp
0 48.600000 -5.700000 14.000000 1.000000 0.000000 0.000000 0.015625 0.769531
0 48.600000 -4.300000 14.000000 1.000000 0.000000 0.000000 0.230469 0.769531
0 48.600000 -4.300000 16.000000 1.000000 0.000000 0.000000 0.230469 0.984375
details.bmp
0 48.600000 -5.700000 14.000000 1.000000 0.000000 0.000000 0.015625 0.769531
0 48.600000 -4.300000 16.000000 1.000000 0.000000 0.000000 0.230469 0.984375
0 48.600000 -5.700000 16.000000 1.000000 0.000000 0.000000 0.015625 0.984375
details.bmp
0 45.360000 -5.700000 16.000000 0.000000 0.000000 1.000000 0.015625 0.769531
0 48.600000 -5.700000 16.000000 0.000000 0.000000 1.000000 0.230469 0.769531
0 48.600000 -4.300000 16.000000 0.000000 0.000000 1.000000 0.230469 0.984375
details.bmp
0 45.360000 -5.700000 16.000000 0.000000 0.000000 1.000000 0.015625 0.769531
0 48.600000 -4.300000 16.000000 0.000000 0.000000 1.000000 0.230469 0.984375
0 45.360000 -4.300000 16.000000 0.000000 0.000000 1.000000 0.015625 0.984375
details.bmp
0 45.360000 -4.300000 14.000000 0.000000 0.000000 -1.000000 0.015625 0.769531
0 48.600000 -4.300000 14.000000 0.000000 0.000000 -1.000000 0.230469 0.769531
0 48.600000 -5.700000 14.000000 0.000000 0.000000 -1.000000 0.230469 0.984375
details.bmp
0 45.360000 -4.300000 14.000000 0.000000 0.000000 -1.000000 0.015625 0.769531
0 48.600000 -5.700000 14.000000 0.000000 0.000000 -1.000000 0.230469 0.984375
0 45.360000 -5.700000 14.000000 0.000000 0.000000 -1.000000 0.015625 0.984375
details.bmp
0 45.360000 4.300000 14.000000 0.000000 -1.000000 0.000000 0.015625 0.769531
0 48.600000 4.300000 14.000000 0.000000 -1.000000 0.000000 0.230469 0.769531
0 48.600000 4.300000 16.000000 0.000000 -1.000000 0.000000 0.230469 0.984375
details.bmp
0 45.360000 4.300000 14.000000 0.000000 -1.000000 0.000000 0.015625 0.769531
0 48.600000 4.300000 16.000000 0.000000 -1.000000 0.000000 0.230469 0.984375
0 45.360000 4.300000 16.000000 0.000000 -1.000000 0.000000 0.015625 0.984375
details.bmp
0 48.600000 5.700000 14.000000 0.000000 1.000000 0.000000 0.015625 0.769531
0 45.360000 5.700000 14.000000 0.000000 1.000000 0.000000 0.230469 0.769531
0 45.360000 5.700000 16.000000 0.000000 1.000000 0.000000 0.230469 0.984375
details.bmp
0 48.600000 5.700000 14.000000 0.000000 1.000000 -0.000000 0.015625 0.769531
0 45.360000 5.700000 16.000000 0.000000 1.000000 -0.000000 0.230469 0.984375
0 48.600000 5.700000 16.000000 0.000000 1.000000 -0.000000 0.015625 0.984375
details.bmp
0 45.360000 5.700000 14.000000 -1.000000 0.000000 0.000000 0.015625 0.769531
0 45.360000 4.300000 14.000000 -1.000000 0.000000 0.000000 0.230469 0.769531
0 45.360000 4.300000 16.000000 -1.000000 0.000000 0.000000 0.230469 0.984375
details.bmp
0 45.360000 5.700000 14.000000 -1.000000 0.000000 0.000000 0.015625 0.769531
0 45.360000 4.300000 16.000000 -1.000000 0.000000 0.000000 0.230469 0.984375
0 45.360000 5.700000 16.000000 -1.000000 0.000000 0.000000 0.015625 0.984375
details.bmp
0 48.600000 4.300000 14.000000 1.000000 0.000000 0.000000 0.015625 0.769531
0 48.600000 5.700000 14.000000 1.000000 0.000000 0.000000 0.230469 0.769531
0 48.600000 5.700000 16.000000 1.000000 0.000000 0.000000 0.230469 0.984375
details.bmp
0 48.600000 4.300000 14.000000 1.000000 0.000000 0.000000 0.015625 0.769531
0 48.600000 5.700000 16.000000 1.000000 0.000000 0.000000 0.230469 0.984375
0 48.600000 4.300000 16.000000 1.000000 0.000000 0.000000 0.015625 0.984375
details.bmp
0 45.360000 4.300000 16.000000 0.000000 0.000000 1.000000 0.015625 0.769531
0 48.600000 4.300000 16.000000 0.000000 0.000000 1.000000 0.230469 0.769531
0 48.600000 5.700000 16.000000 0.000000 0.000000 1.000000 0.230469 0.984375
details.bmp
0 45.360000 4.300000 16.000000 0.000000 0.000000 1.000000 0.015625 0.769531
0 48.600000 5.700000 16.000000 0.000000 0.000000 1.000000 0.230469 0.984375
0 45.360000 5.700000 16.000000 0.000000 0.000000 1.000000 0.015625 0.984375
details.bmp
0 45.360000 5.700000 14.000000 0.000000 0.000000 -1.000000 0.015625 0.769531
0 48.600000 5.700000 14.000000 0.000000 0.000000 -1.000000 0.230469 0.769531
0 48.600000 4.300000 14.000000 0.000000 0.000000 -1.000000 0.230469 0.984375
details.bmp
0 45.360000 5.700000 14.000000 0.000000 0.000000 -1.000000 0.015625 0.769531
0 48.600000 4.300000 14.000000 0.000000 0.000000 -1.000000 0.230469 0.984375
0 45.360000 4.300000 14.000000 0.000000 0.000000 -1.000000 0.015625 0.984375
end
