version 1
nodes
0 "root" -1
end
skeleton
time 0
0 0 0 0 0 0 0
end
triangles
cabinet.bmp
0 -18.050000 -14.000000 3.080800 0.000000 -1.000000 0.000000 0.078833 0.021270
0 18.050000 -14.000000 3.080800 0.000000 -1.000000 0.000000 0.921167 0.021270
0 19.950000 -14.000000 4.644000 0.000000 -1.000000 0.000000 0.965500 0.047147
cabinet.bmp
0 -18.050000 -14.000000 3.080800 0.000000 -1.000000 0.000000 0.078833 0.021270
0 19.950000 -14.000000 4.644000 0.000000 -1.000000 0.000000 0.965500 0.047147
0 19.950000 -14.000000 58.574400 0.000000 -1.000000 0.000000 0.965500 0.939914
cabinet.bmp
0 -18.050000 -14.000000 3.080800 0.000000 -1.000000 0.000000 0.078833 0.021270
0 19.950000 -14.000000 58.574400 0.000000 -1.000000 0.000000 0.965500 0.939914
0 18.050000 -14.000000 60.919200 0.000000 -1.000000 0.000000 0.921167 0.978730
cabinet.bmp
0 -18.050000 -14.000000 3.080800 0.000000 -1.000000 0.000000 0.078833 0.021270
0 18.050000 -14.000000 60.919200 0.000000 -1.000000 0.000000 0.921167 0.978730
0 -18.050000 -14.000000 60.919200 0.000000 -1.000000 0.000000 0.078833 0.978730
cabinet.bmp
0 -18.050000 -14.000000 3.080800 0.000000 -1.000000 0.000000 0.078833 0.021270
0 -18.050000 -14.000000 60.919200 0.000000 -1.000000 0.000000 0.078833 0.978730
0 -19.950000 -14.000000 58.574400 0.000000 -1.000000 0.000000 0.034500 0.939914
cabinet.bmp
0 -18.050000 -14.000000 3.080800 0.000000 -1.000000 0.000000 0.078833 0.021270
0 -19.950000 -14.000000 58.574400 0.000000 -1.000000 0.000000 0.034500 0.939914
0 -19.950000 -14.000000 4.644000 0.000000 -1.000000 0.000000 0.034500 0.047147
details.bmp
0 -18.050000 -14.000000 3.080800 0.000000 -0.391530 -0.920165 0.515625 0.769531
0 -19.000000 -12.000000 2.400000 0.000000 -0.391530 -0.920165 0.730469 0.769531
0 19.000000 -12.000000 2.400000 0.000000 -0.391530 -0.920165 0.730469 0.984375
details.bmp
0 -18.050000 -14.000000 3.080800 0.000000 -0.391530 -0.920165 0.515625 0.769531
0 19.000000 -12.000000 2.400000 0.000000 -0.391530 -0.920165 0.730469 0.984375
0 18.050000 -14.000000 3.080800 0.000000 -0.391530 -0.920165 0.515625 0.984375
details.bmp
0 18.050000 -14.000000 3.080800 0.596454 -0.537107 -0.596454 0.515625 0.769531
0 19.000000 -12.000000 2.400000 0.596454 -0.537107 -0.596454 0.730469 0.769531
0 21.000000 -12.000000 4.000000 0.596454 -0.537107 -0.596454 0.730469 0.984375
details.bmp
0 18.050000 -14.000000 3.080800 0.599196 -0.549089 -0.582637 0.515625 0.769531
0 21.000000 -12.000000 4.000000 0.599196 -0.549089 -0.582637 0.730469 0.984375
0 19.950000 -14.000000 4.644000 0.599196 -0.549089 -0.582637 0.515625 0.984375
details.bmp
0 19.950000 -14.000000 4.644000 0.885398 -0.464834 0.000000 0.515625 0.769531
0 21.000000 -12.000000 4.000000 0.885398 -0.464834 0.000000 0.730469 0.769531
0 21.000000 -12.000000 59.200000 0.885398 -0.464834 0.000000 0.730469 0.984375
details.bmp
0 19.950000 -14.000000 4.644000 0.885398 -0.464834 0.000000 0.515625 0.769531
0 21.000000 -12.000000 59.200000 0.885398 -0.464834 0.000000 0.730469 0.984375
0 19.950000 -14.000000 58.574400 0.885398 -0.464834 0.000000 0.515625 0.984375
details.bmp
0 19.950000 -14.000000 58.574400 0.696443 -0.547172 0.464295 0.515625 0.769531
0 21.000000 -12.000000 59.200000 0.696443 -0.547172 0.464295 0.730469 0.769531
0 19.000000 -12.000000 61.600000 0.696443 -0.547172 0.464295 0.730469 0.984375
details.bmp
0 19.950000 -14.000000 58.574400 0.709959 -0.533057 0.460226 0.515625 0.769531
0 19.000000 -12.000000 61.600000 0.709959 -0.533057 0.460226 0.730469 0.984375
0 18.050000 -14.000000 60.919200 0.709959 -0.533057 0.460226 0.515625 0.984375
details.bmp
0 18.050000 -14.000000 60.919200 0.000000 -0.391530 0.920165 0.515625 0.769531
0 19.000000 -12.000000 61.600000 0.000000 -0.391530 0.920165 0.730469 0.769531
0 -19.000000 -12.000000 61.600000 0.000000 -0.391530 0.920165 0.730469 0.984375
details.bmp
0 18.050000 -14.000000 60.919200 0.000000 -0.391530 0.920165 0.515625 0.769531
0 -19.000000 -12.000000 61.600000 0.000000 -0.391530 0.920165 0.730469 0.984375
0 -18.050000 -14.000000 60.919200 0.000000 -0.391530 0.920165 0.515625 0.984375
details.bmp
0 -18.050000 -14.000000 60.919200 -0.703594 -0.533793 0.469063 0.515625 0.769531
0 -19.000000 -12.000000 61.600000 -0.703594 -0.533793 0.469063 0.730469 0.769531
0 -21.000000 -12.000000 59.200000 -0.703594 -0.533793 0.469063 0.730469 0.984375
details.bmp
0 -18.050000 -14.000000 60.919200 -0.702516 -0.546883 0.455401 0.515625 0.769531
0 -21.000000 -12.000000 59.200000 -0.702516 -0.546883 0.455401 0.730469 0.984375
0 -19.950000 -14.000000 58.574400 -0.702516 -0.546883 0.455401 0.515625 0.984375
details.bmp
0 -19.950000 -14.000000 58.574400 -0.885398 -0.464834 0.000000 0.515625 0.769531
0 -21.000000 -12.000000 59.200000 -0.885398 -0.464834 0.000000 0.730469 0.769531
0 -21.000000 -12.000000 4.000000 -0.885398 -0.464834 0.000000 0.730469 0.984375
details.bmp
0 -19.950000 -14.000000 58.574400 -0.885398 -0.464834 -0.000000 0.515625 0.769531
0 -21.000000 -12.000000 4.000000 -0.885398 -0.464834 -0.000000 0.730469 0.984375
0 -19.950000 -14.000000 4.644000 -0.885398 -0.464834 -0.000000 0.515625 0.984375
details.bmp
0 -19.950000 -14.000000 4.644000 -0.591286 -0.548418 -0.591286 0.515625 0.769531
0 -21.000000 -12.000000 4.000000 -0.591286 -0.548418 -0.591286 0.730469 0.769531
0 -19.000000 -12.000000 2.400000 -0.591286 -0.548418 -0.591286 0.730469 0.984375
details.bmp
0 -19.950000 -14.000000 4.644000 -0.604635 -0.537364 -0.587926 0.515625 0.769531
0 -19.000000 -12.000000 2.400000 -0.604635 -0.537364 -0.587926 0.730469 0.984375
0 -18.050000 -14.000000 3.080800 -0.604635 -0.537364 -0.587926 0.515625 0.984375
details.bmp
0 -19.000000 -12.000000 2.400000 0.000000 0.000000 -1.000000 0.265625 0.769531
0 -19.000000 13.000000 2.400000 0.000000 0.000000 -1.000000 0.480469 0.769531
0 19.000000 13.000000 2.400000 0.000000 0.000000 -1.000000 0.480469 0.984375
details.bmp
0 -19.000000 -12.000000 2.400000 0.000000 0.000000 -1.000000 0.265625 0.769531
0 19.000000 13.000000 2.400000 0.000000 0.000000 -1.000000 0.480469 0.984375
0 19.000000 -12.000000 2.400000 0.000000 0.000000 -1.000000 0.265625 0.984375
details.bmp
0 19.000000 -12.000000 2.400000 0.707107 0.000000 -0.707107 0.265625 0.769531
0 19.000000 13.000000 2.400000 0.707107 0.000000 -0.707107 0.480469 0.769531
0 21.000000 13.000000 4.000000 0.707107 0.000000 -0.707107 0.480469 0.984375
details.bmp
0 19.000000 -12.000000 2.400000 0.707107 0.000000 -0.707107 0.265625 0.769531
0 21.000000 13.000000 4.000000 0.707107 0.000000 -0.707107 0.480469 0.984375
0 21.000000 -12.000000 4.000000 0.707107 0.000000 -0.707107 0.265625 0.984375
sides.bmp
0 21.000000 -12.000000 4.000000 1.000000 0.000000 0.000000 0.020000 0.027027
0 21.000000 13.000000 4.000000 1.000000 0.000000 0.000000 0.980000 0.027027
0 21.000000 13.000000 59.200000 1.000000 0.000000 0.000000 0.980000 0.959459
sides.bmp
0 21.000000 -12.000000 4.000000 1.000000 0.000000 0.000000 0.020000 0.027027
0 21.000000 13.000000 59.200000 1.000000 0.000000 0.000000 0.980000 0.959459
0 21.000000 -12.000000 59.200000 1.000000 0.000000 0.000000 0.020000 0.959459
details.bmp
0 21.000000 -12.000000 59.200000 0.832050 -0.000000 0.554700 0.515625 0.769531
0 21.000000 13.000000 59.200000 0.832050 -0.000000 0.554700 0.730469 0.769531
0 19.000000 13.000000 61.600000 0.832050 -0.000000 0.554700 0.730469 0.984375
details.bmp
0 21.000000 -12.000000 59.200000 0.832050 0.000000 0.554700 0.515625 0.769531
0 19.000000 13.000000 61.600000 0.832050 0.000000 0.554700 0.730469 0.984375
0 19.000000 -12.000000 61.600000 0.832050 0.000000 0.554700 0.515625 0.984375
details.bmp
0 19.000000 -12.000000 61.600000 0.000000 -0.000000 1.000000 0.515625 0.769531
0 19.000000 13.000000 61.600000 0.000000 -0.000000 1.000000 0.730469 0.769531
0 -19.000000 13.000000 61.600000 0.000000 -0.000000 1.000000 0.730469 0.984375
details.bmp
0 19.000000 -12.000000 61.600000 0.000000 0.000000 1.000000 0.515625 0.769531
0 -19.000000 13.000000 61.600000 0.000000 0.000000 1.000000 0.730469 0.984375
0 -19.000000 -12.000000 61.600000 0.000000 0.000000 1.000000 0.515625 0.984375
details.bmp
0 -19.000000 -12.000000 61.600000 -0.832050 0.000000 0.554700 0.515625 0.769531
0 -19.000000 13.000000 61.600000 -0.832050 0.000000 0.554700 0.730469 0.769531
0 -21.000000 13.000000 59.200000 -0.832050 0.000000 0.554700 0.730469 0.984375
details.bmp
0 -19.000000 -12.000000 61.600000 -0.832050 0.000000 0.554700 0.515625 0.769531
0 -21.000000 13.000000 59.200000 -0.832050 0.000000 0.554700 0.730469 0.984375
0 -21.000000 -12.000000 59.200000 -0.832050 0.000000 0.554700 0.515625 0.984375
sides.bmp
0 -21.000000 -12.000000 59.200000 -1.000000 0.000000 0.000000 0.980000 0.959459
0 -21.000000 13.000000 59.200000 -1.000000 0.000000 0.000000 0.020000 0.959459
0 -21.000000 13.000000 4.000000 -1.000000 0.000000 0.000000 0.020000 0.027027
sides.bmp
0 -21.000000 -12.000000 59.200000 -1.000000 0.000000 0.000000 0.980000 0.959459
0 -21.000000 13.000000 4.000000 -1.000000 0.000000 0.000000 0.020000 0.027027
0 -21.000000 -12.000000 4.000000 -1.000000 0.000000 0.000000 0.980000 0.027027
details.bmp
0 -21.000000 -12.000000 4.000000 -0.707107 0.000000 -0.707107 0.265625 0.769531
0 -21.000000 13.000000 4.000000 -0.707107 0.000000 -0.707107 0.480469 0.769531
0 -19.000000 13.000000 2.400000 -0.707107 0.000000 -0.707107 0.480469 0.984375
details.bmp
0 -21.000000 -12.000000 4.000000 -0.707107 0.000000 -0.707107 0.265625 0.769531
0 -19.000000 13.000000 2.400000 -0.707107 0.000000 -0.707107 0.480469 0.984375
0 -19.000000 -12.000000 2.400000 -0.707107 0.000000 -0.707107 0.265625 0.984375
rear.bmp
0 -21.000000 13.000000 4.000000 0.000000 1.000000 0.000000 0.990000 0.036486
0 -21.000000 13.000000 59.200000 0.000000 1.000000 0.000000 0.990000 0.950270
0 -19.000000 13.000000 61.600000 0.000000 1.000000 0.000000 0.943333 0.990000
rear.bmp
0 -21.000000 13.000000 4.000000 0.000000 1.000000 0.000000 0.990000 0.036486
0 -19.000000 13.000000 61.600000 0.000000 1.000000 0.000000 0.943333 0.990000
0 19.000000 13.000000 61.600000 0.000000 1.000000 0.000000 0.056667 0.990000
rear.bmp
0 -21.000000 13.000000 4.000000 0.000000 1.000000 0.000000 0.990000 0.036486
0 19.000000 13.000000 61.600000 0.000000 1.000000 0.000000 0.056667 0.990000
0 21.000000 13.000000 59.200000 0.000000 1.000000 0.000000 0.010000 0.950270
rear.bmp
0 -21.000000 13.000000 4.000000 0.000000 1.000000 0.000000 0.990000 0.036486
0 21.000000 13.000000 59.200000 0.000000 1.000000 0.000000 0.010000 0.950270
0 21.000000 13.000000 4.000000 0.000000 1.000000 0.000000 0.010000 0.036486
rear.bmp
0 -21.000000 13.000000 4.000000 -0.000000 1.000000 0.000000 0.990000 0.036486
0 21.000000 13.000000 4.000000 -0.000000 1.000000 0.000000 0.010000 0.036486
0 19.000000 13.000000 2.400000 -0.000000 1.000000 0.000000 0.056667 0.010000
rear.bmp
0 -21.000000 13.000000 4.000000 0.000000 1.000000 0.000000 0.990000 0.036486
0 19.000000 13.000000 2.400000 0.000000 1.000000 0.000000 0.056667 0.010000
0 -19.000000 13.000000 2.400000 0.000000 1.000000 0.000000 0.943333 0.010000
details.bmp
0 -21.500000 -13.500000 0.800000 0.000000 -1.000000 0.000000 0.265625 0.769531
0 21.500000 -13.500000 0.800000 0.000000 -1.000000 0.000000 0.480469 0.769531
0 21.500000 -13.500000 3.200000 0.000000 -1.000000 0.000000 0.480469 0.984375
details.bmp
0 -21.500000 -13.500000 0.800000 0.000000 -1.000000 0.000000 0.265625 0.769531
0 21.500000 -13.500000 3.200000 0.000000 -1.000000 0.000000 0.480469 0.984375
0 -21.500000 -13.500000 3.200000 0.000000 -1.000000 0.000000 0.265625 0.984375
details.bmp
0 21.500000 13.500000 0.800000 0.000000 1.000000 0.000000 0.265625 0.769531
0 -21.500000 13.500000 0.800000 0.000000 1.000000 0.000000 0.480469 0.769531
0 -21.500000 13.500000 3.200000 0.000000 1.000000 0.000000 0.480469 0.984375
details.bmp
0 21.500000 13.500000 0.800000 0.000000 1.000000 -0.000000 0.265625 0.769531
0 -21.500000 13.500000 3.200000 0.000000 1.000000 -0.000000 0.480469 0.984375
0 21.500000 13.500000 3.200000 0.000000 1.000000 -0.000000 0.265625 0.984375
details.bmp
0 -21.500000 13.500000 0.800000 -1.000000 0.000000 0.000000 0.265625 0.769531
0 -21.500000 -13.500000 0.800000 -1.000000 0.000000 0.000000 0.480469 0.769531
0 -21.500000 -13.500000 3.200000 -1.000000 0.000000 0.000000 0.480469 0.984375
details.bmp
0 -21.500000 13.500000 0.800000 -1.000000 0.000000 0.000000 0.265625 0.769531
0 -21.500000 -13.500000 3.200000 -1.000000 0.000000 0.000000 0.480469 0.984375
0 -21.500000 13.500000 3.200000 -1.000000 0.000000 0.000000 0.265625 0.984375
details.bmp
0 21.500000 -13.500000 0.800000 1.000000 0.000000 0.000000 0.265625 0.769531
0 21.500000 13.500000 0.800000 1.000000 0.000000 0.000000 0.480469 0.769531
0 21.500000 13.500000 3.200000 1.000000 0.000000 0.000000 0.480469 0.984375
details.bmp
0 21.500000 -13.500000 0.800000 1.000000 0.000000 0.000000 0.265625 0.769531
0 21.500000 13.500000 3.200000 1.000000 0.000000 0.000000 0.480469 0.984375
0 21.500000 -13.500000 3.200000 1.000000 0.000000 0.000000 0.265625 0.984375
details.bmp
0 -21.500000 -13.500000 3.200000 0.000000 0.000000 1.000000 0.265625 0.769531
0 21.500000 -13.500000 3.200000 0.000000 0.000000 1.000000 0.480469 0.769531
0 21.500000 13.500000 3.200000 0.000000 0.000000 1.000000 0.480469 0.984375
details.bmp
0 -21.500000 -13.500000 3.200000 0.000000 0.000000 1.000000 0.265625 0.769531
0 21.500000 13.500000 3.200000 0.000000 0.000000 1.000000 0.480469 0.984375
0 -21.500000 13.500000 3.200000 0.000000 0.000000 1.000000 0.265625 0.984375
details.bmp
0 -21.500000 13.500000 0.800000 0.000000 0.000000 -1.000000 0.265625 0.769531
0 21.500000 13.500000 0.800000 0.000000 0.000000 -1.000000 0.480469 0.769531
0 21.500000 -13.500000 0.800000 0.000000 0.000000 -1.000000 0.480469 0.984375
details.bmp
0 -21.500000 13.500000 0.800000 0.000000 0.000000 -1.000000 0.265625 0.769531
0 21.500000 -13.500000 0.800000 0.000000 0.000000 -1.000000 0.480469 0.984375
0 -21.500000 -13.500000 0.800000 0.000000 0.000000 -1.000000 0.265625 0.984375
details.bmp
0 -19.000000 -11.000000 0.000000 0.000000 -1.000000 0.000000 0.898438 0.136719
0 -15.000000 -11.000000 0.000000 0.000000 -1.000000 0.000000 0.980469 0.136719
0 -15.000000 -11.000000 1.040000 0.000000 -1.000000 0.000000 0.980469 0.226562
details.bmp
0 -19.000000 -11.000000 0.000000 0.000000 -1.000000 0.000000 0.898438 0.136719
0 -15.000000 -11.000000 1.040000 0.000000 -1.000000 0.000000 0.980469 0.226562
0 -19.000000 -11.000000 1.040000 0.000000 -1.000000 0.000000 0.898438 0.226562
details.bmp
0 -15.000000 -7.000000 0.000000 0.000000 1.000000 0.000000 0.898438 0.136719
0 -19.000000 -7.000000 0.000000 0.000000 1.000000 0.000000 0.980469 0.136719
0 -19.000000 -7.000000 1.040000 0.000000 1.000000 0.000000 0.980469 0.226562
details.bmp
0 -15.000000 -7.000000 0.000000 0.000000 1.000000 -0.000000 0.898438 0.136719
0 -19.000000 -7.000000 1.040000 0.000000 1.000000 -0.000000 0.980469 0.226562
0 -15.000000 -7.000000 1.040000 0.000000 1.000000 -0.000000 0.898438 0.226562
details.bmp
0 -19.000000 -7.000000 0.000000 -1.000000 0.000000 0.000000 0.898438 0.136719
0 -19.000000 -11.000000 0.000000 -1.000000 0.000000 0.000000 0.980469 0.136719
0 -19.000000 -11.000000 1.040000 -1.000000 0.000000 0.000000 0.980469 0.226562
details.bmp
0 -19.000000 -7.000000 0.000000 -1.000000 0.000000 0.000000 0.898438 0.136719
0 -19.000000 -11.000000 1.040000 -1.000000 0.000000 0.000000 0.980469 0.226562
0 -19.000000 -7.000000 1.040000 -1.000000 0.000000 0.000000 0.898438 0.226562
details.bmp
0 -15.000000 -11.000000 0.000000 1.000000 0.000000 0.000000 0.898438 0.136719
0 -15.000000 -7.000000 0.000000 1.000000 0.000000 0.000000 0.980469 0.136719
0 -15.000000 -7.000000 1.040000 1.000000 0.000000 0.000000 0.980469 0.226562
details.bmp
0 -15.000000 -11.000000 0.000000 1.000000 0.000000 0.000000 0.898438 0.136719
0 -15.000000 -7.000000 1.040000 1.000000 0.000000 0.000000 0.980469 0.226562
0 -15.000000 -11.000000 1.040000 1.000000 0.000000 0.000000 0.898438 0.226562
details.bmp
0 -19.000000 -11.000000 1.040000 0.000000 0.000000 1.000000 0.898438 0.136719
0 -15.000000 -11.000000 1.040000 0.000000 0.000000 1.000000 0.980469 0.136719
0 -15.000000 -7.000000 1.040000 0.000000 0.000000 1.000000 0.980469 0.226562
details.bmp
0 -19.000000 -11.000000 1.040000 0.000000 0.000000 1.000000 0.898438 0.136719
0 -15.000000 -7.000000 1.040000 0.000000 0.000000 1.000000 0.980469 0.226562
0 -19.000000 -7.000000 1.040000 0.000000 0.000000 1.000000 0.898438 0.226562
details.bmp
0 -19.000000 -7.000000 0.000000 0.000000 0.000000 -1.000000 0.898438 0.136719
0 -15.000000 -7.000000 0.000000 0.000000 0.000000 -1.000000 0.980469 0.136719
0 -15.000000 -11.000000 0.000000 0.000000 0.000000 -1.000000 0.980469 0.226562
details.bmp
0 -19.000000 -7.000000 0.000000 0.000000 0.000000 -1.000000 0.898438 0.136719
0 -15.000000 -11.000000 0.000000 0.000000 0.000000 -1.000000 0.980469 0.226562
0 -19.000000 -11.000000 0.000000 0.000000 0.000000 -1.000000 0.898438 0.226562
details.bmp
0 -19.000000 7.000000 0.000000 0.000000 -1.000000 0.000000 0.898438 0.136719
0 -15.000000 7.000000 0.000000 0.000000 -1.000000 0.000000 0.980469 0.136719
0 -15.000000 7.000000 1.040000 0.000000 -1.000000 0.000000 0.980469 0.226562
details.bmp
0 -19.000000 7.000000 0.000000 0.000000 -1.000000 0.000000 0.898438 0.136719
0 -15.000000 7.000000 1.040000 0.000000 -1.000000 0.000000 0.980469 0.226562
0 -19.000000 7.000000 1.040000 0.000000 -1.000000 0.000000 0.898438 0.226562
details.bmp
0 -15.000000 11.000000 0.000000 0.000000 1.000000 0.000000 0.898438 0.136719
0 -19.000000 11.000000 0.000000 0.000000 1.000000 0.000000 0.980469 0.136719
0 -19.000000 11.000000 1.040000 0.000000 1.000000 0.000000 0.980469 0.226562
details.bmp
0 -15.000000 11.000000 0.000000 0.000000 1.000000 -0.000000 0.898438 0.136719
0 -19.000000 11.000000 1.040000 0.000000 1.000000 -0.000000 0.980469 0.226562
0 -15.000000 11.000000 1.040000 0.000000 1.000000 -0.000000 0.898438 0.226562
details.bmp
0 -19.000000 11.000000 0.000000 -1.000000 0.000000 0.000000 0.898438 0.136719
0 -19.000000 7.000000 0.000000 -1.000000 0.000000 0.000000 0.980469 0.136719
0 -19.000000 7.000000 1.040000 -1.000000 0.000000 0.000000 0.980469 0.226562
details.bmp
0 -19.000000 11.000000 0.000000 -1.000000 0.000000 0.000000 0.898438 0.136719
0 -19.000000 7.000000 1.040000 -1.000000 0.000000 0.000000 0.980469 0.226562
0 -19.000000 11.000000 1.040000 -1.000000 0.000000 0.000000 0.898438 0.226562
details.bmp
0 -15.000000 7.000000 0.000000 1.000000 0.000000 0.000000 0.898438 0.136719
0 -15.000000 11.000000 0.000000 1.000000 0.000000 0.000000 0.980469 0.136719
0 -15.000000 11.000000 1.040000 1.000000 0.000000 0.000000 0.980469 0.226562
details.bmp
0 -15.000000 7.000000 0.000000 1.000000 0.000000 0.000000 0.898438 0.136719
0 -15.000000 11.000000 1.040000 1.000000 0.000000 0.000000 0.980469 0.226562
0 -15.000000 7.000000 1.040000 1.000000 0.000000 0.000000 0.898438 0.226562
details.bmp
0 -19.000000 7.000000 1.040000 0.000000 0.000000 1.000000 0.898438 0.136719
0 -15.000000 7.000000 1.040000 0.000000 0.000000 1.000000 0.980469 0.136719
0 -15.000000 11.000000 1.040000 0.000000 0.000000 1.000000 0.980469 0.226562
details.bmp
0 -19.000000 7.000000 1.040000 0.000000 0.000000 1.000000 0.898438 0.136719
0 -15.000000 11.000000 1.040000 0.000000 0.000000 1.000000 0.980469 0.226562
0 -19.000000 11.000000 1.040000 0.000000 0.000000 1.000000 0.898438 0.226562
details.bmp
0 -19.000000 11.000000 0.000000 0.000000 0.000000 -1.000000 0.898438 0.136719
0 -15.000000 11.000000 0.000000 0.000000 0.000000 -1.000000 0.980469 0.136719
0 -15.000000 7.000000 0.000000 0.000000 0.000000 -1.000000 0.980469 0.226562
details.bmp
0 -19.000000 11.000000 0.000000 0.000000 0.000000 -1.000000 0.898438 0.136719
0 -15.000000 7.000000 0.000000 0.000000 0.000000 -1.000000 0.980469 0.226562
0 -19.000000 7.000000 0.000000 0.000000 0.000000 -1.000000 0.898438 0.226562
details.bmp
0 15.000000 -11.000000 0.000000 0.000000 -1.000000 0.000000 0.898438 0.136719
0 19.000000 -11.000000 0.000000 0.000000 -1.000000 0.000000 0.980469 0.136719
0 19.000000 -11.000000 1.040000 0.000000 -1.000000 0.000000 0.980469 0.226562
details.bmp
0 15.000000 -11.000000 0.000000 0.000000 -1.000000 0.000000 0.898438 0.136719
0 19.000000 -11.000000 1.040000 0.000000 -1.000000 0.000000 0.980469 0.226562
0 15.000000 -11.000000 1.040000 0.000000 -1.000000 0.000000 0.898438 0.226562
details.bmp
0 19.000000 -7.000000 0.000000 0.000000 1.000000 0.000000 0.898438 0.136719
0 15.000000 -7.000000 0.000000 0.000000 1.000000 0.000000 0.980469 0.136719
0 15.000000 -7.000000 1.040000 0.000000 1.000000 0.000000 0.980469 0.226562
details.bmp
0 19.000000 -7.000000 0.000000 0.000000 1.000000 -0.000000 0.898438 0.136719
0 15.000000 -7.000000 1.040000 0.000000 1.000000 -0.000000 0.980469 0.226562
0 19.000000 -7.000000 1.040000 0.000000 1.000000 -0.000000 0.898438 0.226562
details.bmp
0 15.000000 -7.000000 0.000000 -1.000000 0.000000 0.000000 0.898438 0.136719
0 15.000000 -11.000000 0.000000 -1.000000 0.000000 0.000000 0.980469 0.136719
0 15.000000 -11.000000 1.040000 -1.000000 0.000000 0.000000 0.980469 0.226562
details.bmp
0 15.000000 -7.000000 0.000000 -1.000000 0.000000 0.000000 0.898438 0.136719
0 15.000000 -11.000000 1.040000 -1.000000 0.000000 0.000000 0.980469 0.226562
0 15.000000 -7.000000 1.040000 -1.000000 0.000000 0.000000 0.898438 0.226562
details.bmp
0 19.000000 -11.000000 0.000000 1.000000 0.000000 0.000000 0.898438 0.136719
0 19.000000 -7.000000 0.000000 1.000000 0.000000 0.000000 0.980469 0.136719
0 19.000000 -7.000000 1.040000 1.000000 0.000000 0.000000 0.980469 0.226562
details.bmp
0 19.000000 -11.000000 0.000000 1.000000 0.000000 0.000000 0.898438 0.136719
0 19.000000 -7.000000 1.040000 1.000000 0.000000 0.000000 0.980469 0.226562
0 19.000000 -11.000000 1.040000 1.000000 0.000000 0.000000 0.898438 0.226562
details.bmp
0 15.000000 -11.000000 1.040000 0.000000 0.000000 1.000000 0.898438 0.136719
0 19.000000 -11.000000 1.040000 0.000000 0.000000 1.000000 0.980469 0.136719
0 19.000000 -7.000000 1.040000 0.000000 0.000000 1.000000 0.980469 0.226562
details.bmp
0 15.000000 -11.000000 1.040000 0.000000 0.000000 1.000000 0.898438 0.136719
0 19.000000 -7.000000 1.040000 0.000000 0.000000 1.000000 0.980469 0.226562
0 15.000000 -7.000000 1.040000 0.000000 0.000000 1.000000 0.898438 0.226562
details.bmp
0 15.000000 -7.000000 0.000000 0.000000 0.000000 -1.000000 0.898438 0.136719
0 19.000000 -7.000000 0.000000 0.000000 0.000000 -1.000000 0.980469 0.136719
0 19.000000 -11.000000 0.000000 0.000000 0.000000 -1.000000 0.980469 0.226562
details.bmp
0 15.000000 -7.000000 0.000000 0.000000 0.000000 -1.000000 0.898438 0.136719
0 19.000000 -11.000000 0.000000 0.000000 0.000000 -1.000000 0.980469 0.226562
0 15.000000 -11.000000 0.000000 0.000000 0.000000 -1.000000 0.898438 0.226562
details.bmp
0 15.000000 7.000000 0.000000 0.000000 -1.000000 0.000000 0.898438 0.136719
0 19.000000 7.000000 0.000000 0.000000 -1.000000 0.000000 0.980469 0.136719
0 19.000000 7.000000 1.040000 0.000000 -1.000000 0.000000 0.980469 0.226562
details.bmp
0 15.000000 7.000000 0.000000 0.000000 -1.000000 0.000000 0.898438 0.136719
0 19.000000 7.000000 1.040000 0.000000 -1.000000 0.000000 0.980469 0.226562
0 15.000000 7.000000 1.040000 0.000000 -1.000000 0.000000 0.898438 0.226562
details.bmp
0 19.000000 11.000000 0.000000 0.000000 1.000000 0.000000 0.898438 0.136719
0 15.000000 11.000000 0.000000 0.000000 1.000000 0.000000 0.980469 0.136719
0 15.000000 11.000000 1.040000 0.000000 1.000000 0.000000 0.980469 0.226562
details.bmp
0 19.000000 11.000000 0.000000 0.000000 1.000000 -0.000000 0.898438 0.136719
0 15.000000 11.000000 1.040000 0.000000 1.000000 -0.000000 0.980469 0.226562
0 19.000000 11.000000 1.040000 0.000000 1.000000 -0.000000 0.898438 0.226562
details.bmp
0 15.000000 11.000000 0.000000 -1.000000 0.000000 0.000000 0.898438 0.136719
0 15.000000 7.000000 0.000000 -1.000000 0.000000 0.000000 0.980469 0.136719
0 15.000000 7.000000 1.040000 -1.000000 0.000000 0.000000 0.980469 0.226562
details.bmp
0 15.000000 11.000000 0.000000 -1.000000 0.000000 0.000000 0.898438 0.136719
0 15.000000 7.000000 1.040000 -1.000000 0.000000 0.000000 0.980469 0.226562
0 15.000000 11.000000 1.040000 -1.000000 0.000000 0.000000 0.898438 0.226562
details.bmp
0 19.000000 7.000000 0.000000 1.000000 0.000000 0.000000 0.898438 0.136719
0 19.000000 11.000000 0.000000 1.000000 0.000000 0.000000 0.980469 0.136719
0 19.000000 11.000000 1.040000 1.000000 0.000000 0.000000 0.980469 0.226562
details.bmp
0 19.000000 7.000000 0.000000 1.000000 0.000000 0.000000 0.898438 0.136719
0 19.000000 11.000000 1.040000 1.000000 0.000000 0.000000 0.980469 0.226562
0 19.000000 7.000000 1.040000 1.000000 0.000000 0.000000 0.898438 0.226562
details.bmp
0 15.000000 7.000000 1.040000 0.000000 0.000000 1.000000 0.898438 0.136719
0 19.000000 7.000000 1.040000 0.000000 0.000000 1.000000 0.980469 0.136719
0 19.000000 11.000000 1.040000 0.000000 0.000000 1.000000 0.980469 0.226562
details.bmp
0 15.000000 7.000000 1.040000 0.000000 0.000000 1.000000 0.898438 0.136719
0 19.000000 11.000000 1.040000 0.000000 0.000000 1.000000 0.980469 0.226562
0 15.000000 11.000000 1.040000 0.000000 0.000000 1.000000 0.898438 0.226562
details.bmp
0 15.000000 11.000000 0.000000 0.000000 0.000000 -1.000000 0.898438 0.136719
0 19.000000 11.000000 0.000000 0.000000 0.000000 -1.000000 0.980469 0.136719
0 19.000000 7.000000 0.000000 0.000000 0.000000 -1.000000 0.980469 0.226562
details.bmp
0 15.000000 11.000000 0.000000 0.000000 0.000000 -1.000000 0.898438 0.136719
0 19.000000 7.000000 0.000000 0.000000 0.000000 -1.000000 0.980469 0.226562
0 15.000000 7.000000 0.000000 0.000000 0.000000 -1.000000 0.898438 0.226562
details.bmp
0 -3.200000 -15.200000 27.000000 0.000000 -1.000000 0.000000 0.265625 0.769531
0 3.200000 -15.200000 27.000000 0.000000 -1.000000 0.000000 0.480469 0.769531
0 3.200000 -15.200000 36.800000 0.000000 -1.000000 0.000000 0.480469 0.984375
details.bmp
0 -3.200000 -15.200000 27.000000 0.000000 -1.000000 0.000000 0.265625 0.769531
0 3.200000 -15.200000 36.800000 0.000000 -1.000000 0.000000 0.480469 0.984375
0 -3.200000 -15.200000 36.800000 0.000000 -1.000000 0.000000 0.265625 0.984375
details.bmp
0 3.200000 -14.000000 27.000000 0.000000 1.000000 0.000000 0.015625 0.769531
0 -3.200000 -14.000000 27.000000 0.000000 1.000000 0.000000 0.230469 0.769531
0 -3.200000 -14.000000 36.800000 0.000000 1.000000 0.000000 0.230469 0.984375
details.bmp
0 3.200000 -14.000000 27.000000 0.000000 1.000000 -0.000000 0.015625 0.769531
0 -3.200000 -14.000000 36.800000 0.000000 1.000000 -0.000000 0.230469 0.984375
0 3.200000 -14.000000 36.800000 0.000000 1.000000 -0.000000 0.015625 0.984375
details.bmp
0 -3.200000 -14.000000 27.000000 -1.000000 0.000000 0.000000 0.015625 0.769531
0 -3.200000 -15.200000 27.000000 -1.000000 0.000000 0.000000 0.230469 0.769531
0 -3.200000 -15.200000 36.800000 -1.000000 0.000000 0.000000 0.230469 0.984375
details.bmp
0 -3.200000 -14.000000 27.000000 -1.000000 0.000000 0.000000 0.015625 0.769531
0 -3.200000 -15.200000 36.800000 -1.000000 0.000000 0.000000 0.230469 0.984375
0 -3.200000 -14.000000 36.800000 -1.000000 0.000000 0.000000 0.015625 0.984375
details.bmp
0 3.200000 -15.200000 27.000000 1.000000 0.000000 0.000000 0.015625 0.769531
0 3.200000 -14.000000 27.000000 1.000000 0.000000 0.000000 0.230469 0.769531
0 3.200000 -14.000000 36.800000 1.000000 0.000000 0.000000 0.230469 0.984375
details.bmp
0 3.200000 -15.200000 27.000000 1.000000 0.000000 0.000000 0.015625 0.769531
0 3.200000 -14.000000 36.800000 1.000000 0.000000 0.000000 0.230469 0.984375
0 3.200000 -15.200000 36.800000 1.000000 0.000000 0.000000 0.015625 0.984375
details.bmp
0 -3.200000 -15.200000 36.800000 0.000000 0.000000 1.000000 0.015625 0.769531
0 3.200000 -15.200000 36.800000 0.000000 0.000000 1.000000 0.230469 0.769531
0 3.200000 -14.000000 36.800000 0.000000 0.000000 1.000000 0.230469 0.984375
details.bmp
0 -3.200000 -15.200000 36.800000 0.000000 0.000000 1.000000 0.015625 0.769531
0 3.200000 -14.000000 36.800000 0.000000 0.000000 1.000000 0.230469 0.984375
0 -3.200000 -14.000000 36.800000 0.000000 0.000000 1.000000 0.015625 0.984375
details.bmp
0 -3.200000 -14.000000 27.000000 0.000000 0.000000 -1.000000 0.015625 0.769531
0 3.200000 -14.000000 27.000000 0.000000 0.000000 -1.000000 0.230469 0.769531
0 3.200000 -15.200000 27.000000 0.000000 0.000000 -1.000000 0.230469 0.984375
details.bmp
0 -3.200000 -14.000000 27.000000 0.000000 0.000000 -1.000000 0.015625 0.769531
0 3.200000 -15.200000 27.000000 0.000000 0.000000 -1.000000 0.230469 0.984375
0 -3.200000 -15.200000 27.000000 0.000000 0.000000 -1.000000 0.015625 0.984375
details.bmp
0 -3.800000 -16.000000 26.500000 0.000000 -1.000000 0.000000 0.015625 0.769531
0 -3.000000 -16.000000 26.500000 0.000000 -1.000000 0.000000 0.230469 0.769531
0 -3.000000 -16.000000 37.300000 0.000000 -1.000000 0.000000 0.230469 0.984375
details.bmp
0 -3.800000 -16.000000 26.500000 0.000000 -1.000000 0.000000 0.015625 0.769531
0 -3.000000 -16.000000 37.300000 0.000000 -1.000000 0.000000 0.230469 0.984375
0 -3.800000 -16.000000 37.300000 0.000000 -1.000000 0.000000 0.015625 0.984375
details.bmp
0 -3.000000 -14.000000 26.500000 0.000000 1.000000 0.000000 0.015625 0.769531
0 -3.800000 -14.000000 26.500000 0.000000 1.000000 0.000000 0.230469 0.769531
0 -3.800000 -14.000000 37.300000 0.000000 1.000000 0.000000 0.230469 0.984375
details.bmp
0 -3.000000 -14.000000 26.500000 0.000000 1.000000 -0.000000 0.015625 0.769531
0 -3.800000 -14.000000 37.300000 0.000000 1.000000 -0.000000 0.230469 0.984375
0 -3.000000 -14.000000 37.300000 0.000000 1.000000 -0.000000 0.015625 0.984375
details.bmp
0 -3.800000 -14.000000 26.500000 -1.000000 0.000000 0.000000 0.015625 0.769531
0 -3.800000 -16.000000 26.500000 -1.000000 0.000000 0.000000 0.230469 0.769531
0 -3.800000 -16.000000 37.300000 -1.000000 0.000000 0.000000 0.230469 0.984375
details.bmp
0 -3.800000 -14.000000 26.500000 -1.000000 0.000000 0.000000 0.015625 0.769531
0 -3.800000 -16.000000 37.300000 -1.000000 0.000000 0.000000 0.230469 0.984375
0 -3.800000 -14.000000 37.300000 -1.000000 0.000000 0.000000 0.015625 0.984375
details.bmp
0 -3.000000 -16.000000 26.500000 1.000000 0.000000 0.000000 0.015625 0.769531
0 -3.000000 -14.000000 26.500000 1.000000 0.000000 0.000000 0.230469 0.769531
0 -3.000000 -14.000000 37.300000 1.000000 0.000000 0.000000 0.230469 0.984375
details.bmp
0 -3.000000 -16.000000 26.500000 1.000000 0.000000 0.000000 0.015625 0.769531
0 -3.000000 -14.000000 37.300000 1.000000 0.000000 0.000000 0.230469 0.984375
0 -3.000000 -16.000000 37.300000 1.000000 0.000000 0.000000 0.015625 0.984375
details.bmp
0 -3.800000 -16.000000 37.300000 0.000000 0.000000 1.000000 0.015625 0.769531
0 -3.000000 -16.000000 37.300000 0.000000 0.000000 1.000000 0.230469 0.769531
0 -3.000000 -14.000000 37.300000 0.000000 0.000000 1.000000 0.230469 0.984375
details.bmp
0 -3.800000 -16.000000 37.300000 0.000000 0.000000 1.000000 0.015625 0.769531
0 -3.000000 -14.000000 37.300000 0.000000 0.000000 1.000000 0.230469 0.984375
0 -3.800000 -14.000000 37.300000 0.000000 0.000000 1.000000 0.015625 0.984375
details.bmp
0 -3.800000 -14.000000 26.500000 0.000000 0.000000 -1.000000 0.015625 0.769531
0 -3.000000 -14.000000 26.500000 0.000000 0.000000 -1.000000 0.230469 0.769531
0 -3.000000 -16.000000 26.500000 0.000000 0.000000 -1.000000 0.230469 0.984375
details.bmp
0 -3.800000 -14.000000 26.500000 0.000000 0.000000 -1.000000 0.015625 0.769531
0 -3.000000 -16.000000 26.500000 0.000000 0.000000 -1.000000 0.230469 0.984375
0 -3.800000 -16.000000 26.500000 0.000000 0.000000 -1.000000 0.015625 0.984375
details.bmp
0 3.000000 -16.000000 26.500000 0.000000 -1.000000 0.000000 0.015625 0.769531
0 3.800000 -16.000000 26.500000 0.000000 -1.000000 0.000000 0.230469 0.769531
0 3.800000 -16.000000 37.300000 0.000000 -1.000000 0.000000 0.230469 0.984375
details.bmp
0 3.000000 -16.000000 26.500000 0.000000 -1.000000 0.000000 0.015625 0.769531
0 3.800000 -16.000000 37.300000 0.000000 -1.000000 0.000000 0.230469 0.984375
0 3.000000 -16.000000 37.300000 0.000000 -1.000000 0.000000 0.015625 0.984375
details.bmp
0 3.800000 -14.000000 26.500000 0.000000 1.000000 0.000000 0.015625 0.769531
0 3.000000 -14.000000 26.500000 0.000000 1.000000 0.000000 0.230469 0.769531
0 3.000000 -14.000000 37.300000 0.000000 1.000000 0.000000 0.230469 0.984375
details.bmp
0 3.800000 -14.000000 26.500000 0.000000 1.000000 -0.000000 0.015625 0.769531
0 3.000000 -14.000000 37.300000 0.000000 1.000000 -0.000000 0.230469 0.984375
0 3.800000 -14.000000 37.300000 0.000000 1.000000 -0.000000 0.015625 0.984375
details.bmp
0 3.000000 -14.000000 26.500000 -1.000000 0.000000 0.000000 0.015625 0.769531
0 3.000000 -16.000000 26.500000 -1.000000 0.000000 0.000000 0.230469 0.769531
0 3.000000 -16.000000 37.300000 -1.000000 0.000000 0.000000 0.230469 0.984375
details.bmp
0 3.000000 -14.000000 26.500000 -1.000000 0.000000 0.000000 0.015625 0.769531
0 3.000000 -16.000000 37.300000 -1.000000 0.000000 0.000000 0.230469 0.984375
0 3.000000 -14.000000 37.300000 -1.000000 0.000000 0.000000 0.015625 0.984375
details.bmp
0 3.800000 -16.000000 26.500000 1.000000 0.000000 0.000000 0.015625 0.769531
0 3.800000 -14.000000 26.500000 1.000000 0.000000 0.000000 0.230469 0.769531
0 3.800000 -14.000000 37.300000 1.000000 0.000000 0.000000 0.230469 0.984375
details.bmp
0 3.800000 -16.000000 26.500000 1.000000 0.000000 0.000000 0.015625 0.769531
0 3.800000 -14.000000 37.300000 1.000000 0.000000 0.000000 0.230469 0.984375
0 3.800000 -16.000000 37.300000 1.000000 0.000000 0.000000 0.015625 0.984375
details.bmp
0 3.000000 -16.000000 37.300000 0.000000 0.000000 1.000000 0.015625 0.769531
0 3.800000 -16.000000 37.300000 0.000000 0.000000 1.000000 0.230469 0.769531
0 3.800000 -14.000000 37.300000 0.000000 0.000000 1.000000 0.230469 0.984375
details.bmp
0 3.000000 -16.000000 37.300000 0.000000 0.000000 1.000000 0.015625 0.769531
0 3.800000 -14.000000 37.300000 0.000000 0.000000 1.000000 0.230469 0.984375
0 3.000000 -14.000000 37.300000 0.000000 0.000000 1.000000 0.015625 0.984375
details.bmp
0 3.000000 -14.000000 26.500000 0.000000 0.000000 -1.000000 0.015625 0.769531
0 3.800000 -14.000000 26.500000 0.000000 0.000000 -1.000000 0.230469 0.769531
0 3.800000 -16.000000 26.500000 0.000000 0.000000 -1.000000 0.230469 0.984375
details.bmp
0 3.000000 -14.000000 26.500000 0.000000 0.000000 -1.000000 0.015625 0.769531
0 3.800000 -16.000000 26.500000 0.000000 0.000000 -1.000000 0.230469 0.984375
0 3.000000 -16.000000 26.500000 0.000000 0.000000 -1.000000 0.015625 0.984375
details.bmp
0 -3.800000 -17.000000 26.200000 0.000000 -1.000000 0.000000 0.015625 0.769531
0 3.800000 -17.000000 26.200000 0.000000 -1.000000 0.000000 0.230469 0.769531
0 3.800000 -17.000000 27.200000 0.000000 -1.000000 0.000000 0.230469 0.984375
details.bmp
0 -3.800000 -17.000000 26.200000 0.000000 -1.000000 0.000000 0.015625 0.769531
0 3.800000 -17.000000 27.200000 0.000000 -1.000000 0.000000 0.230469 0.984375
0 -3.800000 -17.000000 27.200000 0.000000 -1.000000 0.000000 0.015625 0.984375
details.bmp
0 3.800000 -14.000000 26.200000 0.000000 1.000000 0.000000 0.015625 0.769531
0 -3.800000 -14.000000 26.200000 0.000000 1.000000 0.000000 0.230469 0.769531
0 -3.800000 -14.000000 27.200000 0.000000 1.000000 0.000000 0.230469 0.984375
details.bmp
0 3.800000 -14.000000 26.200000 0.000000 1.000000 -0.000000 0.015625 0.769531
0 -3.800000 -14.000000 27.200000 0.000000 1.000000 -0.000000 0.230469 0.984375
0 3.800000 -14.000000 27.200000 0.000000 1.000000 -0.000000 0.015625 0.984375
details.bmp
0 -3.800000 -14.000000 26.200000 -1.000000 0.000000 0.000000 0.015625 0.769531
0 -3.800000 -17.000000 26.200000 -1.000000 0.000000 0.000000 0.230469 0.769531
0 -3.800000 -17.000000 27.200000 -1.000000 0.000000 0.000000 0.230469 0.984375
details.bmp
0 -3.800000 -14.000000 26.200000 -1.000000 0.000000 0.000000 0.015625 0.769531
0 -3.800000 -17.000000 27.200000 -1.000000 0.000000 0.000000 0.230469 0.984375
0 -3.800000 -14.000000 27.200000 -1.000000 0.000000 0.000000 0.015625 0.984375
details.bmp
0 3.800000 -17.000000 26.200000 1.000000 0.000000 0.000000 0.015625 0.769531
0 3.800000 -14.000000 26.200000 1.000000 0.000000 0.000000 0.230469 0.769531
0 3.800000 -14.000000 27.200000 1.000000 0.000000 0.000000 0.230469 0.984375
details.bmp
0 3.800000 -17.000000 26.200000 1.000000 0.000000 0.000000 0.015625 0.769531
0 3.800000 -14.000000 27.200000 1.000000 0.000000 0.000000 0.230469 0.984375
0 3.800000 -17.000000 27.200000 1.000000 0.000000 0.000000 0.015625 0.984375
details.bmp
0 -3.800000 -17.000000 27.200000 0.000000 0.000000 1.000000 0.015625 0.769531
0 3.800000 -17.000000 27.200000 0.000000 0.000000 1.000000 0.230469 0.769531
0 3.800000 -14.000000 27.200000 0.000000 0.000000 1.000000 0.230469 0.984375
details.bmp
0 -3.800000 -17.000000 27.200000 0.000000 0.000000 1.000000 0.015625 0.769531
0 3.800000 -14.000000 27.200000 0.000000 0.000000 1.000000 0.230469 0.984375
0 -3.800000 -14.000000 27.200000 0.000000 0.000000 1.000000 0.015625 0.984375
details.bmp
0 -3.800000 -14.000000 26.200000 0.000000 0.000000 -1.000000 0.015625 0.769531
0 3.800000 -14.000000 26.200000 0.000000 0.000000 -1.000000 0.230469 0.769531
0 3.800000 -17.000000 26.200000 0.000000 0.000000 -1.000000 0.230469 0.984375
details.bmp
0 -3.800000 -14.000000 26.200000 0.000000 0.000000 -1.000000 0.015625 0.769531
0 3.800000 -17.000000 26.200000 0.000000 0.000000 -1.000000 0.230469 0.984375
0 -3.800000 -17.000000 26.200000 0.000000 0.000000 -1.000000 0.015625 0.984375
details.bmp
0 0.700000 -15.700000 27.200000 0.923880 0.382683 0.000000 0.765625 0.269531
0 0.494975 -15.205025 27.200000 0.923880 0.382683 0.000000 0.792480 0.269531
0 0.494975 -15.205025 31.200000 0.923880 0.382683 0.000000 0.792480 0.574347
details.bmp
0 0.700000 -15.700000 27.200000 0.923880 0.382683 -0.000000 0.765625 0.269531
0 0.494975 -15.205025 31.200000 0.923880 0.382683 -0.000000 0.792480 0.574347
0 0.700000 -15.700000 31.200000 0.923880 0.382683 -0.000000 0.765625 0.574347
details.bmp
0 0.494975 -15.205025 27.200000 0.382683 0.923880 0.000000 0.792480 0.269531
0 0.000000 -15.000000 27.200000 0.382683 0.923880 0.000000 0.819336 0.269531
0 0.000000 -15.000000 31.200000 0.382683 0.923880 0.000000 0.819336 0.574347
details.bmp
0 0.494975 -15.205025 27.200000 0.382683 0.923880 -0.000000 0.792480 0.269531
0 0.000000 -15.000000 31.200000 0.382683 0.923880 -0.000000 0.819336 0.574347
0 0.494975 -15.205025 31.200000 0.382683 0.923880 -0.000000 0.792480 0.574347
details.bmp
0 0.000000 -15.000000 27.200000 -0.382683 0.923880 0.000000 0.819336 0.269531
0 -0.494975 -15.205025 27.200000 -0.382683 0.923880 0.000000 0.846191 0.269531
0 -0.494975 -15.205025 31.200000 -0.382683 0.923880 0.000000 0.846191 0.574347
details.bmp
0 0.000000 -15.000000 27.200000 -0.382683 0.923880 0.000000 0.819336 0.269531
0 -0.494975 -15.205025 31.200000 -0.382683 0.923880 0.000000 0.846191 0.574347
0 0.000000 -15.000000 31.200000 -0.382683 0.923880 0.000000 0.819336 0.574347
details.bmp
0 -0.494975 -15.205025 27.200000 -0.923880 0.382683 0.000000 0.846191 0.269531
0 -0.700000 -15.700000 27.200000 -0.923880 0.382683 0.000000 0.873047 0.269531
0 -0.700000 -15.700000 31.200000 -0.923880 0.382683 0.000000 0.873047 0.574347
details.bmp
0 -0.494975 -15.205025 27.200000 -0.923880 0.382683 0.000000 0.846191 0.269531
0 -0.700000 -15.700000 31.200000 -0.923880 0.382683 0.000000 0.873047 0.574347
0 -0.494975 -15.205025 31.200000 -0.923880 0.382683 0.000000 0.846191 0.574347
details.bmp
0 -0.700000 -15.700000 27.200000 -0.923880 -0.382683 0.000000 0.873047 0.269531
0 -0.494975 -16.194975 27.200000 -0.923880 -0.382683 0.000000 0.899902 0.269531
0 -0.494975 -16.194975 31.200000 -0.923880 -0.382683 0.000000 0.899902 0.574347
details.bmp
0 -0.700000 -15.700000 27.200000 -0.923880 -0.382683 0.000000 0.873047 0.269531
0 -0.494975 -16.194975 31.200000 -0.923880 -0.382683 0.000000 0.899902 0.574347
0 -0.700000 -15.700000 31.200000 -0.923880 -0.382683 0.000000 0.873047 0.574347
details.bmp
0 -0.494975 -16.194975 27.200000 -0.382683 -0.923880 0.000000 0.899902 0.269531
0 -0.000000 -16.400000 27.200000 -0.382683 -0.923880 0.000000 0.926758 0.269531
0 -0.000000 -16.400000 31.200000 -0.382683 -0.923880 0.000000 0.926758 0.574347
details.bmp
0 -0.494975 -16.194975 27.200000 -0.382683 -0.923880 0.000000 0.899902 0.269531
0 -0.000000 -16.400000 31.200000 -0.382683 -0.923880 0.000000 0.926758 0.574347
0 -0.494975 -16.194975 31.200000 -0.382683 -0.923880 0.000000 0.899902 0.574347
details.bmp
0 -0.000000 -16.400000 27.200000 0.382683 -0.923880 0.000000 0.926758 0.269531
0 0.494975 -16.194975 27.200000 0.382683 -0.923880 0.000000 0.953613 0.269531
0 0.494975 -16.194975 31.200000 0.382683 -0.923880 0.000000 0.953613 0.574347
details.bmp
0 -0.000000 -16.400000 27.200000 0.382683 -0.923880 0.000000 0.926758 0.269531
0 0.494975 -16.194975 31.200000 0.382683 -0.923880 0.000000 0.953613 0.574347
0 -0.000000 -16.400000 31.200000 0.382683 -0.923880 0.000000 0.926758 0.574347
details.bmp
0 0.494975 -16.194975 27.200000 0.923880 -0.382683 0.000000 0.953613 0.269531
0 0.700000 -15.700000 27.200000 0.923880 -0.382683 0.000000 0.980469 0.269531
0 0.700000 -15.700000 31.200000 0.923880 -0.382683 0.000000 0.980469 0.574347
details.bmp
0 0.494975 -16.194975 27.200000 0.923880 -0.382683 0.000000 0.953613 0.269531
0 0.700000 -15.700000 31.200000 0.923880 -0.382683 0.000000 0.980469 0.574347
0 0.494975 -16.194975 31.200000 0.923880 -0.382683 0.000000 0.953613 0.574347
details.bmp
0 0.700000 -15.700000 31.200000 0.856555 0.354797 0.374743 0.765625 0.574347
0 0.494975 -15.205025 31.200000 0.856555 0.354797 0.374743 0.792480 0.574347
0 0.247487 -15.452513 32.000000 0.856555 0.354797 0.374743 0.792480 0.635310
details.bmp
0 0.700000 -15.700000 31.200000 0.856555 0.354797 0.374743 0.765625 0.574347
0 0.247487 -15.452513 32.000000 0.856555 0.354797 0.374743 0.792480 0.635310
0 0.350000 -15.700000 32.000000 0.856555 0.354797 0.374743 0.765625 0.635310
details.bmp
0 0.494975 -15.205025 31.200000 0.354797 0.856555 0.374743 0.792480 0.574347
0 0.000000 -15.000000 31.200000 0.354797 0.856555 0.374743 0.819336 0.574347
0 0.000000 -15.350000 32.000000 0.354797 0.856555 0.374743 0.819336 0.635310
details.bmp
0 0.494975 -15.205025 31.200000 0.354797 0.856555 0.374743 0.792480 0.574347
0 0.000000 -15.350000 32.000000 0.354797 0.856555 0.374743 0.819336 0.635310
0 0.247487 -15.452513 32.000000 0.354797 0.856555 0.374743 0.792480 0.635310
details.bmp
0 0.000000 -15.000000 31.200000 -0.354797 0.856555 0.374743 0.819336 0.574347
0 -0.494975 -15.205025 31.200000 -0.354797 0.856555 0.374743 0.846191 0.574347
0 -0.247487 -15.452513 32.000000 -0.354797 0.856555 0.374743 0.846191 0.635310
details.bmp
0 0.000000 -15.000000 31.200000 -0.354797 0.856555 0.374743 0.819336 0.574347
0 -0.247487 -15.452513 32.000000 -0.354797 0.856555 0.374743 0.846191 0.635310
0 0.000000 -15.350000 32.000000 -0.354797 0.856555 0.374743 0.819336 0.635310
details.bmp
0 -0.494975 -15.205025 31.200000 -0.856555 0.354797 0.374743 0.846191 0.574347
0 -0.700000 -15.700000 31.200000 -0.856555 0.354797 0.374743 0.873047 0.574347
0 -0.350000 -15.700000 32.000000 -0.856555 0.354797 0.374743 0.873047 0.635310
details.bmp
0 -0.494975 -15.205025 31.200000 -0.856555 0.354797 0.374743 0.846191 0.574347
0 -0.350000 -15.700000 32.000000 -0.856555 0.354797 0.374743 0.873047 0.635310
0 -0.247487 -15.452513 32.000000 -0.856555 0.354797 0.374743 0.846191 0.635310
details.bmp
0 -0.700000 -15.700000 31.200000 -0.856555 -0.354797 0.374743 0.873047 0.574347
0 -0.494975 -16.194975 31.200000 -0.856555 -0.354797 0.374743 0.899902 0.574347
0 -0.247487 -15.947487 32.000000 -0.856555 -0.354797 0.374743 0.899902 0.635310
details.bmp
0 -0.700000 -15.700000 31.200000 -0.856555 -0.354797 0.374743 0.873047 0.574347
0 -0.247487 -15.947487 32.000000 -0.856555 -0.354797 0.374743 0.899902 0.635310
0 -0.350000 -15.700000 32.000000 -0.856555 -0.354797 0.374743 0.873047 0.635310
details.bmp
0 -0.494975 -16.194975 31.200000 -0.354797 -0.856555 0.374743 0.899902 0.574347
0 -0.000000 -16.400000 31.200000 -0.354797 -0.856555 0.374743 0.926758 0.574347
0 -0.000000 -16.050000 32.000000 -0.354797 -0.856555 0.374743 0.926758 0.635310
details.bmp
0 -0.494975 -16.194975 31.200000 -0.354797 -0.856555 0.374743 0.899902 0.574347
0 -0.000000 -16.050000 32.000000 -0.354797 -0.856555 0.374743 0.926758 0.635310
0 -0.247487 -15.947487 32.000000 -0.354797 -0.856555 0.374743 0.899902 0.635310
details.bmp
0 -0.000000 -16.400000 31.200000 0.354797 -0.856555 0.374743 0.926758 0.574347
0 0.494975 -16.194975 31.200000 0.354797 -0.856555 0.374743 0.953613 0.574347
0 0.247487 -15.947487 32.000000 0.354797 -0.856555 0.374743 0.953613 0.635310
details.bmp
0 -0.000000 -16.400000 31.200000 0.354797 -0.856555 0.374743 0.926758 0.574347
0 0.247487 -15.947487 32.000000 0.354797 -0.856555 0.374743 0.953613 0.635310
0 -0.000000 -16.050000 32.000000 0.354797 -0.856555 0.374743 0.926758 0.635310
details.bmp
0 0.494975 -16.194975 31.200000 0.856555 -0.354797 0.374743 0.953613 0.574347
0 0.700000 -15.700000 31.200000 0.856555 -0.354797 0.374743 0.980469 0.574347
0 0.350000 -15.700000 32.000000 0.856555 -0.354797 0.374743 0.980469 0.635310
details.bmp
0 0.494975 -16.194975 31.200000 0.856555 -0.354797 0.374743 0.953613 0.574347
0 0.350000 -15.700000 32.000000 0.856555 -0.354797 0.374743 0.980469 0.635310
0 0.247487 -15.947487 32.000000 0.856555 -0.354797 0.374743 0.953613 0.635310
details.bmp
0 0.350000 -15.700000 32.000000 0.923880 0.382683 0.000000 0.765625 0.635310
0 0.247487 -15.452513 32.000000 0.923880 0.382683 0.000000 0.792480 0.635310
0 0.247487 -15.452513 33.300000 0.923880 0.382683 0.000000 0.792480 0.734375
details.bmp
0 0.350000 -15.700000 32.000000 0.923880 0.382683 -0.000000 0.765625 0.635310
0 0.247487 -15.452513 33.300000 0.923880 0.382683 -0.000000 0.792480 0.734375
0 0.350000 -15.700000 33.300000 0.923880 0.382683 -0.000000 0.765625 0.734375
details.bmp
0 0.247487 -15.452513 32.000000 0.382683 0.923880 0.000000 0.792480 0.635310
0 0.000000 -15.350000 32.000000 0.382683 0.923880 0.000000 0.819336 0.635310
0 0.000000 -15.350000 33.300000 0.382683 0.923880 0.000000 0.819336 0.734375
details.bmp
0 0.247487 -15.452513 32.000000 0.382683 0.923880 -0.000000 0.792480 0.635310
0 0.000000 -15.350000 33.300000 0.382683 0.923880 -0.000000 0.819336 0.734375
0 0.247487 -15.452513 33.300000 0.382683 0.923880 -0.000000 0.792480 0.734375
details.bmp
0 0.000000 -15.350000 32.000000 -0.382683 0.923880 0.000000 0.819336 0.635310
0 -0.247487 -15.452513 32.000000 -0.382683 0.923880 0.000000 0.846191 0.635310
0 -0.247487 -15.452513 33.300000 -0.382683 0.923880 0.000000 0.846191 0.734375
details.bmp
0 0.000000 -15.350000 32.000000 -0.382683 0.923880 0.000000 0.819336 0.635310
0 -0.247487 -15.452513 33.300000 -0.382683 0.923880 0.000000 0.846191 0.734375
0 0.000000 -15.350000 33.300000 -0.382683 0.923880 0.000000 0.819336 0.734375
details.bmp
0 -0.247487 -15.452513 32.000000 -0.923880 0.382683 0.000000 0.846191 0.635310
0 -0.350000 -15.700000 32.000000 -0.923880 0.382683 0.000000 0.873047 0.635310
0 -0.350000 -15.700000 33.300000 -0.923880 0.382683 0.000000 0.873047 0.734375
details.bmp
0 -0.247487 -15.452513 32.000000 -0.923880 0.382683 0.000000 0.846191 0.635310
0 -0.350000 -15.700000 33.300000 -0.923880 0.382683 0.000000 0.873047 0.734375
0 -0.247487 -15.452513 33.300000 -0.923880 0.382683 0.000000 0.846191 0.734375
details.bmp
0 -0.350000 -15.700000 32.000000 -0.923880 -0.382683 0.000000 0.873047 0.635310
0 -0.247487 -15.947487 32.000000 -0.923880 -0.382683 0.000000 0.899902 0.635310
0 -0.247487 -15.947487 33.300000 -0.923880 -0.382683 0.000000 0.899902 0.734375
details.bmp
0 -0.350000 -15.700000 32.000000 -0.923880 -0.382683 0.000000 0.873047 0.635310
0 -0.247487 -15.947487 33.300000 -0.923880 -0.382683 0.000000 0.899902 0.734375
0 -0.350000 -15.700000 33.300000 -0.923880 -0.382683 0.000000 0.873047 0.734375
details.bmp
0 -0.247487 -15.947487 32.000000 -0.382683 -0.923880 0.000000 0.899902 0.635310
0 -0.000000 -16.050000 32.000000 -0.382683 -0.923880 0.000000 0.926758 0.635310
0 -0.000000 -16.050000 33.300000 -0.382683 -0.923880 0.000000 0.926758 0.734375
details.bmp
0 -0.247487 -15.947487 32.000000 -0.382683 -0.923880 0.000000 0.899902 0.635310
0 -0.000000 -16.050000 33.300000 -0.382683 -0.923880 0.000000 0.926758 0.734375
0 -0.247487 -15.947487 33.300000 -0.382683 -0.923880 0.000000 0.899902 0.734375
details.bmp
0 -0.000000 -16.050000 32.000000 0.382683 -0.923880 0.000000 0.926758 0.635310
0 0.247487 -15.947487 32.000000 0.382683 -0.923880 0.000000 0.953613 0.635310
0 0.247487 -15.947487 33.300000 0.382683 -0.923880 0.000000 0.953613 0.734375
details.bmp
0 -0.000000 -16.050000 32.000000 0.382683 -0.923880 0.000000 0.926758 0.635310
0 0.247487 -15.947487 33.300000 0.382683 -0.923880 0.000000 0.953613 0.734375
0 -0.000000 -16.050000 33.300000 0.382683 -0.923880 0.000000 0.926758 0.734375
details.bmp
0 0.247487 -15.947487 32.000000 0.923880 -0.382683 0.000000 0.953613 0.635310
0 0.350000 -15.700000 32.000000 0.923880 -0.382683 0.000000 0.980469 0.635310
0 0.350000 -15.700000 33.300000 0.923880 -0.382683 0.000000 0.980469 0.734375
details.bmp
0 0.247487 -15.947487 32.000000 0.923880 -0.382683 0.000000 0.953613 0.635310
0 0.350000 -15.700000 33.300000 0.923880 -0.382683 0.000000 0.980469 0.734375
0 0.247487 -15.947487 33.300000 0.923880 -0.382683 0.000000 0.953613 0.734375
details.bmp
0 0.000000 -15.700000 33.300000 0.000000 0.000000 1.000000 0.015625 0.769531
0 0.350000 -15.700000 33.300000 0.000000 0.000000 1.000000 0.230469 0.769531
0 0.247487 -15.452513 33.300000 0.000000 0.000000 1.000000 0.230469 0.984375
details.bmp
0 0.000000 -15.700000 33.300000 0.000000 0.000000 1.000000 0.015625 0.769531
0 0.247487 -15.452513 33.300000 0.000000 0.000000 1.000000 0.230469 0.769531
0 0.000000 -15.350000 33.300000 0.000000 0.000000 1.000000 0.230469 0.984375
details.bmp
0 0.000000 -15.700000 33.300000 0.000000 -0.000000 1.000000 0.015625 0.769531
0 0.000000 -15.350000 33.300000 0.000000 -0.000000 1.000000 0.230469 0.769531
0 -0.247487 -15.452513 33.300000 0.000000 -0.000000 1.000000 0.230469 0.984375
details.bmp
0 0.000000 -15.700000 33.300000 0.000000 0.000000 1.000000 0.015625 0.769531
0 -0.247487 -15.452513 33.300000 0.000000 0.000000 1.000000 0.230469 0.769531
0 -0.350000 -15.700000 33.300000 0.000000 0.000000 1.000000 0.230469 0.984375
details.bmp
0 0.000000 -15.700000 33.300000 0.000000 0.000000 1.000000 0.015625 0.769531
0 -0.350000 -15.700000 33.300000 0.000000 0.000000 1.000000 0.230469 0.769531
0 -0.247487 -15.947487 33.300000 0.000000 0.000000 1.000000 0.230469 0.984375
details.bmp
0 0.000000 -15.700000 33.300000 0.000000 0.000000 1.000000 0.015625 0.769531
0 -0.247487 -15.947487 33.300000 0.000000 0.000000 1.000000 0.230469 0.769531
0 -0.000000 -16.050000 33.300000 0.000000 0.000000 1.000000 0.230469 0.984375
details.bmp
0 0.000000 -15.700000 33.300000 0.000000 0.000000 1.000000 0.015625 0.769531
0 -0.000000 -16.050000 33.300000 0.000000 0.000000 1.000000 0.230469 0.769531
0 0.247487 -15.947487 33.300000 0.000000 0.000000 1.000000 0.230469 0.984375
details.bmp
0 0.000000 -15.700000 33.300000 -0.000000 0.000000 1.000000 0.015625 0.769531
0 0.247487 -15.947487 33.300000 -0.000000 0.000000 1.000000 0.230469 0.769531
0 0.350000 -15.700000 33.300000 -0.000000 0.000000 1.000000 0.230469 0.984375
details.bmp
0 13.000000 -16.000000 49.000000 0.000000 -1.000000 0.000000 0.515625 0.394531
0 17.000000 -16.000000 49.000000 0.000000 -1.000000 0.000000 0.730469 0.394531
0 17.000000 -16.000000 56.000000 0.000000 -1.000000 0.000000 0.730469 0.734375
details.bmp
0 13.000000 -16.000000 49.000000 0.000000 -1.000000 0.000000 0.515625 0.394531
0 17.000000 -16.000000 56.000000 0.000000 -1.000000 0.000000 0.730469 0.734375
0 13.000000 -16.000000 56.000000 0.000000 -1.000000 0.000000 0.515625 0.734375
details.bmp
0 17.000000 -14.000000 49.000000 0.000000 1.000000 0.000000 0.015625 0.769531
0 13.000000 -14.000000 49.000000 0.000000 1.000000 0.000000 0.230469 0.769531
0 13.000000 -14.000000 56.000000 0.000000 1.000000 0.000000 0.230469 0.984375
details.bmp
0 17.000000 -14.000000 49.000000 0.000000 1.000000 -0.000000 0.015625 0.769531
0 13.000000 -14.000000 56.000000 0.000000 1.000000 -0.000000 0.230469 0.984375
0 17.000000 -14.000000 56.000000 0.000000 1.000000 -0.000000 0.015625 0.984375
details.bmp
0 13.000000 -14.000000 49.000000 -1.000000 0.000000 0.000000 0.015625 0.769531
0 13.000000 -16.000000 49.000000 -1.000000 0.000000 0.000000 0.230469 0.769531
0 13.000000 -16.000000 56.000000 -1.000000 0.000000 0.000000 0.230469 0.984375
details.bmp
0 13.000000 -14.000000 49.000000 -1.000000 0.000000 0.000000 0.015625 0.769531
0 13.000000 -16.000000 56.000000 -1.000000 0.000000 0.000000 0.230469 0.984375
0 13.000000 -14.000000 56.000000 -1.000000 0.000000 0.000000 0.015625 0.984375
details.bmp
0 17.000000 -16.000000 49.000000 1.000000 0.000000 0.000000 0.015625 0.769531
0 17.000000 -14.000000 49.000000 1.000000 0.000000 0.000000 0.230469 0.769531
0 17.000000 -14.000000 56.000000 1.000000 0.000000 0.000000 0.230469 0.984375
details.bmp
0 17.000000 -16.000000 49.000000 1.000000 0.000000 0.000000 0.015625 0.769531
0 17.000000 -14.000000 56.000000 1.000000 0.000000 0.000000 0.230469 0.984375
0 17.000000 -16.000000 56.000000 1.000000 0.000000 0.000000 0.015625 0.984375
details.bmp
0 13.000000 -16.000000 56.000000 0.000000 0.000000 1.000000 0.015625 0.769531
0 17.000000 -16.000000 56.000000 0.000000 0.000000 1.000000 0.230469 0.769531
0 17.000000 -14.000000 56.000000 0.000000 0.000000 1.000000 0.230469 0.984375
details.bmp
0 13.000000 -16.000000 56.000000 0.000000 0.000000 1.000000 0.015625 0.769531
0 17.000000 -14.000000 56.000000 0.000000 0.000000 1.000000 0.230469 0.984375
0 13.000000 -14.000000 56.000000 0.000000 0.000000 1.000000 0.015625 0.984375
details.bmp
0 13.000000 -14.000000 49.000000 0.000000 0.000000 -1.000000 0.015625 0.769531
0 17.000000 -14.000000 49.000000 0.000000 0.000000 -1.000000 0.230469 0.769531
0 17.000000 -16.000000 49.000000 0.000000 0.000000 -1.000000 0.230469 0.984375
details.bmp
0 13.000000 -14.000000 49.000000 0.000000 0.000000 -1.000000 0.015625 0.769531
0 17.000000 -16.000000 49.000000 0.000000 0.000000 -1.000000 0.230469 0.984375
0 13.000000 -16.000000 49.000000 0.000000 0.000000 -1.000000 0.015625 0.984375
details.bmp
0 -21.000000 -14.000000 60.000000 0.000000 -0.259973 0.965616 0.515625 0.769531
0 21.000000 -14.000000 60.000000 0.000000 -0.259973 0.965616 0.730469 0.769531
0 21.000000 12.000000 67.000000 0.000000 -0.259973 0.965616 0.730469 0.984375
details.bmp
0 -21.000000 -14.000000 60.000000 0.000000 -0.259973 0.965616 0.515625 0.769531
0 21.000000 12.000000 67.000000 0.000000 -0.259973 0.965616 0.730469 0.984375
0 -21.000000 12.000000 67.000000 0.000000 -0.259973 0.965616 0.515625 0.984375
details.bmp
0 -21.000000 12.000000 67.000000 -1.000000 0.000000 -0.000000 0.730469 0.984375
0 -21.000000 12.000000 60.000000 -1.000000 0.000000 -0.000000 0.730469 0.769531
0 -21.000000 -14.000000 60.000000 -1.000000 0.000000 -0.000000 0.515625 0.769531
details.bmp
0 21.000000 -14.000000 60.000000 1.000000 0.000000 0.000000 0.515625 0.769531
0 21.000000 12.000000 60.000000 1.000000 0.000000 0.000000 0.730469 0.769531
0 21.000000 12.000000 67.000000 1.000000 0.000000 0.000000 0.730469 0.984375
details.bmp
0 -21.000000 12.000000 67.000000 -0.000000 1.000000 0.000000 0.515625 0.984375
0 21.000000 12.000000 67.000000 -0.000000 1.000000 0.000000 0.730469 0.984375
0 21.000000 12.000000 60.000000 -0.000000 1.000000 0.000000 0.730469 0.769531
details.bmp
0 -21.000000 12.000000 67.000000 0.000000 1.000000 0.000000 0.515625 0.984375
0 21.000000 12.000000 60.000000 0.000000 1.000000 0.000000 0.730469 0.769531
0 -21.000000 12.000000 60.000000 0.000000 1.000000 0.000000 0.515625 0.769531
details.bmp
0 -19.000000 7.000000 67.000000 0.000000 -1.000000 0.000000 0.015625 0.019531
0 19.000000 7.000000 67.000000 0.000000 -1.000000 0.000000 0.480469 0.019531
0 19.000000 7.000000 78.000000 0.000000 -1.000000 0.000000 0.480469 0.226562
details.bmp
0 -19.000000 7.000000 67.000000 0.000000 -1.000000 0.000000 0.015625 0.019531
0 19.000000 7.000000 78.000000 0.000000 -1.000000 0.000000 0.480469 0.226562
0 -19.000000 7.000000 78.000000 0.000000 -1.000000 0.000000 0.015625 0.226562
details.bmp
0 19.000000 9.000000 67.000000 0.000000 1.000000 0.000000 0.765625 0.769531
0 -19.000000 9.000000 67.000000 0.000000 1.000000 0.000000 0.980469 0.769531
0 -19.000000 9.000000 78.000000 0.000000 1.000000 0.000000 0.980469 0.984375
details.bmp
0 19.000000 9.000000 67.000000 0.000000 1.000000 -0.000000 0.765625 0.769531
0 -19.000000 9.000000 78.000000 0.000000 1.000000 -0.000000 0.980469 0.984375
0 19.000000 9.000000 78.000000 0.000000 1.000000 -0.000000 0.765625 0.984375
details.bmp
0 -19.000000 9.000000 67.000000 -1.000000 0.000000 0.000000 0.765625 0.769531
0 -19.000000 7.000000 67.000000 -1.000000 0.000000 0.000000 0.980469 0.769531
0 -19.000000 7.000000 78.000000 -1.000000 0.000000 0.000000 0.980469 0.984375
details.bmp
0 -19.000000 9.000000 67.000000 -1.000000 0.000000 0.000000 0.765625 0.769531
0 -19.000000 7.000000 78.000000 -1.000000 0.000000 0.000000 0.980469 0.984375
0 -19.000000 9.000000 78.000000 -1.000000 0.000000 0.000000 0.765625 0.984375
details.bmp
0 19.000000 7.000000 67.000000 1.000000 0.000000 0.000000 0.765625 0.769531
0 19.000000 9.000000 67.000000 1.000000 0.000000 0.000000 0.980469 0.769531
0 19.000000 9.000000 78.000000 1.000000 0.000000 0.000000 0.980469 0.984375
details.bmp
0 19.000000 7.000000 67.000000 1.000000 0.000000 0.000000 0.765625 0.769531
0 19.000000 9.000000 78.000000 1.000000 0.000000 0.000000 0.980469 0.984375
0 19.000000 7.000000 78.000000 1.000000 0.000000 0.000000 0.765625 0.984375
details.bmp
0 -19.000000 7.000000 78.000000 0.000000 0.000000 1.000000 0.765625 0.769531
0 19.000000 7.000000 78.000000 0.000000 0.000000 1.000000 0.980469 0.769531
0 19.000000 9.000000 78.000000 0.000000 0.000000 1.000000 0.980469 0.984375
details.bmp
0 -19.000000 7.000000 78.000000 0.000000 0.000000 1.000000 0.765625 0.769531
0 19.000000 9.000000 78.000000 0.000000 0.000000 1.000000 0.980469 0.984375
0 -19.000000 9.000000 78.000000 0.000000 0.000000 1.000000 0.765625 0.984375
details.bmp
0 -19.000000 9.000000 67.000000 0.000000 0.000000 -1.000000 0.765625 0.769531
0 19.000000 9.000000 67.000000 0.000000 0.000000 -1.000000 0.980469 0.769531
0 19.000000 7.000000 67.000000 0.000000 0.000000 -1.000000 0.980469 0.984375
details.bmp
0 -19.000000 9.000000 67.000000 0.000000 0.000000 -1.000000 0.765625 0.769531
0 19.000000 7.000000 67.000000 0.000000 0.000000 -1.000000 0.980469 0.984375
0 -19.000000 7.000000 67.000000 0.000000 0.000000 -1.000000 0.765625 0.984375
details.bmp
0 -1.500000 7.000000 77.000000 0.000000 -1.000000 0.000000 0.015625 0.769531
0 1.500000 7.000000 77.000000 0.000000 -1.000000 0.000000 0.230469 0.769531
0 1.500000 7.000000 83.000000 0.000000 -1.000000 0.000000 0.230469 0.984375
details.bmp
0 -1.500000 7.000000 77.000000 0.000000 -1.000000 0.000000 0.015625 0.769531
0 1.500000 7.000000 83.000000 0.000000 -1.000000 0.000000 0.230469 0.984375
0 -1.500000 7.000000 83.000000 0.000000 -1.000000 0.000000 0.015625 0.984375
details.bmp
0 1.500000 9.000000 77.000000 0.000000 1.000000 0.000000 0.015625 0.769531
0 -1.500000 9.000000 77.000000 0.000000 1.000000 0.000000 0.230469 0.769531
0 -1.500000 9.000000 83.000000 0.000000 1.000000 0.000000 0.230469 0.984375
details.bmp
0 1.500000 9.000000 77.000000 0.000000 1.000000 -0.000000 0.015625 0.769531
0 -1.500000 9.000000 83.000000 0.000000 1.000000 -0.000000 0.230469 0.984375
0 1.500000 9.000000 83.000000 0.000000 1.000000 -0.000000 0.015625 0.984375
details.bmp
0 -1.500000 9.000000 77.000000 -1.000000 0.000000 0.000000 0.015625 0.769531
0 -1.500000 7.000000 77.000000 -1.000000 0.000000 0.000000 0.230469 0.769531
0 -1.500000 7.000000 83.000000 -1.000000 0.000000 0.000000 0.230469 0.984375
details.bmp
0 -1.500000 9.000000 77.000000 -1.000000 0.000000 0.000000 0.015625 0.769531
0 -1.500000 7.000000 83.000000 -1.000000 0.000000 0.000000 0.230469 0.984375
0 -1.500000 9.000000 83.000000 -1.000000 0.000000 0.000000 0.015625 0.984375
details.bmp
0 1.500000 7.000000 77.000000 1.000000 0.000000 0.000000 0.015625 0.769531
0 1.500000 9.000000 77.000000 1.000000 0.000000 0.000000 0.230469 0.769531
0 1.500000 9.000000 83.000000 1.000000 0.000000 0.000000 0.230469 0.984375
details.bmp
0 1.500000 7.000000 77.000000 1.000000 0.000000 0.000000 0.015625 0.769531
0 1.500000 9.000000 83.000000 1.000000 0.000000 0.000000 0.230469 0.984375
0 1.500000 7.000000 83.000000 1.000000 0.000000 0.000000 0.015625 0.984375
details.bmp
0 -1.500000 7.000000 83.000000 0.000000 0.000000 1.000000 0.015625 0.769531
0 1.500000 7.000000 83.000000 0.000000 0.000000 1.000000 0.230469 0.769531
0 1.500000 9.000000 83.000000 0.000000 0.000000 1.000000 0.230469 0.984375
details.bmp
0 -1.500000 7.000000 83.000000 0.000000 0.000000 1.000000 0.015625 0.769531
0 1.500000 9.000000 83.000000 0.000000 0.000000 1.000000 0.230469 0.984375
0 -1.500000 9.000000 83.000000 0.000000 0.000000 1.000000 0.015625 0.984375
details.bmp
0 -1.500000 9.000000 77.000000 0.000000 0.000000 -1.000000 0.015625 0.769531
0 1.500000 9.000000 77.000000 0.000000 0.000000 -1.000000 0.230469 0.769531
0 1.500000 7.000000 77.000000 0.000000 0.000000 -1.000000 0.230469 0.984375
details.bmp
0 -1.500000 9.000000 77.000000 0.000000 0.000000 -1.000000 0.015625 0.769531
0 1.500000 7.000000 77.000000 0.000000 0.000000 -1.000000 0.230469 0.984375
0 -1.500000 7.000000 77.000000 0.000000 0.000000 -1.000000 0.015625 0.984375
details.bmp
0 8.700000 7.000000 88.500000 0.980785 -0.000000 0.195090 0.015625 0.769531
0 8.700000 10.000000 88.500000 0.980785 -0.000000 0.195090 0.230469 0.769531
0 8.037752 10.000000 91.829346 0.980785 -0.000000 0.195090 0.230469 0.984375
details.bmp
0 8.700000 7.000000 88.500000 0.980785 0.000000 0.195090 0.015625 0.769531
0 8.037752 10.000000 91.829346 0.980785 0.000000 0.195090 0.230469 0.984375
0 8.037752 7.000000 91.829346 0.980785 0.000000 0.195090 0.015625 0.984375
details.bmp
0 8.050000 6.950000 88.500000 0.000000 -1.000000 0.000000 0.015625 0.769531
0 8.700000 6.950000 88.500000 0.000000 -1.000000 0.000000 0.230469 0.769531
0 8.037752 6.950000 91.829346 0.000000 -1.000000 0.000000 0.230469 0.984375
details.bmp
0 8.050000 6.950000 88.500000 0.000000 -1.000000 0.000000 0.015625 0.769531
0 8.037752 6.950000 91.829346 0.000000 -1.000000 0.000000 0.230469 0.984375
0 7.437230 6.950000 91.580602 0.000000 -1.000000 0.000000 0.015625 0.984375
details.bmp
0 0.000000 6.920000 88.500000 0.000000 -1.000000 0.000000 0.248047 0.501953
0 8.050000 6.920000 88.500000 0.000000 -1.000000 0.000000 0.480469 0.501953
0 7.437230 6.920000 91.580602 0.000000 -1.000000 0.000000 0.462777 0.590897
details.bmp
0 0.000000 10.000000 88.500000 0.000000 1.000000 0.000000 0.515625 0.769531
0 8.037752 10.000000 91.829346 0.000000 1.000000 0.000000 0.730469 0.769531
0 8.700000 10.000000 88.500000 0.000000 1.000000 0.000000 0.730469 0.984375
details.bmp
0 8.037752 7.000000 91.829346 0.831470 -0.000000 0.555570 0.015625 0.769531
0 8.037752 10.000000 91.829346 0.831470 -0.000000 0.555570 0.230469 0.769531
0 6.151829 10.000000 94.651829 0.831470 -0.000000 0.555570 0.230469 0.984375
details.bmp
0 8.037752 7.000000 91.829346 0.831470 0.000000 0.555570 0.015625 0.769531
0 6.151829 10.000000 94.651829 0.831470 0.000000 0.555570 0.230469 0.984375
0 6.151829 7.000000 94.651829 0.831470 0.000000 0.555570 0.015625 0.984375
details.bmp
0 7.437230 6.950000 91.580602 0.000000 -1.000000 0.000000 0.015625 0.769531
0 8.037752 6.950000 91.829346 0.000000 -1.000000 0.000000 0.230469 0.769531
0 6.151829 6.950000 94.651829 0.000000 -1.000000 0.000000 0.230469 0.984375
details.bmp
0 7.437230 6.950000 91.580602 0.000000 -1.000000 0.000000 0.015625 0.769531
0 6.151829 6.950000 94.651829 0.000000 -1.000000 0.000000 0.230469 0.984375
0 5.692210 6.950000 94.192210 0.000000 -1.000000 0.000000 0.015625 0.984375
details.bmp
0 0.000000 6.920000 88.500000 0.000000 -1.000000 0.000000 0.248047 0.501953
0 7.437230 6.920000 91.580602 0.000000 -1.000000 0.000000 0.462777 0.590897
0 5.692210 6.920000 94.192210 0.000000 -1.000000 0.000000 0.412394 0.666300
details.bmp
0 0.000000 10.000000 88.500000 0.000000 1.000000 0.000000 0.515625 0.769531
0 6.151829 10.000000 94.651829 0.000000 1.000000 0.000000 0.730469 0.769531
0 8.037752 10.000000 91.829346 0.000000 1.000000 0.000000 0.730469 0.984375
details.bmp
0 6.151829 7.000000 94.651829 0.555570 -0.000000 0.831470 0.015625 0.769531
0 6.151829 10.000000 94.651829 0.555570 -0.000000 0.831470 0.230469 0.769531
0 3.329346 10.000000 96.537752 0.555570 -0.000000 0.831470 0.230469 0.984375
details.bmp
0 6.151829 7.000000 94.651829 0.555570 0.000000 0.831470 0.015625 0.769531
0 3.329346 10.000000 96.537752 0.555570 0.000000 0.831470 0.230469 0.984375
0 3.329346 7.000000 96.537752 0.555570 0.000000 0.831470 0.015625 0.984375
details.bmp
0 5.692210 6.950000 94.192210 0.000000 -1.000000 0.000000 0.015625 0.769531
0 6.151829 6.950000 94.651829 0.000000 -1.000000 0.000000 0.230469 0.769531
0 3.329346 6.950000 96.537752 0.000000 -1.000000 0.000000 0.230469 0.984375
details.bmp
0 5.692210 6.950000 94.192210 0.000000 -1.000000 0.000000 0.015625 0.769531
0 3.329346 6.950000 96.537752 0.000000 -1.000000 0.000000 0.230469 0.984375
0 3.080602 6.950000 95.937230 0.000000 -1.000000 0.000000 0.015625 0.984375
details.bmp
0 0.000000 6.920000 88.500000 0.000000 -1.000000 0.000000 0.248047 0.501953
0 5.692210 6.920000 94.192210 0.000000 -1.000000 0.000000 0.412394 0.666300
0 3.080602 6.920000 95.937230 0.000000 -1.000000 0.000000 0.336991 0.716683
details.bmp
0 0.000000 10.000000 88.500000 0.000000 1.000000 0.000000 0.515625 0.769531
0 3.329346 10.000000 96.537752 0.000000 1.000000 0.000000 0.730469 0.769531
0 6.151829 10.000000 94.651829 0.000000 1.000000 0.000000 0.730469 0.984375
details.bmp
0 3.329346 7.000000 96.537752 0.195090 -0.000000 0.980785 0.015625 0.769531
0 3.329346 10.000000 96.537752 0.195090 -0.000000 0.980785 0.230469 0.769531
0 0.000000 10.000000 97.200000 0.195090 -0.000000 0.980785 0.230469 0.984375
details.bmp
0 3.329346 7.000000 96.537752 0.195090 0.000000 0.980785 0.015625 0.769531
0 0.000000 10.000000 97.200000 0.195090 0.000000 0.980785 0.230469 0.984375
0 0.000000 7.000000 97.200000 0.195090 0.000000 0.980785 0.015625 0.984375
details.bmp
0 3.080602 6.950000 95.937230 0.000000 -1.000000 0.000000 0.015625 0.769531
0 3.329346 6.950000 96.537752 0.000000 -1.000000 0.000000 0.230469 0.769531
0 0.000000 6.950000 97.200000 0.000000 -1.000000 0.000000 0.230469 0.984375
details.bmp
0 3.080602 6.950000 95.937230 0.000000 -1.000000 0.000000 0.015625 0.769531
0 0.000000 6.950000 97.200000 0.000000 -1.000000 0.000000 0.230469 0.984375
0 0.000000 6.950000 96.550000 0.000000 -1.000000 0.000000 0.015625 0.984375
details.bmp
0 0.000000 6.920000 88.500000 0.000000 -1.000000 0.000000 0.248047 0.501953
0 3.080602 6.920000 95.937230 0.000000 -1.000000 0.000000 0.336991 0.716683
0 0.000000 6.920000 96.550000 0.000000 -1.000000 0.000000 0.248047 0.734375
details.bmp
0 0.000000 10.000000 88.500000 0.000000 1.000000 0.000000 0.515625 0.769531
0 0.000000 10.000000 97.200000 0.000000 1.000000 0.000000 0.730469 0.769531
0 3.329346 10.000000 96.537752 0.000000 1.000000 0.000000 0.730469 0.984375
details.bmp
0 0.000000 7.000000 97.200000 -0.195090 0.000000 0.980785 0.015625 0.769531
0 0.000000 10.000000 97.200000 -0.195090 0.000000 0.980785 0.230469 0.769531
0 -3.329346 10.000000 96.537752 -0.195090 0.000000 0.980785 0.230469 0.984375
details.bmp
0 0.000000 7.000000 97.200000 -0.195090 0.000000 0.980785 0.015625 0.769531
0 -3.329346 10.000000 96.537752 -0.195090 0.000000 0.980785 0.230469 0.984375
0 -3.329346 7.000000 96.537752 -0.195090 0.000000 0.980785 0.015625 0.984375
details.bmp
0 0.000000 6.950000 96.550000 -0.000000 -1.000000 0.000000 0.015625 0.769531
0 0.000000 6.950000 97.200000 -0.000000 -1.000000 0.000000 0.230469 0.769531
0 -3.329346 6.950000 96.537752 -0.000000 -1.000000 0.000000 0.230469 0.984375
details.bmp
0 0.000000 6.950000 96.550000 0.000000 -1.000000 0.000000 0.015625 0.769531
0 -3.329346 6.950000 96.537752 0.000000 -1.000000 0.000000 0.230469 0.984375
0 -3.080602 6.950000 95.937230 0.000000 -1.000000 0.000000 0.015625 0.984375
details.bmp
0 0.000000 6.920000 88.500000 0.000000 -1.000000 0.000000 0.248047 0.501953
0 0.000000 6.920000 96.550000 0.000000 -1.000000 0.000000 0.248047 0.734375
0 -3.080602 6.920000 95.937230 0.000000 -1.000000 0.000000 0.159103 0.716683
details.bmp
0 0.000000 10.000000 88.500000 0.000000 1.000000 -0.000000 0.515625 0.769531
0 -3.329346 10.000000 96.537752 0.000000 1.000000 -0.000000 0.730469 0.769531
0 0.000000 10.000000 97.200000 0.000000 1.000000 -0.000000 0.730469 0.984375
details.bmp
0 -3.329346 7.000000 96.537752 -0.555570 0.000000 0.831470 0.015625 0.769531
0 -3.329346 10.000000 96.537752 -0.555570 0.000000 0.831470 0.230469 0.769531
0 -6.151829 10.000000 94.651829 -0.555570 0.000000 0.831470 0.230469 0.984375
details.bmp
0 -3.329346 7.000000 96.537752 -0.555570 0.000000 0.831470 0.015625 0.769531
0 -6.151829 10.000000 94.651829 -0.555570 0.000000 0.831470 0.230469 0.984375
0 -6.151829 7.000000 94.651829 -0.555570 0.000000 0.831470 0.015625 0.984375
details.bmp
0 -3.080602 6.950000 95.937230 -0.000000 -1.000000 0.000000 0.015625 0.769531
0 -3.329346 6.950000 96.537752 -0.000000 -1.000000 0.000000 0.230469 0.769531
0 -6.151829 6.950000 94.651829 -0.000000 -1.000000 0.000000 0.230469 0.984375
details.bmp
0 -3.080602 6.950000 95.937230 0.000000 -1.000000 0.000000 0.015625 0.769531
0 -6.151829 6.950000 94.651829 0.000000 -1.000000 0.000000 0.230469 0.984375
0 -5.692210 6.950000 94.192210 0.000000 -1.000000 0.000000 0.015625 0.984375
details.bmp
0 0.000000 6.920000 88.500000 0.000000 -1.000000 0.000000 0.248047 0.501953
0 -3.080602 6.920000 95.937230 0.000000 -1.000000 0.000000 0.159103 0.716683
0 -5.692210 6.920000 94.192210 0.000000 -1.000000 0.000000 0.083700 0.666300
details.bmp
0 0.000000 10.000000 88.500000 0.000000 1.000000 0.000000 0.515625 0.769531
0 -6.151829 10.000000 94.651829 0.000000 1.000000 0.000000 0.730469 0.769531
0 -3.329346 10.000000 96.537752 0.000000 1.000000 0.000000 0.730469 0.984375
details.bmp
0 -6.151829 7.000000 94.651829 -0.831470 0.000000 0.555570 0.015625 0.769531
0 -6.151829 10.000000 94.651829 -0.831470 0.000000 0.555570 0.230469 0.769531
0 -8.037752 10.000000 91.829346 -0.831470 0.000000 0.555570 0.230469 0.984375
details.bmp
0 -6.151829 7.000000 94.651829 -0.831470 0.000000 0.555570 0.015625 0.769531
0 -8.037752 10.000000 91.829346 -0.831470 0.000000 0.555570 0.230469 0.984375
0 -8.037752 7.000000 91.829346 -0.831470 0.000000 0.555570 0.015625 0.984375
details.bmp
0 -5.692210 6.950000 94.192210 -0.000000 -1.000000 0.000000 0.015625 0.769531
0 -6.151829 6.950000 94.651829 -0.000000 -1.000000 0.000000 0.230469 0.769531
0 -8.037752 6.950000 91.829346 -0.000000 -1.000000 0.000000 0.230469 0.984375
details.bmp
0 -5.692210 6.950000 94.192210 0.000000 -1.000000 0.000000 0.015625 0.769531
0 -8.037752 6.950000 91.829346 0.000000 -1.000000 0.000000 0.230469 0.984375
0 -7.437230 6.950000 91.580602 0.000000 -1.000000 0.000000 0.015625 0.984375
details.bmp
0 0.000000 6.920000 88.500000 0.000000 -1.000000 0.000000 0.248047 0.501953
0 -5.692210 6.920000 94.192210 0.000000 -1.000000 0.000000 0.083700 0.666300
0 -7.437230 6.920000 91.580602 0.000000 -1.000000 0.000000 0.033317 0.590897
details.bmp
0 0.000000 10.000000 88.500000 0.000000 1.000000 0.000000 0.515625 0.769531
0 -8.037752 10.000000 91.829346 0.000000 1.000000 0.000000 0.730469 0.769531
0 -6.151829 10.000000 94.651829 0.000000 1.000000 0.000000 0.730469 0.984375
details.bmp
0 -8.037752 7.000000 91.829346 -0.980785 0.000000 0.195090 0.015625 0.769531
0 -8.037752 10.000000 91.829346 -0.980785 0.000000 0.195090 0.230469 0.769531
0 -8.700000 10.000000 88.500000 -0.980785 0.000000 0.195090 0.230469 0.984375
details.bmp
0 -8.037752 7.000000 91.829346 -0.980785 0.000000 0.195090 0.015625 0.769531
0 -8.700000 10.000000 88.500000 -0.980785 0.000000 0.195090 0.230469 0.984375
0 -8.700000 7.000000 88.500000 -0.980785 0.000000 0.195090 0.015625 0.984375
details.bmp
0 -7.437230 6.950000 91.580602 -0.000000 -1.000000 0.000000 0.015625 0.769531
0 -8.037752 6.950000 91.829346 -0.000000 -1.000000 0.000000 0.230469 0.769531
0 -8.700000 6.950000 88.500000 -0.000000 -1.000000 0.000000 0.230469 0.984375
details.bmp
0 -7.437230 6.950000 91.580602 0.000000 -1.000000 0.000000 0.015625 0.769531
0 -8.700000 6.950000 88.500000 0.000000 -1.000000 0.000000 0.230469 0.984375
0 -8.050000 6.950000 88.500000 0.000000 -1.000000 0.000000 0.015625 0.984375
details.bmp
0 0.000000 6.920000 88.500000 0.000000 -1.000000 0.000000 0.248047 0.501953
0 -7.437230 6.920000 91.580602 0.000000 -1.000000 0.000000 0.033317 0.590897
0 -8.050000 6.920000 88.500000 0.000000 -1.000000 0.000000 0.015625 0.501953
details.bmp
0 0.000000 10.000000 88.500000 0.000000 1.000000 0.000000 0.515625 0.769531
0 -8.700000 10.000000 88.500000 0.000000 1.000000 0.000000 0.730469 0.769531
0 -8.037752 10.000000 91.829346 0.000000 1.000000 0.000000 0.730469 0.984375
details.bmp
0 -8.700000 7.000000 88.500000 -0.980785 0.000000 -0.195090 0.015625 0.769531
0 -8.700000 10.000000 88.500000 -0.980785 0.000000 -0.195090 0.230469 0.769531
0 -8.037752 10.000000 85.170654 -0.980785 0.000000 -0.195090 0.230469 0.984375
details.bmp
0 -8.700000 7.000000 88.500000 -0.980785 0.000000 -0.195090 0.015625 0.769531
0 -8.037752 10.000000 85.170654 -0.980785 0.000000 -0.195090 0.230469 0.984375
0 -8.037752 7.000000 85.170654 -0.980785 0.000000 -0.195090 0.015625 0.984375
details.bmp
0 -8.050000 6.950000 88.500000 -0.000000 -1.000000 -0.000000 0.015625 0.769531
0 -8.700000 6.950000 88.500000 -0.000000 -1.000000 -0.000000 0.230469 0.769531
0 -8.037752 6.950000 85.170654 -0.000000 -1.000000 -0.000000 0.230469 0.984375
details.bmp
0 -8.050000 6.950000 88.500000 0.000000 -1.000000 0.000000 0.015625 0.769531
0 -8.037752 6.950000 85.170654 0.000000 -1.000000 0.000000 0.230469 0.984375
0 -7.437230 6.950000 85.419398 0.000000 -1.000000 0.000000 0.015625 0.984375
details.bmp
0 0.000000 6.920000 88.500000 -0.000000 -1.000000 0.000000 0.248047 0.501953
0 -8.050000 6.920000 88.500000 -0.000000 -1.000000 0.000000 0.015625 0.501953
0 -7.437230 6.920000 85.419398 -0.000000 -1.000000 0.000000 0.033317 0.413009
details.bmp
0 0.000000 10.000000 88.500000 0.000000 1.000000 0.000000 0.515625 0.769531
0 -8.037752 10.000000 85.170654 0.000000 1.000000 0.000000 0.730469 0.769531
0 -8.700000 10.000000 88.500000 0.000000 1.000000 0.000000 0.730469 0.984375
details.bmp
0 -8.037752 7.000000 85.170654 -0.831470 0.000000 -0.555570 0.015625 0.769531
0 -8.037752 10.000000 85.170654 -0.831470 0.000000 -0.555570 0.230469 0.769531
0 -6.151829 10.000000 82.348171 -0.831470 0.000000 -0.555570 0.230469 0.984375
details.bmp
0 -8.037752 7.000000 85.170654 -0.831470 0.000000 -0.555570 0.015625 0.769531
0 -6.151829 10.000000 82.348171 -0.831470 0.000000 -0.555570 0.230469 0.984375
0 -6.151829 7.000000 82.348171 -0.831470 0.000000 -0.555570 0.015625 0.984375
details.bmp
0 -7.437230 6.950000 85.419398 0.000000 -1.000000 -0.000000 0.015625 0.769531
0 -8.037752 6.950000 85.170654 0.000000 -1.000000 -0.000000 0.230469 0.769531
0 -6.151829 6.950000 82.348171 0.000000 -1.000000 -0.000000 0.230469 0.984375
details.bmp
0 -7.437230 6.950000 85.419398 0.000000 -1.000000 0.000000 0.015625 0.769531
0 -6.151829 6.950000 82.348171 0.000000 -1.000000 0.000000 0.230469 0.984375
0 -5.692210 6.950000 82.807790 0.000000 -1.000000 0.000000 0.015625 0.984375
details.bmp
0 0.000000 6.920000 88.500000 0.000000 -1.000000 0.000000 0.248047 0.501953
0 -7.437230 6.920000 85.419398 0.000000 -1.000000 0.000000 0.033317 0.413009
0 -5.692210 6.920000 82.807790 0.000000 -1.000000 0.000000 0.083700 0.337606
details.bmp
0 0.000000 10.000000 88.500000 0.000000 1.000000 0.000000 0.515625 0.769531
0 -6.151829 10.000000 82.348171 0.000000 1.000000 0.000000 0.730469 0.769531
0 -8.037752 10.000000 85.170654 0.000000 1.000000 0.000000 0.730469 0.984375
details.bmp
0 -6.151829 7.000000 82.348171 -0.555570 0.000000 -0.831470 0.015625 0.769531
0 -6.151829 10.000000 82.348171 -0.555570 0.000000 -0.831470 0.230469 0.769531
0 -3.329346 10.000000 80.462248 -0.555570 0.000000 -0.831470 0.230469 0.984375
details.bmp
0 -6.151829 7.000000 82.348171 -0.555570 0.000000 -0.831470 0.015625 0.769531
0 -3.329346 10.000000 80.462248 -0.555570 0.000000 -0.831470 0.230469 0.984375
0 -3.329346 7.000000 80.462248 -0.555570 0.000000 -0.831470 0.015625 0.984375
details.bmp
0 -5.692210 6.950000 82.807790 0.000000 -1.000000 -0.000000 0.015625 0.769531
0 -6.151829 6.950000 82.348171 0.000000 -1.000000 -0.000000 0.230469 0.769531
0 -3.329346 6.950000 80.462248 0.000000 -1.000000 -0.000000 0.230469 0.984375
details.bmp
0 -5.692210 6.950000 82.807790 0.000000 -1.000000 0.000000 0.015625 0.769531
0 -3.329346 6.950000 80.462248 0.000000 -1.000000 0.000000 0.230469 0.984375
0 -3.080602 6.950000 81.062770 0.000000 -1.000000 0.000000 0.015625 0.984375
details.bmp
0 0.000000 6.920000 88.500000 0.000000 -1.000000 0.000000 0.248047 0.501953
0 -5.692210 6.920000 82.807790 0.000000 -1.000000 0.000000 0.083700 0.337606
0 -3.080602 6.920000 81.062770 0.000000 -1.000000 0.000000 0.159103 0.287223
details.bmp
0 0.000000 10.000000 88.500000 0.000000 1.000000 0.000000 0.515625 0.769531
0 -3.329346 10.000000 80.462248 0.000000 1.000000 0.000000 0.730469 0.769531
0 -6.151829 10.000000 82.348171 0.000000 1.000000 0.000000 0.730469 0.984375
details.bmp
0 -3.329346 7.000000 80.462248 -0.195090 0.000000 -0.980785 0.015625 0.769531
0 -3.329346 10.000000 80.462248 -0.195090 0.000000 -0.980785 0.230469 0.769531
0 -0.000000 10.000000 79.800000 -0.195090 0.000000 -0.980785 0.230469 0.984375
details.bmp
0 -3.329346 7.000000 80.462248 -0.195090 0.000000 -0.980785 0.015625 0.769531
0 -0.000000 10.000000 79.800000 -0.195090 0.000000 -0.980785 0.230469 0.984375
0 -0.000000 7.000000 79.800000 -0.195090 0.000000 -0.980785 0.015625 0.984375
details.bmp
0 -3.080602 6.950000 81.062770 0.000000 -1.000000 -0.000000 0.015625 0.769531
0 -3.329346 6.950000 80.462248 0.000000 -1.000000 -0.000000 0.230469 0.769531
0 -0.000000 6.950000 79.800000 0.000000 -1.000000 -0.000000 0.230469 0.984375
details.bmp
0 -3.080602 6.950000 81.062770 0.000000 -1.000000 0.000000 0.015625 0.769531
0 -0.000000 6.950000 79.800000 0.000000 -1.000000 0.000000 0.230469 0.984375
0 -0.000000 6.950000 80.450000 0.000000 -1.000000 0.000000 0.015625 0.984375
details.bmp
0 0.000000 6.920000 88.500000 0.000000 -1.000000 0.000000 0.248047 0.501953
0 -3.080602 6.920000 81.062770 0.000000 -1.000000 0.000000 0.159103 0.287223
0 -0.000000 6.920000 80.450000 0.000000 -1.000000 0.000000 0.248047 0.269531
details.bmp
0 0.000000 10.000000 88.500000 0.000000 1.000000 0.000000 0.515625 0.769531
0 -0.000000 10.000000 79.800000 0.000000 1.000000 0.000000 0.730469 0.769531
0 -3.329346 10.000000 80.462248 0.000000 1.000000 0.000000 0.730469 0.984375
details.bmp
0 -0.000000 7.000000 79.800000 0.195090 0.000000 -0.980785 0.015625 0.769531
0 -0.000000 10.000000 79.800000 0.195090 0.000000 -0.980785 0.230469 0.769531
0 3.329346 10.000000 80.462248 0.195090 0.000000 -0.980785 0.230469 0.984375
details.bmp
0 -0.000000 7.000000 79.800000 0.195090 0.000000 -0.980785 0.015625 0.769531
0 3.329346 10.000000 80.462248 0.195090 0.000000 -0.980785 0.230469 0.984375
0 3.329346 7.000000 80.462248 0.195090 0.000000 -0.980785 0.015625 0.984375
details.bmp
0 -0.000000 6.950000 80.450000 0.000000 -1.000000 -0.000000 0.015625 0.769531
0 -0.000000 6.950000 79.800000 0.000000 -1.000000 -0.000000 0.230469 0.769531
0 3.329346 6.950000 80.462248 0.000000 -1.000000 -0.000000 0.230469 0.984375
details.bmp
0 -0.000000 6.950000 80.450000 0.000000 -1.000000 0.000000 0.015625 0.769531
0 3.329346 6.950000 80.462248 0.000000 -1.000000 0.000000 0.230469 0.984375
0 3.080602 6.950000 81.062770 0.000000 -1.000000 0.000000 0.015625 0.984375
details.bmp
0 0.000000 6.920000 88.500000 0.000000 -1.000000 -0.000000 0.248047 0.501953
0 -0.000000 6.920000 80.450000 0.000000 -1.000000 -0.000000 0.248047 0.269531
0 3.080602 6.920000 81.062770 0.000000 -1.000000 -0.000000 0.336991 0.287223
details.bmp
0 0.000000 10.000000 88.500000 0.000000 1.000000 0.000000 0.515625 0.769531
0 3.329346 10.000000 80.462248 0.000000 1.000000 0.000000 0.730469 0.769531
0 -0.000000 10.000000 79.800000 0.000000 1.000000 0.000000 0.730469 0.984375
details.bmp
0 3.329346 7.000000 80.462248 0.555570 0.000000 -0.831470 0.015625 0.769531
0 3.329346 10.000000 80.462248 0.555570 0.000000 -0.831470 0.230469 0.769531
0 6.151829 10.000000 82.348171 0.555570 0.000000 -0.831470 0.230469 0.984375
details.bmp
0 3.329346 7.000000 80.462248 0.555570 0.000000 -0.831470 0.015625 0.769531
0 6.151829 10.000000 82.348171 0.555570 0.000000 -0.831470 0.230469 0.984375
0 6.151829 7.000000 82.348171 0.555570 0.000000 -0.831470 0.015625 0.984375
details.bmp
0 3.080602 6.950000 81.062770 0.000000 -1.000000 0.000000 0.015625 0.769531
0 3.329346 6.950000 80.462248 0.000000 -1.000000 0.000000 0.230469 0.769531
0 6.151829 6.950000 82.348171 0.000000 -1.000000 0.000000 0.230469 0.984375
details.bmp
0 3.080602 6.950000 81.062770 0.000000 -1.000000 0.000000 0.015625 0.769531
0 6.151829 6.950000 82.348171 0.000000 -1.000000 0.000000 0.230469 0.984375
0 5.692210 6.950000 82.807790 0.000000 -1.000000 0.000000 0.015625 0.984375
details.bmp
0 0.000000 6.920000 88.500000 0.000000 -1.000000 0.000000 0.248047 0.501953
0 3.080602 6.920000 81.062770 0.000000 -1.000000 0.000000 0.336991 0.287223
0 5.692210 6.920000 82.807790 0.000000 -1.000000 0.000000 0.412394 0.337606
details.bmp
0 0.000000 10.000000 88.500000 0.000000 1.000000 0.000000 0.515625 0.769531
0 6.151829 10.000000 82.348171 0.000000 1.000000 0.000000 0.730469 0.769531
0 3.329346 10.000000 80.462248 0.000000 1.000000 0.000000 0.730469 0.984375
details.bmp
0 6.151829 7.000000 82.348171 0.831470 0.000000 -0.555570 0.015625 0.769531
0 6.151829 10.000000 82.348171 0.831470 0.000000 -0.555570 0.230469 0.769531
0 8.037752 10.000000 85.170654 0.831470 0.000000 -0.555570 0.230469 0.984375
details.bmp
0 6.151829 7.000000 82.348171 0.831470 0.000000 -0.555570 0.015625 0.769531
0 8.037752 10.000000 85.170654 0.831470 0.000000 -0.555570 0.230469 0.984375
0 8.037752 7.000000 85.170654 0.831470 0.000000 -0.555570 0.015625 0.984375
details.bmp
0 5.692210 6.950000 82.807790 0.000000 -1.000000 0.000000 0.015625 0.769531
0 6.151829 6.950000 82.348171 0.000000 -1.000000 0.000000 0.230469 0.769531
0 8.037752 6.950000 85.170654 0.000000 -1.000000 0.000000 0.230469 0.984375
details.bmp
0 5.692210 6.950000 82.807790 0.000000 -1.000000 0.000000 0.015625 0.769531
0 8.037752 6.950000 85.170654 0.000000 -1.000000 0.000000 0.230469 0.984375
0 7.437230 6.950000 85.419398 0.000000 -1.000000 0.000000 0.015625 0.984375
details.bmp
0 0.000000 6.920000 88.500000 0.000000 -1.000000 0.000000 0.248047 0.501953
0 5.692210 6.920000 82.807790 0.000000 -1.000000 0.000000 0.412394 0.337606
0 7.437230 6.920000 85.419398 0.000000 -1.000000 0.000000 0.462777 0.413009
details.bmp
0 0.000000 10.000000 88.500000 0.000000 1.000000 0.000000 0.515625 0.769531
0 8.037752 10.000000 85.170654 0.000000 1.000000 0.000000 0.730469 0.769531
0 6.151829 10.000000 82.348171 0.000000 1.000000 0.000000 0.730469 0.984375
details.bmp
0 8.037752 7.000000 85.170654 0.980785 0.000000 -0.195090 0.015625 0.769531
0 8.037752 10.000000 85.170654 0.980785 0.000000 -0.195090 0.230469 0.769531
0 8.700000 10.000000 88.500000 0.980785 0.000000 -0.195090 0.230469 0.984375
details.bmp
0 8.037752 7.000000 85.170654 0.980785 0.000000 -0.195090 0.015625 0.769531
0 8.700000 10.000000 88.500000 0.980785 0.000000 -0.195090 0.230469 0.984375
0 8.700000 7.000000 88.500000 0.980785 0.000000 -0.195090 0.015625 0.984375
details.bmp
0 7.437230 6.950000 85.419398 0.000000 -1.000000 0.000000 0.015625 0.769531
0 8.037752 6.950000 85.170654 0.000000 -1.000000 0.000000 0.230469 0.769531
0 8.700000 6.950000 88.500000 0.000000 -1.000000 0.000000 0.230469 0.984375
details.bmp
0 7.437230 6.950000 85.419398 0.000000 -1.000000 0.000000 0.015625 0.769531
0 8.700000 6.950000 88.500000 0.000000 -1.000000 0.000000 0.230469 0.984375
0 8.050000 6.950000 88.500000 0.000000 -1.000000 0.000000 0.015625 0.984375
details.bmp
0 0.000000 6.920000 88.500000 0.000000 -1.000000 0.000000 0.248047 0.501953
0 7.437230 6.920000 85.419398 0.000000 -1.000000 0.000000 0.462777 0.413009
0 8.050000 6.920000 88.500000 0.000000 -1.000000 0.000000 0.480469 0.501953
details.bmp
0 0.000000 10.000000 88.500000 -0.000000 1.000000 0.000000 0.515625 0.769531
0 8.700000 10.000000 88.500000 -0.000000 1.000000 0.000000 0.730469 0.769531
0 8.037752 10.000000 85.170654 -0.000000 1.000000 0.000000 0.730469 0.984375
end
