version 1
nodes
0 "root" -1
end
skeleton
time 0
0 0 0 0 0 0 0
end
triangles
cabinet.bmp
0 -18.050000 -14.000000 3.851000 0.000000 -1.000000 0.000000 0.078833 0.021270
0 18.050000 -14.000000 3.851000 0.000000 -1.000000 0.000000 0.921167 0.021270
0 19.950000 -14.000000 5.805000 0.000000 -1.000000 0.000000 0.965500 0.047147
cabinet.bmp
0 -18.050000 -14.000000 3.851000 0.000000 -1.000000 0.000000 0.078833 0.021270
0 19.950000 -14.000000 5.805000 0.000000 -1.000000 0.000000 0.965500 0.047147
0 19.950000 -14.000000 73.218000 0.000000 -1.000000 0.000000 0.965500 0.939914
cabinet.bmp
0 -18.050000 -14.000000 3.851000 0.000000 -1.000000 0.000000 0.078833 0.021270
0 19.950000 -14.000000 73.218000 0.000000 -1.000000 0.000000 0.965500 0.939914
0 18.050000 -14.000000 76.149000 0.000000 -1.000000 0.000000 0.921167 0.978730
cabinet.bmp
0 -18.050000 -14.000000 3.851000 0.000000 -1.000000 0.000000 0.078833 0.021270
0 18.050000 -14.000000 76.149000 0.000000 -1.000000 0.000000 0.921167 0.978730
0 -18.050000 -14.000000 76.149000 0.000000 -1.000000 0.000000 0.078833 0.978730
cabinet.bmp
0 -18.050000 -14.000000 3.851000 0.000000 -1.000000 0.000000 0.078833 0.021270
0 -18.050000 -14.000000 76.149000 0.000000 -1.000000 0.000000 0.078833 0.978730
0 -19.950000 -14.000000 73.218000 0.000000 -1.000000 0.000000 0.034500 0.939914
cabinet.bmp
0 -18.050000 -14.000000 3.851000 0.000000 -1.000000 0.000000 0.078833 0.021270
0 -19.950000 -14.000000 73.218000 0.000000 -1.000000 0.000000 0.034500 0.939914
0 -19.950000 -14.000000 5.805000 0.000000 -1.000000 0.000000 0.034500 0.047147
details.bmp
0 -18.050000 -14.000000 3.851000 0.000000 -0.391530 -0.920165 0.515625 0.769531
0 -19.000000 -12.000000 3.000000 0.000000 -0.391530 -0.920165 0.730469 0.769531
0 19.000000 -12.000000 3.000000 0.000000 -0.391530 -0.920165 0.730469 0.984375
details.bmp
0 -18.050000 -14.000000 3.851000 0.000000 -0.391530 -0.920165 0.515625 0.769531
0 19.000000 -12.000000 3.000000 0.000000 -0.391530 -0.920165 0.730469 0.984375
0 18.050000 -14.000000 3.851000 0.000000 -0.391530 -0.920165 0.515625 0.984375
details.bmp
0 18.050000 -14.000000 3.851000 0.596454 -0.537107 -0.596454 0.515625 0.769531
0 19.000000 -12.000000 3.000000 0.596454 -0.537107 -0.596454 0.730469 0.769531
0 21.000000 -12.000000 5.000000 0.596454 -0.537107 -0.596454 0.730469 0.984375
details.bmp
0 18.050000 -14.000000 3.851000 0.599196 -0.549089 -0.582637 0.515625 0.769531
0 21.000000 -12.000000 5.000000 0.599196 -0.549089 -0.582637 0.730469 0.984375
0 19.950000 -14.000000 5.805000 0.599196 -0.549089 -0.582637 0.515625 0.984375
details.bmp
0 19.950000 -14.000000 5.805000 0.885398 -0.464834 0.000000 0.515625 0.769531
0 21.000000 -12.000000 5.000000 0.885398 -0.464834 0.000000 0.730469 0.769531
0 21.000000 -12.000000 74.000000 0.885398 -0.464834 0.000000 0.730469 0.984375
details.bmp
0 19.950000 -14.000000 5.805000 0.885398 -0.464834 0.000000 0.515625 0.769531
0 21.000000 -12.000000 74.000000 0.885398 -0.464834 0.000000 0.730469 0.984375
0 19.950000 -14.000000 73.218000 0.885398 -0.464834 0.000000 0.515625 0.984375
details.bmp
0 19.950000 -14.000000 73.218000 0.696443 -0.547172 0.464295 0.515625 0.769531
0 21.000000 -12.000000 74.000000 0.696443 -0.547172 0.464295 0.730469 0.769531
0 19.000000 -12.000000 77.000000 0.696443 -0.547172 0.464295 0.730469 0.984375
details.bmp
0 19.950000 -14.000000 73.218000 0.709959 -0.533057 0.460226 0.515625 0.769531
0 19.000000 -12.000000 77.000000 0.709959 -0.533057 0.460226 0.730469 0.984375
0 18.050000 -14.000000 76.149000 0.709959 -0.533057 0.460226 0.515625 0.984375
details.bmp
0 18.050000 -14.000000 76.149000 0.000000 -0.391530 0.920165 0.515625 0.769531
0 19.000000 -12.000000 77.000000 0.000000 -0.391530 0.920165 0.730469 0.769531
0 -19.000000 -12.000000 77.000000 0.000000 -0.391530 0.920165 0.730469 0.984375
details.bmp
0 18.050000 -14.000000 76.149000 0.000000 -0.391530 0.920165 0.515625 0.769531
0 -19.000000 -12.000000 77.000000 0.000000 -0.391530 0.920165 0.730469 0.984375
0 -18.050000 -14.000000 76.149000 0.000000 -0.391530 0.920165 0.515625 0.984375
details.bmp
0 -18.050000 -14.000000 76.149000 -0.703594 -0.533793 0.469063 0.515625 0.769531
0 -19.000000 -12.000000 77.000000 -0.703594 -0.533793 0.469063 0.730469 0.769531
0 -21.000000 -12.000000 74.000000 -0.703594 -0.533793 0.469063 0.730469 0.984375
details.bmp
0 -18.050000 -14.000000 76.149000 -0.702516 -0.546883 0.455401 0.515625 0.769531
0 -21.000000 -12.000000 74.000000 -0.702516 -0.546883 0.455401 0.730469 0.984375
0 -19.950000 -14.000000 73.218000 -0.702516 -0.546883 0.455401 0.515625 0.984375
details.bmp
0 -19.950000 -14.000000 73.218000 -0.885398 -0.464834 0.000000 0.515625 0.769531
0 -21.000000 -12.000000 74.000000 -0.885398 -0.464834 0.000000 0.730469 0.769531
0 -21.000000 -12.000000 5.000000 -0.885398 -0.464834 0.000000 0.730469 0.984375
details.bmp
0 -19.950000 -14.000000 73.218000 -0.885398 -0.464834 -0.000000 0.515625 0.769531
0 -21.000000 -12.000000 5.000000 -0.885398 -0.464834 -0.000000 0.730469 0.984375
0 -19.950000 -14.000000 5.805000 -0.885398 -0.464834 -0.000000 0.515625 0.984375
details.bmp
0 -19.950000 -14.000000 5.805000 -0.591286 -0.548418 -0.591286 0.515625 0.769531
0 -21.000000 -12.000000 5.000000 -0.591286 -0.548418 -0.591286 0.730469 0.769531
0 -19.000000 -12.000000 3.000000 -0.591286 -0.548418 -0.591286 0.730469 0.984375
details.bmp
0 -19.950000 -14.000000 5.805000 -0.604635 -0.537364 -0.587926 0.515625 0.769531
0 -19.000000 -12.000000 3.000000 -0.604635 -0.537364 -0.587926 0.730469 0.984375
0 -18.050000 -14.000000 3.851000 -0.604635 -0.537364 -0.587926 0.515625 0.984375
details.bmp
0 -19.000000 -12.000000 3.000000 0.000000 0.000000 -1.000000 0.265625 0.769531
0 -19.000000 13.000000 3.000000 0.000000 0.000000 -1.000000 0.480469 0.769531
0 19.000000 13.000000 3.000000 0.000000 0.000000 -1.000000 0.480469 0.984375
details.bmp
0 -19.000000 -12.000000 3.000000 0.000000 0.000000 -1.000000 0.265625 0.769531
0 19.000000 13.000000 3.000000 0.000000 0.000000 -1.000000 0.480469 0.984375
0 19.000000 -12.000000 3.000000 0.000000 0.000000 -1.000000 0.265625 0.984375
details.bmp
0 19.000000 -12.000000 3.000000 0.707107 0.000000 -0.707107 0.265625 0.769531
0 19.000000 13.000000 3.000000 0.707107 0.000000 -0.707107 0.480469 0.769531
0 21.000000 13.000000 5.000000 0.707107 0.000000 -0.707107 0.480469 0.984375
details.bmp
0 19.000000 -12.000000 3.000000 0.707107 0.000000 -0.707107 0.265625 0.769531
0 21.000000 13.000000 5.000000 0.707107 0.000000 -0.707107 0.480469 0.984375
0 21.000000 -12.000000 5.000000 0.707107 0.000000 -0.707107 0.265625 0.984375
sides.bmp
0 21.000000 -12.000000 5.000000 1.000000 0.000000 0.000000 0.020000 0.027027
0 21.000000 13.000000 5.000000 1.000000 0.000000 0.000000 0.980000 0.027027
0 21.000000 13.000000 74.000000 1.000000 0.000000 0.000000 0.980000 0.959459
sides.bmp
0 21.000000 -12.000000 5.000000 1.000000 0.000000 0.000000 0.020000 0.027027
0 21.000000 13.000000 74.000000 1.000000 0.000000 0.000000 0.980000 0.959459
0 21.000000 -12.000000 74.000000 1.000000 0.000000 0.000000 0.020000 0.959459
details.bmp
0 21.000000 -12.000000 74.000000 0.832050 -0.000000 0.554700 0.515625 0.769531
0 21.000000 13.000000 74.000000 0.832050 -0.000000 0.554700 0.730469 0.769531
0 19.000000 13.000000 77.000000 0.832050 -0.000000 0.554700 0.730469 0.984375
details.bmp
0 21.000000 -12.000000 74.000000 0.832050 0.000000 0.554700 0.515625 0.769531
0 19.000000 13.000000 77.000000 0.832050 0.000000 0.554700 0.730469 0.984375
0 19.000000 -12.000000 77.000000 0.832050 0.000000 0.554700 0.515625 0.984375
details.bmp
0 19.000000 -12.000000 77.000000 0.000000 -0.000000 1.000000 0.515625 0.769531
0 19.000000 13.000000 77.000000 0.000000 -0.000000 1.000000 0.730469 0.769531
0 -19.000000 13.000000 77.000000 0.000000 -0.000000 1.000000 0.730469 0.984375
details.bmp
0 19.000000 -12.000000 77.000000 0.000000 0.000000 1.000000 0.515625 0.769531
0 -19.000000 13.000000 77.000000 0.000000 0.000000 1.000000 0.730469 0.984375
0 -19.000000 -12.000000 77.000000 0.000000 0.000000 1.000000 0.515625 0.984375
details.bmp
0 -19.000000 -12.000000 77.000000 -0.832050 0.000000 0.554700 0.515625 0.769531
0 -19.000000 13.000000 77.000000 -0.832050 0.000000 0.554700 0.730469 0.769531
0 -21.000000 13.000000 74.000000 -0.832050 0.000000 0.554700 0.730469 0.984375
details.bmp
0 -19.000000 -12.000000 77.000000 -0.832050 0.000000 0.554700 0.515625 0.769531
0 -21.000000 13.000000 74.000000 -0.832050 0.000000 0.554700 0.730469 0.984375
0 -21.000000 -12.000000 74.000000 -0.832050 0.000000 0.554700 0.515625 0.984375
sides.bmp
0 -21.000000 -12.000000 74.000000 -1.000000 0.000000 0.000000 0.980000 0.959459
0 -21.000000 13.000000 74.000000 -1.000000 0.000000 0.000000 0.020000 0.959459
0 -21.000000 13.000000 5.000000 -1.000000 0.000000 0.000000 0.020000 0.027027
sides.bmp
0 -21.000000 -12.000000 74.000000 -1.000000 0.000000 0.000000 0.980000 0.959459
0 -21.000000 13.000000 5.000000 -1.000000 0.000000 0.000000 0.020000 0.027027
0 -21.000000 -12.000000 5.000000 -1.000000 0.000000 0.000000 0.980000 0.027027
details.bmp
0 -21.000000 -12.000000 5.000000 -0.707107 0.000000 -0.707107 0.265625 0.769531
0 -21.000000 13.000000 5.000000 -0.707107 0.000000 -0.707107 0.480469 0.769531
0 -19.000000 13.000000 3.000000 -0.707107 0.000000 -0.707107 0.480469 0.984375
details.bmp
0 -21.000000 -12.000000 5.000000 -0.707107 0.000000 -0.707107 0.265625 0.769531
0 -19.000000 13.000000 3.000000 -0.707107 0.000000 -0.707107 0.480469 0.984375
0 -19.000000 -12.000000 3.000000 -0.707107 0.000000 -0.707107 0.265625 0.984375
rear.bmp
0 -21.000000 13.000000 5.000000 0.000000 1.000000 0.000000 0.990000 0.036486
0 -21.000000 13.000000 74.000000 0.000000 1.000000 0.000000 0.990000 0.950270
0 -19.000000 13.000000 77.000000 0.000000 1.000000 0.000000 0.943333 0.990000
rear.bmp
0 -21.000000 13.000000 5.000000 0.000000 1.000000 0.000000 0.990000 0.036486
0 -19.000000 13.000000 77.000000 0.000000 1.000000 0.000000 0.943333 0.990000
0 19.000000 13.000000 77.000000 0.000000 1.000000 0.000000 0.056667 0.990000
rear.bmp
0 -21.000000 13.000000 5.000000 0.000000 1.000000 0.000000 0.990000 0.036486
0 19.000000 13.000000 77.000000 0.000000 1.000000 0.000000 0.056667 0.990000
0 21.000000 13.000000 74.000000 0.000000 1.000000 0.000000 0.010000 0.950270
rear.bmp
0 -21.000000 13.000000 5.000000 0.000000 1.000000 0.000000 0.990000 0.036486
0 21.000000 13.000000 74.000000 0.000000 1.000000 0.000000 0.010000 0.950270
0 21.000000 13.000000 5.000000 0.000000 1.000000 0.000000 0.010000 0.036486
rear.bmp
0 -21.000000 13.000000 5.000000 -0.000000 1.000000 0.000000 0.990000 0.036486
0 21.000000 13.000000 5.000000 -0.000000 1.000000 0.000000 0.010000 0.036486
0 19.000000 13.000000 3.000000 -0.000000 1.000000 0.000000 0.056667 0.010000
rear.bmp
0 -21.000000 13.000000 5.000000 0.000000 1.000000 0.000000 0.990000 0.036486
0 19.000000 13.000000 3.000000 0.000000 1.000000 0.000000 0.056667 0.010000
0 -19.000000 13.000000 3.000000 0.000000 1.000000 0.000000 0.943333 0.010000
details.bmp
0 -21.500000 -13.500000 1.000000 0.000000 -1.000000 0.000000 0.265625 0.769531
0 21.500000 -13.500000 1.000000 0.000000 -1.000000 0.000000 0.480469 0.769531
0 21.500000 -13.500000 4.000000 0.000000 -1.000000 0.000000 0.480469 0.984375
details.bmp
0 -21.500000 -13.500000 1.000000 0.000000 -1.000000 0.000000 0.265625 0.769531
0 21.500000 -13.500000 4.000000 0.000000 -1.000000 0.000000 0.480469 0.984375
0 -21.500000 -13.500000 4.000000 0.000000 -1.000000 0.000000 0.265625 0.984375
details.bmp
0 21.500000 13.500000 1.000000 0.000000 1.000000 0.000000 0.265625 0.769531
0 -21.500000 13.500000 1.000000 0.000000 1.000000 0.000000 0.480469 0.769531
0 -21.500000 13.500000 4.000000 0.000000 1.000000 0.000000 0.480469 0.984375
details.bmp
0 21.500000 13.500000 1.000000 0.000000 1.000000 -0.000000 0.265625 0.769531
0 -21.500000 13.500000 4.000000 0.000000 1.000000 -0.000000 0.480469 0.984375
0 21.500000 13.500000 4.000000 0.000000 1.000000 -0.000000 0.265625 0.984375
details.bmp
0 -21.500000 13.500000 1.000000 -1.000000 0.000000 0.000000 0.265625 0.769531
0 -21.500000 -13.500000 1.000000 -1.000000 0.000000 0.000000 0.480469 0.769531
0 -21.500000 -13.500000 4.000000 -1.000000 0.000000 0.000000 0.480469 0.984375
details.bmp
0 -21.500000 13.500000 1.000000 -1.000000 0.000000 0.000000 0.265625 0.769531
0 -21.500000 -13.500000 4.000000 -1.000000 0.000000 0.000000 0.480469 0.984375
0 -21.500000 13.500000 4.000000 -1.000000 0.000000 0.000000 0.265625 0.984375
details.bmp
0 21.500000 -13.500000 1.000000 1.000000 0.000000 0.000000 0.265625 0.769531
0 21.500000 13.500000 1.000000 1.000000 0.000000 0.000000 0.480469 0.769531
0 21.500000 13.500000 4.000000 1.000000 0.000000 0.000000 0.480469 0.984375
details.bmp
0 21.500000 -13.500000 1.000000 1.000000 0.000000 0.000000 0.265625 0.769531
0 21.500000 13.500000 4.000000 1.000000 0.000000 0.000000 0.480469 0.984375
0 21.500000 -13.500000 4.000000 1.000000 0.000000 0.000000 0.265625 0.984375
details.bmp
0 -21.500000 -13.500000 4.000000 0.000000 0.000000 1.000000 0.265625 0.769531
0 21.500000 -13.500000 4.000000 0.000000 0.000000 1.000000 0.480469 0.769531
0 21.500000 13.500000 4.000000 0.000000 0.000000 1.000000 0.480469 0.984375
details.bmp
0 -21.500000 -13.500000 4.000000 0.000000 0.000000 1.000000 0.265625 0.769531
0 21.500000 13.500000 4.000000 0.000000 0.000000 1.000000 0.480469 0.984375
0 -21.500000 13.500000 4.000000 0.000000 0.000000 1.000000 0.265625 0.984375
details.bmp
0 -21.500000 13.500000 1.000000 0.000000 0.000000 -1.000000 0.265625 0.769531
0 21.500000 13.500000 1.000000 0.000000 0.000000 -1.000000 0.480469 0.769531
0 21.500000 -13.500000 1.000000 0.000000 0.000000 -1.000000 0.480469 0.984375
details.bmp
0 -21.500000 13.500000 1.000000 0.000000 0.000000 -1.000000 0.265625 0.769531
0 21.500000 -13.500000 1.000000 0.000000 0.000000 -1.000000 0.480469 0.984375
0 -21.500000 -13.500000 1.000000 0.000000 0.000000 -1.000000 0.265625 0.984375
details.bmp
0 -19.000000 -11.000000 0.000000 0.000000 -1.000000 0.000000 0.898438 0.136719
0 -15.000000 -11.000000 0.000000 0.000000 -1.000000 0.000000 0.980469 0.136719
0 -15.000000 -11.000000 1.300000 0.000000 -1.000000 0.000000 0.980469 0.226562
details.bmp
0 -19.000000 -11.000000 0.000000 0.000000 -1.000000 0.000000 0.898438 0.136719
0 -15.000000 -11.000000 1.300000 0.000000 -1.000000 0.000000 0.980469 0.226562
0 -19.000000 -11.000000 1.300000 0.000000 -1.000000 0.000000 0.898438 0.226562
details.bmp
0 -15.000000 -7.000000 0.000000 0.000000 1.000000 0.000000 0.898438 0.136719
0 -19.000000 -7.000000 0.000000 0.000000 1.000000 0.000000 0.980469 0.136719
0 -19.000000 -7.000000 1.300000 0.000000 1.000000 0.000000 0.980469 0.226562
details.bmp
0 -15.000000 -7.000000 0.000000 0.000000 1.000000 -0.000000 0.898438 0.136719
0 -19.000000 -7.000000 1.300000 0.000000 1.000000 -0.000000 0.980469 0.226562
0 -15.000000 -7.000000 1.300000 0.000000 1.000000 -0.000000 0.898438 0.226562
details.bmp
0 -19.000000 -7.000000 0.000000 -1.000000 0.000000 0.000000 0.898438 0.136719
0 -19.000000 -11.000000 0.000000 -1.000000 0.000000 0.000000 0.980469 0.136719
0 -19.000000 -11.000000 1.300000 -1.000000 0.000000 0.000000 0.980469 0.226562
details.bmp
0 -19.000000 -7.000000 0.000000 -1.000000 0.000000 0.000000 0.898438 0.136719
0 -19.000000 -11.000000 1.300000 -1.000000 0.000000 0.000000 0.980469 0.226562
0 -19.000000 -7.000000 1.300000 -1.000000 0.000000 0.000000 0.898438 0.226562
details.bmp
0 -15.000000 -11.000000 0.000000 1.000000 0.000000 0.000000 0.898438 0.136719
0 -15.000000 -7.000000 0.000000 1.000000 0.000000 0.000000 0.980469 0.136719
0 -15.000000 -7.000000 1.300000 1.000000 0.000000 0.000000 0.980469 0.226562
details.bmp
0 -15.000000 -11.000000 0.000000 1.000000 0.000000 0.000000 0.898438 0.136719
0 -15.000000 -7.000000 1.300000 1.000000 0.000000 0.000000 0.980469 0.226562
0 -15.000000 -11.000000 1.300000 1.000000 0.000000 0.000000 0.898438 0.226562
details.bmp
0 -19.000000 -11.000000 1.300000 0.000000 0.000000 1.000000 0.898438 0.136719
0 -15.000000 -11.000000 1.300000 0.000000 0.000000 1.000000 0.980469 0.136719
0 -15.000000 -7.000000 1.300000 0.000000 0.000000 1.000000 0.980469 0.226562
details.bmp
0 -19.000000 -11.000000 1.300000 0.000000 0.000000 1.000000 0.898438 0.136719
0 -15.000000 -7.000000 1.300000 0.000000 0.000000 1.000000 0.980469 0.226562
0 -19.000000 -7.000000 1.300000 0.000000 0.000000 1.000000 0.898438 0.226562
details.bmp
0 -19.000000 -7.000000 0.000000 0.000000 0.000000 -1.000000 0.898438 0.136719
0 -15.000000 -7.000000 0.000000 0.000000 0.000000 -1.000000 0.980469 0.136719
0 -15.000000 -11.000000 0.000000 0.000000 0.000000 -1.000000 0.980469 0.226562
details.bmp
0 -19.000000 -7.000000 0.000000 0.000000 0.000000 -1.000000 0.898438 0.136719
0 -15.000000 -11.000000 0.000000 0.000000 0.000000 -1.000000 0.980469 0.226562
0 -19.000000 -11.000000 0.000000 0.000000 0.000000 -1.000000 0.898438 0.226562
details.bmp
0 -19.000000 7.000000 0.000000 0.000000 -1.000000 0.000000 0.898438 0.136719
0 -15.000000 7.000000 0.000000 0.000000 -1.000000 0.000000 0.980469 0.136719
0 -15.000000 7.000000 1.300000 0.000000 -1.000000 0.000000 0.980469 0.226562
details.bmp
0 -19.000000 7.000000 0.000000 0.000000 -1.000000 0.000000 0.898438 0.136719
0 -15.000000 7.000000 1.300000 0.000000 -1.000000 0.000000 0.980469 0.226562
0 -19.000000 7.000000 1.300000 0.000000 -1.000000 0.000000 0.898438 0.226562
details.bmp
0 -15.000000 11.000000 0.000000 0.000000 1.000000 0.000000 0.898438 0.136719
0 -19.000000 11.000000 0.000000 0.000000 1.000000 0.000000 0.980469 0.136719
0 -19.000000 11.000000 1.300000 0.000000 1.000000 0.000000 0.980469 0.226562
details.bmp
0 -15.000000 11.000000 0.000000 0.000000 1.000000 -0.000000 0.898438 0.136719
0 -19.000000 11.000000 1.300000 0.000000 1.000000 -0.000000 0.980469 0.226562
0 -15.000000 11.000000 1.300000 0.000000 1.000000 -0.000000 0.898438 0.226562
details.bmp
0 -19.000000 11.000000 0.000000 -1.000000 0.000000 0.000000 0.898438 0.136719
0 -19.000000 7.000000 0.000000 -1.000000 0.000000 0.000000 0.980469 0.136719
0 -19.000000 7.000000 1.300000 -1.000000 0.000000 0.000000 0.980469 0.226562
details.bmp
0 -19.000000 11.000000 0.000000 -1.000000 0.000000 0.000000 0.898438 0.136719
0 -19.000000 7.000000 1.300000 -1.000000 0.000000 0.000000 0.980469 0.226562
0 -19.000000 11.000000 1.300000 -1.000000 0.000000 0.000000 0.898438 0.226562
details.bmp
0 -15.000000 7.000000 0.000000 1.000000 0.000000 0.000000 0.898438 0.136719
0 -15.000000 11.000000 0.000000 1.000000 0.000000 0.000000 0.980469 0.136719
0 -15.000000 11.000000 1.300000 1.000000 0.000000 0.000000 0.980469 0.226562
details.bmp
0 -15.000000 7.000000 0.000000 1.000000 0.000000 0.000000 0.898438 0.136719
0 -15.000000 11.000000 1.300000 1.000000 0.000000 0.000000 0.980469 0.226562
0 -15.000000 7.000000 1.300000 1.000000 0.000000 0.000000 0.898438 0.226562
details.bmp
0 -19.000000 7.000000 1.300000 0.000000 0.000000 1.000000 0.898438 0.136719
0 -15.000000 7.000000 1.300000 0.000000 0.000000 1.000000 0.980469 0.136719
0 -15.000000 11.000000 1.300000 0.000000 0.000000 1.000000 0.980469 0.226562
details.bmp
0 -19.000000 7.000000 1.300000 0.000000 0.000000 1.000000 0.898438 0.136719
0 -15.000000 11.000000 1.300000 0.000000 0.000000 1.000000 0.980469 0.226562
0 -19.000000 11.000000 1.300000 0.000000 0.000000 1.000000 0.898438 0.226562
details.bmp
0 -19.000000 11.000000 0.000000 0.000000 0.000000 -1.000000 0.898438 0.136719
0 -15.000000 11.000000 0.000000 0.000000 0.000000 -1.000000 0.980469 0.136719
0 -15.000000 7.000000 0.000000 0.000000 0.000000 -1.000000 0.980469 0.226562
details.bmp
0 -19.000000 11.000000 0.000000 0.000000 0.000000 -1.000000 0.898438 0.136719
0 -15.000000 7.000000 0.000000 0.000000 0.000000 -1.000000 0.980469 0.226562
0 -19.000000 7.000000 0.000000 0.000000 0.000000 -1.000000 0.898438 0.226562
details.bmp
0 15.000000 -11.000000 0.000000 0.000000 -1.000000 0.000000 0.898438 0.136719
0 19.000000 -11.000000 0.000000 0.000000 -1.000000 0.000000 0.980469 0.136719
0 19.000000 -11.000000 1.300000 0.000000 -1.000000 0.000000 0.980469 0.226562
details.bmp
0 15.000000 -11.000000 0.000000 0.000000 -1.000000 0.000000 0.898438 0.136719
0 19.000000 -11.000000 1.300000 0.000000 -1.000000 0.000000 0.980469 0.226562
0 15.000000 -11.000000 1.300000 0.000000 -1.000000 0.000000 0.898438 0.226562
details.bmp
0 19.000000 -7.000000 0.000000 0.000000 1.000000 0.000000 0.898438 0.136719
0 15.000000 -7.000000 0.000000 0.000000 1.000000 0.000000 0.980469 0.136719
0 15.000000 -7.000000 1.300000 0.000000 1.000000 0.000000 0.980469 0.226562
details.bmp
0 19.000000 -7.000000 0.000000 0.000000 1.000000 -0.000000 0.898438 0.136719
0 15.000000 -7.000000 1.300000 0.000000 1.000000 -0.000000 0.980469 0.226562
0 19.000000 -7.000000 1.300000 0.000000 1.000000 -0.000000 0.898438 0.226562
details.bmp
0 15.000000 -7.000000 0.000000 -1.000000 0.000000 0.000000 0.898438 0.136719
0 15.000000 -11.000000 0.000000 -1.000000 0.000000 0.000000 0.980469 0.136719
0 15.000000 -11.000000 1.300000 -1.000000 0.000000 0.000000 0.980469 0.226562
details.bmp
0 15.000000 -7.000000 0.000000 -1.000000 0.000000 0.000000 0.898438 0.136719
0 15.000000 -11.000000 1.300000 -1.000000 0.000000 0.000000 0.980469 0.226562
0 15.000000 -7.000000 1.300000 -1.000000 0.000000 0.000000 0.898438 0.226562
details.bmp
0 19.000000 -11.000000 0.000000 1.000000 0.000000 0.000000 0.898438 0.136719
0 19.000000 -7.000000 0.000000 1.000000 0.000000 0.000000 0.980469 0.136719
0 19.000000 -7.000000 1.300000 1.000000 0.000000 0.000000 0.980469 0.226562
details.bmp
0 19.000000 -11.000000 0.000000 1.000000 0.000000 0.000000 0.898438 0.136719
0 19.000000 -7.000000 1.300000 1.000000 0.000000 0.000000 0.980469 0.226562
0 19.000000 -11.000000 1.300000 1.000000 0.000000 0.000000 0.898438 0.226562
details.bmp
0 15.000000 -11.000000 1.300000 0.000000 0.000000 1.000000 0.898438 0.136719
0 19.000000 -11.000000 1.300000 0.000000 0.000000 1.000000 0.980469 0.136719
0 19.000000 -7.000000 1.300000 0.000000 0.000000 1.000000 0.980469 0.226562
details.bmp
0 15.000000 -11.000000 1.300000 0.000000 0.000000 1.000000 0.898438 0.136719
0 19.000000 -7.000000 1.300000 0.000000 0.000000 1.000000 0.980469 0.226562
0 15.000000 -7.000000 1.300000 0.000000 0.000000 1.000000 0.898438 0.226562
details.bmp
0 15.000000 -7.000000 0.000000 0.000000 0.000000 -1.000000 0.898438 0.136719
0 19.000000 -7.000000 0.000000 0.000000 0.000000 -1.000000 0.980469 0.136719
0 19.000000 -11.000000 0.000000 0.000000 0.000000 -1.000000 0.980469 0.226562
details.bmp
0 15.000000 -7.000000 0.000000 0.000000 0.000000 -1.000000 0.898438 0.136719
0 19.000000 -11.000000 0.000000 0.000000 0.000000 -1.000000 0.980469 0.226562
0 15.000000 -11.000000 0.000000 0.000000 0.000000 -1.000000 0.898438 0.226562
details.bmp
0 15.000000 7.000000 0.000000 0.000000 -1.000000 0.000000 0.898438 0.136719
0 19.000000 7.000000 0.000000 0.000000 -1.000000 0.000000 0.980469 0.136719
0 19.000000 7.000000 1.300000 0.000000 -1.000000 0.000000 0.980469 0.226562
details.bmp
0 15.000000 7.000000 0.000000 0.000000 -1.000000 0.000000 0.898438 0.136719
0 19.000000 7.000000 1.300000 0.000000 -1.000000 0.000000 0.980469 0.226562
0 15.000000 7.000000 1.300000 0.000000 -1.000000 0.000000 0.898438 0.226562
details.bmp
0 19.000000 11.000000 0.000000 0.000000 1.000000 0.000000 0.898438 0.136719
0 15.000000 11.000000 0.000000 0.000000 1.000000 0.000000 0.980469 0.136719
0 15.000000 11.000000 1.300000 0.000000 1.000000 0.000000 0.980469 0.226562
details.bmp
0 19.000000 11.000000 0.000000 0.000000 1.000000 -0.000000 0.898438 0.136719
0 15.000000 11.000000 1.300000 0.000000 1.000000 -0.000000 0.980469 0.226562
0 19.000000 11.000000 1.300000 0.000000 1.000000 -0.000000 0.898438 0.226562
details.bmp
0 15.000000 11.000000 0.000000 -1.000000 0.000000 0.000000 0.898438 0.136719
0 15.000000 7.000000 0.000000 -1.000000 0.000000 0.000000 0.980469 0.136719
0 15.000000 7.000000 1.300000 -1.000000 0.000000 0.000000 0.980469 0.226562
details.bmp
0 15.000000 11.000000 0.000000 -1.000000 0.000000 0.000000 0.898438 0.136719
0 15.000000 7.000000 1.300000 -1.000000 0.000000 0.000000 0.980469 0.226562
0 15.000000 11.000000 1.300000 -1.000000 0.000000 0.000000 0.898438 0.226562
details.bmp
0 19.000000 7.000000 0.000000 1.000000 0.000000 0.000000 0.898438 0.136719
0 19.000000 11.000000 0.000000 1.000000 0.000000 0.000000 0.980469 0.136719
0 19.000000 11.000000 1.300000 1.000000 0.000000 0.000000 0.980469 0.226562
details.bmp
0 19.000000 7.000000 0.000000 1.000000 0.000000 0.000000 0.898438 0.136719
0 19.000000 11.000000 1.300000 1.000000 0.000000 0.000000 0.980469 0.226562
0 19.000000 7.000000 1.300000 1.000000 0.000000 0.000000 0.898438 0.226562
details.bmp
0 15.000000 7.000000 1.300000 0.000000 0.000000 1.000000 0.898438 0.136719
0 19.000000 7.000000 1.300000 0.000000 0.000000 1.000000 0.980469 0.136719
0 19.000000 11.000000 1.300000 0.000000 0.000000 1.000000 0.980469 0.226562
details.bmp
0 15.000000 7.000000 1.300000 0.000000 0.000000 1.000000 0.898438 0.136719
0 19.000000 11.000000 1.300000 0.000000 0.000000 1.000000 0.980469 0.226562
0 15.000000 11.000000 1.300000 0.000000 0.000000 1.000000 0.898438 0.226562
details.bmp
0 15.000000 11.000000 0.000000 0.000000 0.000000 -1.000000 0.898438 0.136719
0 19.000000 11.000000 0.000000 0.000000 0.000000 -1.000000 0.980469 0.136719
0 19.000000 7.000000 0.000000 0.000000 0.000000 -1.000000 0.980469 0.226562
details.bmp
0 15.000000 11.000000 0.000000 0.000000 0.000000 -1.000000 0.898438 0.136719
0 19.000000 7.000000 0.000000 0.000000 0.000000 -1.000000 0.980469 0.226562
0 15.000000 7.000000 0.000000 0.000000 0.000000 -1.000000 0.898438 0.226562
details.bmp
0 -20.000000 -14.700000 42.200000 0.000000 -1.000000 0.000000 0.015625 0.769531
0 20.000000 -14.700000 42.200000 0.000000 -1.000000 0.000000 0.230469 0.769531
0 20.000000 -14.700000 43.000000 0.000000 -1.000000 0.000000 0.230469 0.984375
details.bmp
0 -20.000000 -14.700000 42.200000 0.000000 -1.000000 0.000000 0.015625 0.769531
0 20.000000 -14.700000 43.000000 0.000000 -1.000000 0.000000 0.230469 0.984375
0 -20.000000 -14.700000 43.000000 0.000000 -1.000000 0.000000 0.015625 0.984375
details.bmp
0 20.000000 -13.900000 42.200000 0.000000 1.000000 0.000000 0.015625 0.769531
0 -20.000000 -13.900000 42.200000 0.000000 1.000000 0.000000 0.230469 0.769531
0 -20.000000 -13.900000 43.000000 0.000000 1.000000 0.000000 0.230469 0.984375
details.bmp
0 20.000000 -13.900000 42.200000 0.000000 1.000000 -0.000000 0.015625 0.769531
0 -20.000000 -13.900000 43.000000 0.000000 1.000000 -0.000000 0.230469 0.984375
0 20.000000 -13.900000 43.000000 0.000000 1.000000 -0.000000 0.015625 0.984375
details.bmp
0 -20.000000 -13.900000 42.200000 -1.000000 0.000000 0.000000 0.015625 0.769531
0 -20.000000 -14.700000 42.200000 -1.000000 0.000000 0.000000 0.230469 0.769531
0 -20.000000 -14.700000 43.000000 -1.000000 0.000000 0.000000 0.230469 0.984375
details.bmp
0 -20.000000 -13.900000 42.200000 -1.000000 0.000000 0.000000 0.015625 0.769531
0 -20.000000 -14.700000 43.000000 -1.000000 0.000000 0.000000 0.230469 0.984375
0 -20.000000 -13.900000 43.000000 -1.000000 0.000000 0.000000 0.015625 0.984375
details.bmp
0 20.000000 -14.700000 42.200000 1.000000 0.000000 0.000000 0.015625 0.769531
0 20.000000 -13.900000 42.200000 1.000000 0.000000 0.000000 0.230469 0.769531
0 20.000000 -13.900000 43.000000 1.000000 0.000000 0.000000 0.230469 0.984375
details.bmp
0 20.000000 -14.700000 42.200000 1.000000 0.000000 0.000000 0.015625 0.769531
0 20.000000 -13.900000 43.000000 1.000000 0.000000 0.000000 0.230469 0.984375
0 20.000000 -14.700000 43.000000 1.000000 0.000000 0.000000 0.015625 0.984375
details.bmp
0 -20.000000 -14.700000 43.000000 0.000000 0.000000 1.000000 0.015625 0.769531
0 20.000000 -14.700000 43.000000 0.000000 0.000000 1.000000 0.230469 0.769531
0 20.000000 -13.900000 43.000000 0.000000 0.000000 1.000000 0.230469 0.984375
details.bmp
0 -20.000000 -14.700000 43.000000 0.000000 0.000000 1.000000 0.015625 0.769531
0 20.000000 -13.900000 43.000000 0.000000 0.000000 1.000000 0.230469 0.984375
0 -20.000000 -13.900000 43.000000 0.000000 0.000000 1.000000 0.015625 0.984375
details.bmp
0 -20.000000 -13.900000 42.200000 0.000000 0.000000 -1.000000 0.015625 0.769531
0 20.000000 -13.900000 42.200000 0.000000 0.000000 -1.000000 0.230469 0.769531
0 20.000000 -14.700000 42.200000 0.000000 0.000000 -1.000000 0.230469 0.984375
details.bmp
0 -20.000000 -13.900000 42.200000 0.000000 0.000000 -1.000000 0.015625 0.769531
0 20.000000 -14.700000 42.200000 0.000000 0.000000 -1.000000 0.230469 0.984375
0 -20.000000 -14.700000 42.200000 0.000000 0.000000 -1.000000 0.015625 0.984375
details.bmp
0 -20.000000 -14.700000 29.800000 0.000000 -1.000000 0.000000 0.015625 0.769531
0 20.000000 -14.700000 29.800000 0.000000 -1.000000 0.000000 0.230469 0.769531
0 20.000000 -14.700000 30.600000 0.000000 -1.000000 0.000000 0.230469 0.984375
details.bmp
0 -20.000000 -14.700000 29.800000 0.000000 -1.000000 0.000000 0.015625 0.769531
0 20.000000 -14.700000 30.600000 0.000000 -1.000000 0.000000 0.230469 0.984375
0 -20.000000 -14.700000 30.600000 0.000000 -1.000000 0.000000 0.015625 0.984375
details.bmp
0 20.000000 -13.900000 29.800000 0.000000 1.000000 0.000000 0.015625 0.769531
0 -20.000000 -13.900000 29.800000 0.000000 1.000000 0.000000 0.230469 0.769531
0 -20.000000 -13.900000 30.600000 0.000000 1.000000 0.000000 0.230469 0.984375
details.bmp
0 20.000000 -13.900000 29.800000 0.000000 1.000000 -0.000000 0.015625 0.769531
0 -20.000000 -13.900000 30.600000 0.000000 1.000000 -0.000000 0.230469 0.984375
0 20.000000 -13.900000 30.600000 0.000000 1.000000 -0.000000 0.015625 0.984375
details.bmp
0 -20.000000 -13.900000 29.800000 -1.000000 0.000000 0.000000 0.015625 0.769531
0 -20.000000 -14.700000 29.800000 -1.000000 0.000000 0.000000 0.230469 0.769531
0 -20.000000 -14.700000 30.600000 -1.000000 0.000000 0.000000 0.230469 0.984375
details.bmp
0 -20.000000 -13.900000 29.800000 -1.000000 0.000000 0.000000 0.015625 0.769531
0 -20.000000 -14.700000 30.600000 -1.000000 0.000000 0.000000 0.230469 0.984375
0 -20.000000 -13.900000 30.600000 -1.000000 0.000000 0.000000 0.015625 0.984375
details.bmp
0 20.000000 -14.700000 29.800000 1.000000 0.000000 0.000000 0.015625 0.769531
0 20.000000 -13.900000 29.800000 1.000000 0.000000 0.000000 0.230469 0.769531
0 20.000000 -13.900000 30.600000 1.000000 0.000000 0.000000 0.230469 0.984375
details.bmp
0 20.000000 -14.700000 29.800000 1.000000 0.000000 0.000000 0.015625 0.769531
0 20.000000 -13.900000 30.600000 1.000000 0.000000 0.000000 0.230469 0.984375
0 20.000000 -14.700000 30.600000 1.000000 0.000000 0.000000 0.015625 0.984375
details.bmp
0 -20.000000 -14.700000 30.600000 0.000000 0.000000 1.000000 0.015625 0.769531
0 20.000000 -14.700000 30.600000 0.000000 0.000000 1.000000 0.230469 0.769531
0 20.000000 -13.900000 30.600000 0.000000 0.000000 1.000000 0.230469 0.984375
details.bmp
0 -20.000000 -14.700000 30.600000 0.000000 0.000000 1.000000 0.015625 0.769531
0 20.000000 -13.900000 30.600000 0.000000 0.000000 1.000000 0.230469 0.984375
0 -20.000000 -13.900000 30.600000 0.000000 0.000000 1.000000 0.015625 0.984375
details.bmp
0 -20.000000 -13.900000 29.800000 0.000000 0.000000 -1.000000 0.015625 0.769531
0 20.000000 -13.900000 29.800000 0.000000 0.000000 -1.000000 0.230469 0.769531
0 20.000000 -14.700000 29.800000 0.000000 0.000000 -1.000000 0.230469 0.984375
details.bmp
0 -20.000000 -13.900000 29.800000 0.000000 0.000000 -1.000000 0.015625 0.769531
0 20.000000 -14.700000 29.800000 0.000000 0.000000 -1.000000 0.230469 0.984375
0 -20.000000 -14.700000 29.800000 0.000000 0.000000 -1.000000 0.015625 0.984375
details.bmp
0 -15.000000 -14.800000 31.500000 0.000000 -1.000000 0.000000 0.265625 0.769531
0 -3.000000 -14.800000 31.500000 0.000000 -1.000000 0.000000 0.480469 0.769531
0 -3.000000 -14.800000 40.800000 0.000000 -1.000000 0.000000 0.480469 0.984375
details.bmp
0 -15.000000 -14.800000 31.500000 0.000000 -1.000000 0.000000 0.265625 0.769531
0 -3.000000 -14.800000 40.800000 0.000000 -1.000000 0.000000 0.480469 0.984375
0 -15.000000 -14.800000 40.800000 0.000000 -1.000000 0.000000 0.265625 0.984375
details.bmp
0 -3.000000 -14.000000 31.500000 0.000000 1.000000 0.000000 0.265625 0.769531
0 -15.000000 -14.000000 31.500000 0.000000 1.000000 0.000000 0.480469 0.769531
0 -15.000000 -14.000000 40.800000 0.000000 1.000000 0.000000 0.480469 0.984375
details.bmp
0 -3.000000 -14.000000 31.500000 0.000000 1.000000 -0.000000 0.265625 0.769531
0 -15.000000 -14.000000 40.800000 0.000000 1.000000 -0.000000 0.480469 0.984375
0 -3.000000 -14.000000 40.800000 0.000000 1.000000 -0.000000 0.265625 0.984375
details.bmp
0 -15.000000 -14.000000 31.500000 -1.000000 0.000000 0.000000 0.265625 0.769531
0 -15.000000 -14.800000 31.500000 -1.000000 0.000000 0.000000 0.480469 0.769531
0 -15.000000 -14.800000 40.800000 -1.000000 0.000000 0.000000 0.480469 0.984375
details.bmp
0 -15.000000 -14.000000 31.500000 -1.000000 0.000000 0.000000 0.265625 0.769531
0 -15.000000 -14.800000 40.800000 -1.000000 0.000000 0.000000 0.480469 0.984375
0 -15.000000 -14.000000 40.800000 -1.000000 0.000000 0.000000 0.265625 0.984375
details.bmp
0 -3.000000 -14.800000 31.500000 1.000000 0.000000 0.000000 0.265625 0.769531
0 -3.000000 -14.000000 31.500000 1.000000 0.000000 0.000000 0.480469 0.769531
0 -3.000000 -14.000000 40.800000 1.000000 0.000000 0.000000 0.480469 0.984375
details.bmp
0 -3.000000 -14.800000 31.500000 1.000000 0.000000 0.000000 0.265625 0.769531
0 -3.000000 -14.000000 40.800000 1.000000 0.000000 0.000000 0.480469 0.984375
0 -3.000000 -14.800000 40.800000 1.000000 0.000000 0.000000 0.265625 0.984375
details.bmp
0 -15.000000 -14.800000 40.800000 0.000000 0.000000 1.000000 0.265625 0.769531
0 -3.000000 -14.800000 40.800000 0.000000 0.000000 1.000000 0.480469 0.769531
0 -3.000000 -14.000000 40.800000 0.000000 0.000000 1.000000 0.480469 0.984375
details.bmp
0 -15.000000 -14.800000 40.800000 0.000000 0.000000 1.000000 0.265625 0.769531
0 -3.000000 -14.000000 40.800000 0.000000 0.000000 1.000000 0.480469 0.984375
0 -15.000000 -14.000000 40.800000 0.000000 0.000000 1.000000 0.265625 0.984375
details.bmp
0 -15.000000 -14.000000 31.500000 0.000000 0.000000 -1.000000 0.265625 0.769531
0 -3.000000 -14.000000 31.500000 0.000000 0.000000 -1.000000 0.480469 0.769531
0 -3.000000 -14.800000 31.500000 0.000000 0.000000 -1.000000 0.480469 0.984375
details.bmp
0 -15.000000 -14.000000 31.500000 0.000000 0.000000 -1.000000 0.265625 0.769531
0 -3.000000 -14.800000 31.500000 0.000000 0.000000 -1.000000 0.480469 0.984375
0 -15.000000 -14.800000 31.500000 0.000000 0.000000 -1.000000 0.265625 0.984375
details.bmp
0 -16.000000 -18.000000 31.000000 0.000000 -1.000000 0.000000 0.015625 0.769531
0 -14.500000 -18.000000 31.000000 0.000000 -1.000000 0.000000 0.230469 0.769531
0 -14.500000 -18.000000 41.500000 0.000000 -1.000000 0.000000 0.230469 0.984375
details.bmp
0 -16.000000 -18.000000 31.000000 0.000000 -1.000000 0.000000 0.015625 0.769531
0 -14.500000 -18.000000 41.500000 0.000000 -1.000000 0.000000 0.230469 0.984375
0 -16.000000 -18.000000 41.500000 0.000000 -1.000000 0.000000 0.015625 0.984375
details.bmp
0 -14.500000 -14.000000 31.000000 0.000000 1.000000 0.000000 0.015625 0.769531
0 -16.000000 -14.000000 31.000000 0.000000 1.000000 0.000000 0.230469 0.769531
0 -16.000000 -14.000000 41.500000 0.000000 1.000000 0.000000 0.230469 0.984375
details.bmp
0 -14.500000 -14.000000 31.000000 0.000000 1.000000 -0.000000 0.015625 0.769531
0 -16.000000 -14.000000 41.500000 0.000000 1.000000 -0.000000 0.230469 0.984375
0 -14.500000 -14.000000 41.500000 0.000000 1.000000 -0.000000 0.015625 0.984375
details.bmp
0 -16.000000 -14.000000 31.000000 -1.000000 0.000000 0.000000 0.015625 0.769531
0 -16.000000 -18.000000 31.000000 -1.000000 0.000000 0.000000 0.230469 0.769531
0 -16.000000 -18.000000 41.500000 -1.000000 0.000000 0.000000 0.230469 0.984375
details.bmp
0 -16.000000 -14.000000 31.000000 -1.000000 0.000000 0.000000 0.015625 0.769531
0 -16.000000 -18.000000 41.500000 -1.000000 0.000000 0.000000 0.230469 0.984375
0 -16.000000 -14.000000 41.500000 -1.000000 0.000000 0.000000 0.015625 0.984375
details.bmp
0 -14.500000 -18.000000 31.000000 1.000000 0.000000 0.000000 0.015625 0.769531
0 -14.500000 -14.000000 31.000000 1.000000 0.000000 0.000000 0.230469 0.769531
0 -14.500000 -14.000000 41.500000 1.000000 0.000000 0.000000 0.230469 0.984375
details.bmp
0 -14.500000 -18.000000 31.000000 1.000000 0.000000 0.000000 0.015625 0.769531
0 -14.500000 -14.000000 41.500000 1.000000 0.000000 0.000000 0.230469 0.984375
0 -14.500000 -18.000000 41.500000 1.000000 0.000000 0.000000 0.015625 0.984375
details.bmp
0 -16.000000 -18.000000 41.500000 0.000000 0.000000 1.000000 0.015625 0.769531
0 -14.500000 -18.000000 41.500000 0.000000 0.000000 1.000000 0.230469 0.769531
0 -14.500000 -14.000000 41.500000 0.000000 0.000000 1.000000 0.230469 0.984375
details.bmp
0 -16.000000 -18.000000 41.500000 0.000000 0.000000 1.000000 0.015625 0.769531
0 -14.500000 -14.000000 41.500000 0.000000 0.000000 1.000000 0.230469 0.984375
0 -16.000000 -14.000000 41.500000 0.000000 0.000000 1.000000 0.015625 0.984375
details.bmp
0 -16.000000 -14.000000 31.000000 0.000000 0.000000 -1.000000 0.015625 0.769531
0 -14.500000 -14.000000 31.000000 0.000000 0.000000 -1.000000 0.230469 0.769531
0 -14.500000 -18.000000 31.000000 0.000000 0.000000 -1.000000 0.230469 0.984375
details.bmp
0 -16.000000 -14.000000 31.000000 0.000000 0.000000 -1.000000 0.015625 0.769531
0 -14.500000 -18.000000 31.000000 0.000000 0.000000 -1.000000 0.230469 0.984375
0 -16.000000 -18.000000 31.000000 0.000000 0.000000 -1.000000 0.015625 0.984375
details.bmp
0 -3.500000 -18.000000 31.000000 0.000000 -1.000000 0.000000 0.015625 0.769531
0 -2.000000 -18.000000 31.000000 0.000000 -1.000000 0.000000 0.230469 0.769531
0 -2.000000 -18.000000 41.500000 0.000000 -1.000000 0.000000 0.230469 0.984375
details.bmp
0 -3.500000 -18.000000 31.000000 0.000000 -1.000000 0.000000 0.015625 0.769531
0 -2.000000 -18.000000 41.500000 0.000000 -1.000000 0.000000 0.230469 0.984375
0 -3.500000 -18.000000 41.500000 0.000000 -1.000000 0.000000 0.015625 0.984375
details.bmp
0 -2.000000 -14.000000 31.000000 0.000000 1.000000 0.000000 0.015625 0.769531
0 -3.500000 -14.000000 31.000000 0.000000 1.000000 0.000000 0.230469 0.769531
0 -3.500000 -14.000000 41.500000 0.000000 1.000000 0.000000 0.230469 0.984375
details.bmp
0 -2.000000 -14.000000 31.000000 0.000000 1.000000 -0.000000 0.015625 0.769531
0 -3.500000 -14.000000 41.500000 0.000000 1.000000 -0.000000 0.230469 0.984375
0 -2.000000 -14.000000 41.500000 0.000000 1.000000 -0.000000 0.015625 0.984375
details.bmp
0 -3.500000 -14.000000 31.000000 -1.000000 0.000000 0.000000 0.015625 0.769531
0 -3.500000 -18.000000 31.000000 -1.000000 0.000000 0.000000 0.230469 0.769531
0 -3.500000 -18.000000 41.500000 -1.000000 0.000000 0.000000 0.230469 0.984375
details.bmp
0 -3.500000 -14.000000 31.000000 -1.000000 0.000000 0.000000 0.015625 0.769531
0 -3.500000 -18.000000 41.500000 -1.000000 0.000000 0.000000 0.230469 0.984375
0 -3.500000 -14.000000 41.500000 -1.000000 0.000000 0.000000 0.015625 0.984375
details.bmp
0 -2.000000 -18.000000 31.000000 1.000000 0.000000 0.000000 0.015625 0.769531
0 -2.000000 -14.000000 31.000000 1.000000 0.000000 0.000000 0.230469 0.769531
0 -2.000000 -14.000000 41.500000 1.000000 0.000000 0.000000 0.230469 0.984375
details.bmp
0 -2.000000 -18.000000 31.000000 1.000000 0.000000 0.000000 0.015625 0.769531
0 -2.000000 -14.000000 41.500000 1.000000 0.000000 0.000000 0.230469 0.984375
0 -2.000000 -18.000000 41.500000 1.000000 0.000000 0.000000 0.015625 0.984375
details.bmp
0 -3.500000 -18.000000 41.500000 0.000000 0.000000 1.000000 0.015625 0.769531
0 -2.000000 -18.000000 41.500000 0.000000 0.000000 1.000000 0.230469 0.769531
0 -2.000000 -14.000000 41.500000 0.000000 0.000000 1.000000 0.230469 0.984375
details.bmp
0 -3.500000 -18.000000 41.500000 0.000000 0.000000 1.000000 0.015625 0.769531
0 -2.000000 -14.000000 41.500000 0.000000 0.000000 1.000000 0.230469 0.984375
0 -3.500000 -14.000000 41.500000 0.000000 0.000000 1.000000 0.015625 0.984375
details.bmp
0 -3.500000 -14.000000 31.000000 0.000000 0.000000 -1.000000 0.015625 0.769531
0 -2.000000 -14.000000 31.000000 0.000000 0.000000 -1.000000 0.230469 0.769531
0 -2.000000 -18.000000 31.000000 0.000000 0.000000 -1.000000 0.230469 0.984375
details.bmp
0 -3.500000 -14.000000 31.000000 0.000000 0.000000 -1.000000 0.015625 0.769531
0 -2.000000 -18.000000 31.000000 0.000000 0.000000 -1.000000 0.230469 0.984375
0 -3.500000 -18.000000 31.000000 0.000000 0.000000 -1.000000 0.015625 0.984375
details.bmp
0 -16.000000 -18.500000 40.500000 0.000000 -1.000000 0.000000 0.015625 0.769531
0 -2.000000 -18.500000 40.500000 0.000000 -1.000000 0.000000 0.230469 0.769531
0 -2.000000 -18.500000 42.000000 0.000000 -1.000000 0.000000 0.230469 0.984375
details.bmp
0 -16.000000 -18.500000 40.500000 0.000000 -1.000000 0.000000 0.015625 0.769531
0 -2.000000 -18.500000 42.000000 0.000000 -1.000000 0.000000 0.230469 0.984375
0 -16.000000 -18.500000 42.000000 0.000000 -1.000000 0.000000 0.015625 0.984375
details.bmp
0 -2.000000 -14.000000 40.500000 0.000000 1.000000 0.000000 0.015625 0.769531
0 -16.000000 -14.000000 40.500000 0.000000 1.000000 0.000000 0.230469 0.769531
0 -16.000000 -14.000000 42.000000 0.000000 1.000000 0.000000 0.230469 0.984375
details.bmp
0 -2.000000 -14.000000 40.500000 0.000000 1.000000 -0.000000 0.015625 0.769531
0 -16.000000 -14.000000 42.000000 0.000000 1.000000 -0.000000 0.230469 0.984375
0 -2.000000 -14.000000 42.000000 0.000000 1.000000 -0.000000 0.015625 0.984375
details.bmp
0 -16.000000 -14.000000 40.500000 -1.000000 0.000000 0.000000 0.015625 0.769531
0 -16.000000 -18.500000 40.500000 -1.000000 0.000000 0.000000 0.230469 0.769531
0 -16.000000 -18.500000 42.000000 -1.000000 0.000000 0.000000 0.230469 0.984375
details.bmp
0 -16.000000 -14.000000 40.500000 -1.000000 0.000000 0.000000 0.015625 0.769531
0 -16.000000 -18.500000 42.000000 -1.000000 0.000000 0.000000 0.230469 0.984375
0 -16.000000 -14.000000 42.000000 -1.000000 0.000000 0.000000 0.015625 0.984375
details.bmp
0 -2.000000 -18.500000 40.500000 1.000000 0.000000 0.000000 0.015625 0.769531
0 -2.000000 -14.000000 40.500000 1.000000 0.000000 0.000000 0.230469 0.769531
0 -2.000000 -14.000000 42.000000 1.000000 0.000000 0.000000 0.230469 0.984375
details.bmp
0 -2.000000 -18.500000 40.500000 1.000000 0.000000 0.000000 0.015625 0.769531
0 -2.000000 -14.000000 42.000000 1.000000 0.000000 0.000000 0.230469 0.984375
0 -2.000000 -18.500000 42.000000 1.000000 0.000000 0.000000 0.015625 0.984375
details.bmp
0 -16.000000 -18.500000 42.000000 0.000000 0.000000 1.000000 0.015625 0.769531
0 -2.000000 -18.500000 42.000000 0.000000 0.000000 1.000000 0.230469 0.769531
0 -2.000000 -14.000000 42.000000 0.000000 0.000000 1.000000 0.230469 0.984375
details.bmp
0 -16.000000 -18.500000 42.000000 0.000000 0.000000 1.000000 0.015625 0.769531
0 -2.000000 -14.000000 42.000000 0.000000 0.000000 1.000000 0.230469 0.984375
0 -16.000000 -14.000000 42.000000 0.000000 0.000000 1.000000 0.015625 0.984375
details.bmp
0 -16.000000 -14.000000 40.500000 0.000000 0.000000 -1.000000 0.015625 0.769531
0 -2.000000 -14.000000 40.500000 0.000000 0.000000 -1.000000 0.230469 0.769531
0 -2.000000 -18.500000 40.500000 0.000000 0.000000 -1.000000 0.230469 0.984375
details.bmp
0 -16.000000 -14.000000 40.500000 0.000000 0.000000 -1.000000 0.015625 0.769531
0 -2.000000 -18.500000 40.500000 0.000000 0.000000 -1.000000 0.230469 0.984375
0 -16.000000 -18.500000 40.500000 0.000000 0.000000 -1.000000 0.015625 0.984375
details.bmp
0 -16.000000 -19.000000 30.800000 0.000000 -1.000000 0.000000 0.015625 0.769531
0 -2.000000 -19.000000 30.800000 0.000000 -1.000000 0.000000 0.230469 0.769531
0 -2.000000 -19.000000 32.000000 0.000000 -1.000000 0.000000 0.230469 0.984375
details.bmp
0 -16.000000 -19.000000 30.800000 0.000000 -1.000000 0.000000 0.015625 0.769531
0 -2.000000 -19.000000 32.000000 0.000000 -1.000000 0.000000 0.230469 0.984375
0 -16.000000 -19.000000 32.000000 0.000000 -1.000000 0.000000 0.015625 0.984375
details.bmp
0 -2.000000 -14.000000 30.800000 0.000000 1.000000 0.000000 0.015625 0.769531
0 -16.000000 -14.000000 30.800000 0.000000 1.000000 0.000000 0.230469 0.769531
0 -16.000000 -14.000000 32.000000 0.000000 1.000000 0.000000 0.230469 0.984375
details.bmp
0 -2.000000 -14.000000 30.800000 0.000000 1.000000 -0.000000 0.015625 0.769531
0 -16.000000 -14.000000 32.000000 0.000000 1.000000 -0.000000 0.230469 0.984375
0 -2.000000 -14.000000 32.000000 0.000000 1.000000 -0.000000 0.015625 0.984375
details.bmp
0 -16.000000 -14.000000 30.800000 -1.000000 0.000000 0.000000 0.015625 0.769531
0 -16.000000 -19.000000 30.800000 -1.000000 0.000000 0.000000 0.230469 0.769531
0 -16.000000 -19.000000 32.000000 -1.000000 0.000000 0.000000 0.230469 0.984375
details.bmp
0 -16.000000 -14.000000 30.800000 -1.000000 0.000000 0.000000 0.015625 0.769531
0 -16.000000 -19.000000 32.000000 -1.000000 0.000000 0.000000 0.230469 0.984375
0 -16.000000 -14.000000 32.000000 -1.000000 0.000000 0.000000 0.015625 0.984375
details.bmp
0 -2.000000 -19.000000 30.800000 1.000000 0.000000 0.000000 0.015625 0.769531
0 -2.000000 -14.000000 30.800000 1.000000 0.000000 0.000000 0.230469 0.769531
0 -2.000000 -14.000000 32.000000 1.000000 0.000000 0.000000 0.230469 0.984375
details.bmp
0 -2.000000 -19.000000 30.800000 1.000000 0.000000 0.000000 0.015625 0.769531
0 -2.000000 -14.000000 32.000000 1.000000 0.000000 0.000000 0.230469 0.984375
0 -2.000000 -19.000000 32.000000 1.000000 0.000000 0.000000 0.015625 0.984375
details.bmp
0 -16.000000 -19.000000 32.000000 0.000000 0.000000 1.000000 0.015625 0.769531
0 -2.000000 -19.000000 32.000000 0.000000 0.000000 1.000000 0.230469 0.769531
0 -2.000000 -14.000000 32.000000 0.000000 0.000000 1.000000 0.230469 0.984375
details.bmp
0 -16.000000 -19.000000 32.000000 0.000000 0.000000 1.000000 0.015625 0.769531
0 -2.000000 -14.000000 32.000000 0.000000 0.000000 1.000000 0.230469 0.984375
0 -16.000000 -14.000000 32.000000 0.000000 0.000000 1.000000 0.015625 0.984375
details.bmp
0 -16.000000 -14.000000 30.800000 0.000000 0.000000 -1.000000 0.015625 0.769531
0 -2.000000 -14.000000 30.800000 0.000000 0.000000 -1.000000 0.230469 0.769531
0 -2.000000 -19.000000 30.800000 0.000000 0.000000 -1.000000 0.230469 0.984375
details.bmp
0 -16.000000 -14.000000 30.800000 0.000000 0.000000 -1.000000 0.015625 0.769531
0 -2.000000 -19.000000 30.800000 0.000000 0.000000 -1.000000 0.230469 0.984375
0 -16.000000 -19.000000 30.800000 0.000000 0.000000 -1.000000 0.015625 0.984375
details.bmp
0 -16.000000 -19.200000 31.600000 0.000000 -1.000000 0.000000 0.265625 0.769531
0 -2.000000 -19.200000 31.600000 0.000000 -1.000000 0.000000 0.480469 0.769531
0 -2.000000 -19.200000 32.600000 0.000000 -1.000000 0.000000 0.480469 0.984375
details.bmp
0 -16.000000 -19.200000 31.600000 0.000000 -1.000000 0.000000 0.265625 0.769531
0 -2.000000 -19.200000 32.600000 0.000000 -1.000000 0.000000 0.480469 0.984375
0 -16.000000 -19.200000 32.600000 0.000000 -1.000000 0.000000 0.265625 0.984375
details.bmp
0 -2.000000 -18.600000 31.600000 0.000000 1.000000 0.000000 0.265625 0.769531
0 -16.000000 -18.600000 31.600000 0.000000 1.000000 0.000000 0.480469 0.769531
0 -16.000000 -18.600000 32.600000 0.000000 1.000000 0.000000 0.480469 0.984375
details.bmp
0 -2.000000 -18.600000 31.600000 0.000000 1.000000 -0.000000 0.265625 0.769531
0 -16.000000 -18.600000 32.600000 0.000000 1.000000 -0.000000 0.480469 0.984375
0 -2.000000 -18.600000 32.600000 0.000000 1.000000 -0.000000 0.265625 0.984375
details.bmp
0 -16.000000 -18.600000 31.600000 -1.000000 0.000000 0.000000 0.265625 0.769531
0 -16.000000 -19.200000 31.600000 -1.000000 0.000000 0.000000 0.480469 0.769531
0 -16.000000 -19.200000 32.600000 -1.000000 0.000000 0.000000 0.480469 0.984375
details.bmp
0 -16.000000 -18.600000 31.600000 -1.000000 0.000000 0.000000 0.265625 0.769531
0 -16.000000 -19.200000 32.600000 -1.000000 0.000000 0.000000 0.480469 0.984375
0 -16.000000 -18.600000 32.600000 -1.000000 0.000000 0.000000 0.265625 0.984375
details.bmp
0 -2.000000 -19.200000 31.600000 1.000000 0.000000 0.000000 0.265625 0.769531
0 -2.000000 -18.600000 31.600000 1.000000 0.000000 0.000000 0.480469 0.769531
0 -2.000000 -18.600000 32.600000 1.000000 0.000000 0.000000 0.480469 0.984375
details.bmp
0 -2.000000 -19.200000 31.600000 1.000000 0.000000 0.000000 0.265625 0.769531
0 -2.000000 -18.600000 32.600000 1.000000 0.000000 0.000000 0.480469 0.984375
0 -2.000000 -19.200000 32.600000 1.000000 0.000000 0.000000 0.265625 0.984375
details.bmp
0 -16.000000 -19.200000 32.600000 0.000000 0.000000 1.000000 0.265625 0.769531
0 -2.000000 -19.200000 32.600000 0.000000 0.000000 1.000000 0.480469 0.769531
0 -2.000000 -18.600000 32.600000 0.000000 0.000000 1.000000 0.480469 0.984375
details.bmp
0 -16.000000 -19.200000 32.600000 0.000000 0.000000 1.000000 0.265625 0.769531
0 -2.000000 -18.600000 32.600000 0.000000 0.000000 1.000000 0.480469 0.984375
0 -16.000000 -18.600000 32.600000 0.000000 0.000000 1.000000 0.265625 0.984375
details.bmp
0 -16.000000 -18.600000 31.600000 0.000000 0.000000 -1.000000 0.265625 0.769531
0 -2.000000 -18.600000 31.600000 0.000000 0.000000 -1.000000 0.480469 0.769531
0 -2.000000 -19.200000 31.600000 0.000000 0.000000 -1.000000 0.480469 0.984375
details.bmp
0 -16.000000 -18.600000 31.600000 0.000000 0.000000 -1.000000 0.265625 0.769531
0 -2.000000 -19.200000 31.600000 0.000000 0.000000 -1.000000 0.480469 0.984375
0 -16.000000 -19.200000 31.600000 0.000000 0.000000 -1.000000 0.265625 0.984375
details.bmp
0 9.000000 -18.000000 31.000000 0.000000 -1.000000 0.000000 0.515625 0.394531
0 17.500000 -18.000000 31.000000 0.000000 -1.000000 0.000000 0.730469 0.394531
0 17.500000 -18.000000 45.500000 0.000000 -1.000000 0.000000 0.730469 0.734375
details.bmp
0 9.000000 -18.000000 31.000000 0.000000 -1.000000 0.000000 0.515625 0.394531
0 17.500000 -18.000000 45.500000 0.000000 -1.000000 0.000000 0.730469 0.734375
0 9.000000 -18.000000 45.500000 0.000000 -1.000000 0.000000 0.515625 0.734375
details.bmp
0 17.500000 -14.000000 31.000000 0.000000 1.000000 0.000000 0.015625 0.769531
0 9.000000 -14.000000 31.000000 0.000000 1.000000 0.000000 0.230469 0.769531
0 9.000000 -14.000000 45.500000 0.000000 1.000000 0.000000 0.230469 0.984375
details.bmp
0 17.500000 -14.000000 31.000000 0.000000 1.000000 -0.000000 0.015625 0.769531
0 9.000000 -14.000000 45.500000 0.000000 1.000000 -0.000000 0.230469 0.984375
0 17.500000 -14.000000 45.500000 0.000000 1.000000 -0.000000 0.015625 0.984375
details.bmp
0 9.000000 -14.000000 31.000000 -1.000000 0.000000 0.000000 0.015625 0.769531
0 9.000000 -18.000000 31.000000 -1.000000 0.000000 0.000000 0.230469 0.769531
0 9.000000 -18.000000 45.500000 -1.000000 0.000000 0.000000 0.230469 0.984375
details.bmp
0 9.000000 -14.000000 31.000000 -1.000000 0.000000 0.000000 0.015625 0.769531
0 9.000000 -18.000000 45.500000 -1.000000 0.000000 0.000000 0.230469 0.984375
0 9.000000 -14.000000 45.500000 -1.000000 0.000000 0.000000 0.015625 0.984375
details.bmp
0 17.500000 -18.000000 31.000000 1.000000 0.000000 0.000000 0.015625 0.769531
0 17.500000 -14.000000 31.000000 1.000000 0.000000 0.000000 0.230469 0.769531
0 17.500000 -14.000000 45.500000 1.000000 0.000000 0.000000 0.230469 0.984375
details.bmp
0 17.500000 -18.000000 31.000000 1.000000 0.000000 0.000000 0.015625 0.769531
0 17.500000 -14.000000 45.500000 1.000000 0.000000 0.000000 0.230469 0.984375
0 17.500000 -18.000000 45.500000 1.000000 0.000000 0.000000 0.015625 0.984375
details.bmp
0 9.000000 -18.000000 45.500000 0.000000 0.000000 1.000000 0.015625 0.769531
0 17.500000 -18.000000 45.500000 0.000000 0.000000 1.000000 0.230469 0.769531
0 17.500000 -14.000000 45.500000 0.000000 0.000000 1.000000 0.230469 0.984375
details.bmp
0 9.000000 -18.000000 45.500000 0.000000 0.000000 1.000000 0.015625 0.769531
0 17.500000 -14.000000 45.500000 0.000000 0.000000 1.000000 0.230469 0.984375
0 9.000000 -14.000000 45.500000 0.000000 0.000000 1.000000 0.015625 0.984375
details.bmp
0 9.000000 -14.000000 31.000000 0.000000 0.000000 -1.000000 0.015625 0.769531
0 17.500000 -14.000000 31.000000 0.000000 0.000000 -1.000000 0.230469 0.769531
0 17.500000 -18.000000 31.000000 0.000000 0.000000 -1.000000 0.230469 0.984375
details.bmp
0 9.000000 -14.000000 31.000000 0.000000 0.000000 -1.000000 0.015625 0.769531
0 17.500000 -18.000000 31.000000 0.000000 0.000000 -1.000000 0.230469 0.984375
0 9.000000 -18.000000 31.000000 0.000000 0.000000 -1.000000 0.015625 0.984375
details.bmp
0 11.000000 -18.800000 31.700000 0.000000 -1.000000 0.000000 0.515625 0.769531
0 15.500000 -18.800000 31.700000 0.000000 -1.000000 0.000000 0.730469 0.769531
0 15.500000 -18.800000 33.500000 0.000000 -1.000000 0.000000 0.730469 0.984375
details.bmp
0 11.000000 -18.800000 31.700000 0.000000 -1.000000 0.000000 0.515625 0.769531
0 15.500000 -18.800000 33.500000 0.000000 -1.000000 0.000000 0.730469 0.984375
0 11.000000 -18.800000 33.500000 0.000000 -1.000000 0.000000 0.515625 0.984375
details.bmp
0 15.500000 -17.800000 31.700000 0.000000 1.000000 0.000000 0.515625 0.769531
0 11.000000 -17.800000 31.700000 0.000000 1.000000 0.000000 0.730469 0.769531
0 11.000000 -17.800000 33.500000 0.000000 1.000000 0.000000 0.730469 0.984375
details.bmp
0 15.500000 -17.800000 31.700000 0.000000 1.000000 -0.000000 0.515625 0.769531
0 11.000000 -17.800000 33.500000 0.000000 1.000000 -0.000000 0.730469 0.984375
0 15.500000 -17.800000 33.500000 0.000000 1.000000 -0.000000 0.515625 0.984375
details.bmp
0 11.000000 -17.800000 31.700000 -1.000000 0.000000 0.000000 0.515625 0.769531
0 11.000000 -18.800000 31.700000 -1.000000 0.000000 0.000000 0.730469 0.769531
0 11.000000 -18.800000 33.500000 -1.000000 0.000000 0.000000 0.730469 0.984375
details.bmp
0 11.000000 -17.800000 31.700000 -1.000000 0.000000 0.000000 0.515625 0.769531
0 11.000000 -18.800000 33.500000 -1.000000 0.000000 0.000000 0.730469 0.984375
0 11.000000 -17.800000 33.500000 -1.000000 0.000000 0.000000 0.515625 0.984375
details.bmp
0 15.500000 -18.800000 31.700000 1.000000 0.000000 0.000000 0.515625 0.769531
0 15.500000 -17.800000 31.700000 1.000000 0.000000 0.000000 0.730469 0.769531
0 15.500000 -17.800000 33.500000 1.000000 0.000000 0.000000 0.730469 0.984375
details.bmp
0 15.500000 -18.800000 31.700000 1.000000 0.000000 0.000000 0.515625 0.769531
0 15.500000 -17.800000 33.500000 1.000000 0.000000 0.000000 0.730469 0.984375
0 15.500000 -18.800000 33.500000 1.000000 0.000000 0.000000 0.515625 0.984375
details.bmp
0 11.000000 -18.800000 33.500000 0.000000 0.000000 1.000000 0.515625 0.769531
0 15.500000 -18.800000 33.500000 0.000000 0.000000 1.000000 0.730469 0.769531
0 15.500000 -17.800000 33.500000 0.000000 0.000000 1.000000 0.730469 0.984375
details.bmp
0 11.000000 -18.800000 33.500000 0.000000 0.000000 1.000000 0.515625 0.769531
0 15.500000 -17.800000 33.500000 0.000000 0.000000 1.000000 0.730469 0.984375
0 11.000000 -17.800000 33.500000 0.000000 0.000000 1.000000 0.515625 0.984375
details.bmp
0 11.000000 -17.800000 31.700000 0.000000 0.000000 -1.000000 0.515625 0.769531
0 15.500000 -17.800000 31.700000 0.000000 0.000000 -1.000000 0.730469 0.769531
0 15.500000 -18.800000 31.700000 0.000000 0.000000 -1.000000 0.730469 0.984375
details.bmp
0 11.000000 -17.800000 31.700000 0.000000 0.000000 -1.000000 0.515625 0.769531
0 15.500000 -18.800000 31.700000 0.000000 0.000000 -1.000000 0.730469 0.984375
0 11.000000 -18.800000 31.700000 0.000000 0.000000 -1.000000 0.515625 0.984375
details.bmp
0 1.000000 -16.100000 34.000000 0.000000 -1.000000 0.000000 0.015625 0.769531
0 2.200000 -16.100000 34.000000 0.000000 -1.000000 0.000000 0.230469 0.769531
0 2.200000 -16.100000 39.000000 0.000000 -1.000000 0.000000 0.230469 0.984375
details.bmp
0 1.000000 -16.100000 34.000000 0.000000 -1.000000 0.000000 0.015625 0.769531
0 2.200000 -16.100000 39.000000 0.000000 -1.000000 0.000000 0.230469 0.984375
0 1.000000 -16.100000 39.000000 0.000000 -1.000000 0.000000 0.015625 0.984375
details.bmp
0 2.200000 -14.000000 34.000000 0.000000 1.000000 0.000000 0.015625 0.769531
0 1.000000 -14.000000 34.000000 0.000000 1.000000 0.000000 0.230469 0.769531
0 1.000000 -14.000000 39.000000 0.000000 1.000000 0.000000 0.230469 0.984375
details.bmp
0 2.200000 -14.000000 34.000000 0.000000 1.000000 -0.000000 0.015625 0.769531
0 1.000000 -14.000000 39.000000 0.000000 1.000000 -0.000000 0.230469 0.984375
0 2.200000 -14.000000 39.000000 0.000000 1.000000 -0.000000 0.015625 0.984375
details.bmp
0 1.000000 -14.000000 34.000000 -1.000000 0.000000 0.000000 0.015625 0.769531
0 1.000000 -16.100000 34.000000 -1.000000 0.000000 0.000000 0.230469 0.769531
0 1.000000 -16.100000 39.000000 -1.000000 0.000000 0.000000 0.230469 0.984375
details.bmp
0 1.000000 -14.000000 34.000000 -1.000000 0.000000 0.000000 0.015625 0.769531
0 1.000000 -16.100000 39.000000 -1.000000 0.000000 0.000000 0.230469 0.984375
0 1.000000 -14.000000 39.000000 -1.000000 0.000000 0.000000 0.015625 0.984375
details.bmp
0 2.200000 -16.100000 34.000000 1.000000 0.000000 0.000000 0.015625 0.769531
0 2.200000 -14.000000 34.000000 1.000000 0.000000 0.000000 0.230469 0.769531
0 2.200000 -14.000000 39.000000 1.000000 0.000000 0.000000 0.230469 0.984375
details.bmp
0 2.200000 -16.100000 34.000000 1.000000 0.000000 0.000000 0.015625 0.769531
0 2.200000 -14.000000 39.000000 1.000000 0.000000 0.000000 0.230469 0.984375
0 2.200000 -16.100000 39.000000 1.000000 0.000000 0.000000 0.015625 0.984375
details.bmp
0 1.000000 -16.100000 39.000000 0.000000 0.000000 1.000000 0.015625 0.769531
0 2.200000 -16.100000 39.000000 0.000000 0.000000 1.000000 0.230469 0.769531
0 2.200000 -14.000000 39.000000 0.000000 0.000000 1.000000 0.230469 0.984375
details.bmp
0 1.000000 -16.100000 39.000000 0.000000 0.000000 1.000000 0.015625 0.769531
0 2.200000 -14.000000 39.000000 0.000000 0.000000 1.000000 0.230469 0.984375
0 1.000000 -14.000000 39.000000 0.000000 0.000000 1.000000 0.015625 0.984375
details.bmp
0 1.000000 -14.000000 34.000000 0.000000 0.000000 -1.000000 0.015625 0.769531
0 2.200000 -14.000000 34.000000 0.000000 0.000000 -1.000000 0.230469 0.769531
0 2.200000 -16.100000 34.000000 0.000000 0.000000 -1.000000 0.230469 0.984375
details.bmp
0 1.000000 -14.000000 34.000000 0.000000 0.000000 -1.000000 0.015625 0.769531
0 2.200000 -16.100000 34.000000 0.000000 0.000000 -1.000000 0.230469 0.984375
0 1.000000 -16.100000 34.000000 0.000000 0.000000 -1.000000 0.015625 0.984375
details.bmp
0 -20.000000 -14.600000 18.000000 0.000000 -1.000000 0.000000 0.015625 0.769531
0 -18.500000 -14.600000 18.000000 0.000000 -1.000000 0.000000 0.230469 0.769531
0 -18.500000 -14.600000 21.000000 0.000000 -1.000000 0.000000 0.230469 0.984375
details.bmp
0 -20.000000 -14.600000 18.000000 0.000000 -1.000000 0.000000 0.015625 0.769531
0 -18.500000 -14.600000 21.000000 0.000000 -1.000000 0.000000 0.230469 0.984375
0 -20.000000 -14.600000 21.000000 0.000000 -1.000000 0.000000 0.015625 0.984375
details.bmp
0 -18.500000 -13.800000 18.000000 0.000000 1.000000 0.000000 0.015625 0.769531
0 -20.000000 -13.800000 18.000000 0.000000 1.000000 0.000000 0.230469 0.769531
0 -20.000000 -13.800000 21.000000 0.000000 1.000000 0.000000 0.230469 0.984375
details.bmp
0 -18.500000 -13.800000 18.000000 0.000000 1.000000 -0.000000 0.015625 0.769531
0 -20.000000 -13.800000 21.000000 0.000000 1.000000 -0.000000 0.230469 0.984375
0 -18.500000 -13.800000 21.000000 0.000000 1.000000 -0.000000 0.015625 0.984375
details.bmp
0 -20.000000 -13.800000 18.000000 -1.000000 0.000000 0.000000 0.015625 0.769531
0 -20.000000 -14.600000 18.000000 -1.000000 0.000000 0.000000 0.230469 0.769531
0 -20.000000 -14.600000 21.000000 -1.000000 0.000000 0.000000 0.230469 0.984375
details.bmp
0 -20.000000 -13.800000 18.000000 -1.000000 0.000000 0.000000 0.015625 0.769531
0 -20.000000 -14.600000 21.000000 -1.000000 0.000000 0.000000 0.230469 0.984375
0 -20.000000 -13.800000 21.000000 -1.000000 0.000000 0.000000 0.015625 0.984375
details.bmp
0 -18.500000 -14.600000 18.000000 1.000000 0.000000 0.000000 0.015625 0.769531
0 -18.500000 -13.800000 18.000000 1.000000 0.000000 0.000000 0.230469 0.769531
0 -18.500000 -13.800000 21.000000 1.000000 0.000000 0.000000 0.230469 0.984375
details.bmp
0 -18.500000 -14.600000 18.000000 1.000000 0.000000 0.000000 0.015625 0.769531
0 -18.500000 -13.800000 21.000000 1.000000 0.000000 0.000000 0.230469 0.984375
0 -18.500000 -14.600000 21.000000 1.000000 0.000000 0.000000 0.015625 0.984375
details.bmp
0 -20.000000 -14.600000 21.000000 0.000000 0.000000 1.000000 0.015625 0.769531
0 -18.500000 -14.600000 21.000000 0.000000 0.000000 1.000000 0.230469 0.769531
0 -18.500000 -13.800000 21.000000 0.000000 0.000000 1.000000 0.230469 0.984375
details.bmp
0 -20.000000 -14.600000 21.000000 0.000000 0.000000 1.000000 0.015625 0.769531
0 -18.500000 -13.800000 21.000000 0.000000 0.000000 1.000000 0.230469 0.984375
0 -20.000000 -13.800000 21.000000 0.000000 0.000000 1.000000 0.015625 0.984375
details.bmp
0 -20.000000 -13.800000 18.000000 0.000000 0.000000 -1.000000 0.015625 0.769531
0 -18.500000 -13.800000 18.000000 0.000000 0.000000 -1.000000 0.230469 0.769531
0 -18.500000 -14.600000 18.000000 0.000000 0.000000 -1.000000 0.230469 0.984375
details.bmp
0 -20.000000 -13.800000 18.000000 0.000000 0.000000 -1.000000 0.015625 0.769531
0 -18.500000 -14.600000 18.000000 0.000000 0.000000 -1.000000 0.230469 0.984375
0 -20.000000 -14.600000 18.000000 0.000000 0.000000 -1.000000 0.015625 0.984375
details.bmp
0 -20.000000 -14.600000 7.000000 0.000000 -1.000000 0.000000 0.015625 0.769531
0 -18.500000 -14.600000 7.000000 0.000000 -1.000000 0.000000 0.230469 0.769531
0 -18.500000 -14.600000 10.000000 0.000000 -1.000000 0.000000 0.230469 0.984375
details.bmp
0 -20.000000 -14.600000 7.000000 0.000000 -1.000000 0.000000 0.015625 0.769531
0 -18.500000 -14.600000 10.000000 0.000000 -1.000000 0.000000 0.230469 0.984375
0 -20.000000 -14.600000 10.000000 0.000000 -1.000000 0.000000 0.015625 0.984375
details.bmp
0 -18.500000 -13.800000 7.000000 0.000000 1.000000 0.000000 0.015625 0.769531
0 -20.000000 -13.800000 7.000000 0.000000 1.000000 0.000000 0.230469 0.769531
0 -20.000000 -13.800000 10.000000 0.000000 1.000000 0.000000 0.230469 0.984375
details.bmp
0 -18.500000 -13.800000 7.000000 0.000000 1.000000 -0.000000 0.015625 0.769531
0 -20.000000 -13.800000 10.000000 0.000000 1.000000 -0.000000 0.230469 0.984375
0 -18.500000 -13.800000 10.000000 0.000000 1.000000 -0.000000 0.015625 0.984375
details.bmp
0 -20.000000 -13.800000 7.000000 -1.000000 0.000000 0.000000 0.015625 0.769531
0 -20.000000 -14.600000 7.000000 -1.000000 0.000000 0.000000 0.230469 0.769531
0 -20.000000 -14.600000 10.000000 -1.000000 0.000000 0.000000 0.230469 0.984375
details.bmp
0 -20.000000 -13.800000 7.000000 -1.000000 0.000000 0.000000 0.015625 0.769531
0 -20.000000 -14.600000 10.000000 -1.000000 0.000000 0.000000 0.230469 0.984375
0 -20.000000 -13.800000 10.000000 -1.000000 0.000000 0.000000 0.015625 0.984375
details.bmp
0 -18.500000 -14.600000 7.000000 1.000000 0.000000 0.000000 0.015625 0.769531
0 -18.500000 -13.800000 7.000000 1.000000 0.000000 0.000000 0.230469 0.769531
0 -18.500000 -13.800000 10.000000 1.000000 0.000000 0.000000 0.230469 0.984375
details.bmp
0 -18.500000 -14.600000 7.000000 1.000000 0.000000 0.000000 0.015625 0.769531
0 -18.500000 -13.800000 10.000000 1.000000 0.000000 0.000000 0.230469 0.984375
0 -18.500000 -14.600000 10.000000 1.000000 0.000000 0.000000 0.015625 0.984375
details.bmp
0 -20.000000 -14.600000 10.000000 0.000000 0.000000 1.000000 0.015625 0.769531
0 -18.500000 -14.600000 10.000000 0.000000 0.000000 1.000000 0.230469 0.769531
0 -18.500000 -13.800000 10.000000 0.000000 0.000000 1.000000 0.230469 0.984375
details.bmp
0 -20.000000 -14.600000 10.000000 0.000000 0.000000 1.000000 0.015625 0.769531
0 -18.500000 -13.800000 10.000000 0.000000 0.000000 1.000000 0.230469 0.984375
0 -20.000000 -13.800000 10.000000 0.000000 0.000000 1.000000 0.015625 0.984375
details.bmp
0 -20.000000 -13.800000 7.000000 0.000000 0.000000 -1.000000 0.015625 0.769531
0 -18.500000 -13.800000 7.000000 0.000000 0.000000 -1.000000 0.230469 0.769531
0 -18.500000 -14.600000 7.000000 0.000000 0.000000 -1.000000 0.230469 0.984375
details.bmp
0 -20.000000 -13.800000 7.000000 0.000000 0.000000 -1.000000 0.015625 0.769531
0 -18.500000 -14.600000 7.000000 0.000000 0.000000 -1.000000 0.230469 0.984375
0 -20.000000 -14.600000 7.000000 0.000000 0.000000 -1.000000 0.015625 0.984375
details.bmp
0 -8.150000 -16.300000 32.100000 0.923880 0.382683 0.000000 0.765625 0.269531
0 -8.398959 -15.698959 32.100000 0.923880 0.382683 0.000000 0.792480 0.269531
0 -8.398959 -15.698959 36.400000 0.923880 0.382683 0.000000 0.792480 0.577043
details.bmp
0 -8.150000 -16.300000 32.100000 0.923880 0.382683 -0.000000 0.765625 0.269531
0 -8.398959 -15.698959 36.400000 0.923880 0.382683 -0.000000 0.792480 0.577043
0 -8.150000 -16.300000 36.400000 0.923880 0.382683 -0.000000 0.765625 0.577043
details.bmp
0 -8.398959 -15.698959 32.100000 0.382683 0.923880 0.000000 0.792480 0.269531
0 -9.000000 -15.450000 32.100000 0.382683 0.923880 0.000000 0.819336 0.269531
0 -9.000000 -15.450000 36.400000 0.382683 0.923880 0.000000 0.819336 0.577043
details.bmp
0 -8.398959 -15.698959 32.100000 0.382683 0.923880 -0.000000 0.792480 0.269531
0 -9.000000 -15.450000 36.400000 0.382683 0.923880 -0.000000 0.819336 0.577043
0 -8.398959 -15.698959 36.400000 0.382683 0.923880 -0.000000 0.792480 0.577043
details.bmp
0 -9.000000 -15.450000 32.100000 -0.382683 0.923880 0.000000 0.819336 0.269531
0 -9.601041 -15.698959 32.100000 -0.382683 0.923880 0.000000 0.846191 0.269531
0 -9.601041 -15.698959 36.400000 -0.382683 0.923880 0.000000 0.846191 0.577043
details.bmp
0 -9.000000 -15.450000 32.100000 -0.382683 0.923880 0.000000 0.819336 0.269531
0 -9.601041 -15.698959 36.400000 -0.382683 0.923880 0.000000 0.846191 0.577043
0 -9.000000 -15.450000 36.400000 -0.382683 0.923880 0.000000 0.819336 0.577043
details.bmp
0 -9.601041 -15.698959 32.100000 -0.923880 0.382683 0.000000 0.846191 0.269531
0 -9.850000 -16.300000 32.100000 -0.923880 0.382683 0.000000 0.873047 0.269531
0 -9.850000 -16.300000 36.400000 -0.923880 0.382683 0.000000 0.873047 0.577043
details.bmp
0 -9.601041 -15.698959 32.100000 -0.923880 0.382683 0.000000 0.846191 0.269531
0 -9.850000 -16.300000 36.400000 -0.923880 0.382683 0.000000 0.873047 0.577043
0 -9.601041 -15.698959 36.400000 -0.923880 0.382683 0.000000 0.846191 0.577043
details.bmp
0 -9.850000 -16.300000 32.100000 -0.923880 -0.382683 0.000000 0.873047 0.269531
0 -9.601041 -16.901041 32.100000 -0.923880 -0.382683 0.000000 0.899902 0.269531
0 -9.601041 -16.901041 36.400000 -0.923880 -0.382683 0.000000 0.899902 0.577043
details.bmp
0 -9.850000 -16.300000 32.100000 -0.923880 -0.382683 0.000000 0.873047 0.269531
0 -9.601041 -16.901041 36.400000 -0.923880 -0.382683 0.000000 0.899902 0.577043
0 -9.850000 -16.300000 36.400000 -0.923880 -0.382683 0.000000 0.873047 0.577043
details.bmp
0 -9.601041 -16.901041 32.100000 -0.382683 -0.923880 0.000000 0.899902 0.269531
0 -9.000000 -17.150000 32.100000 -0.382683 -0.923880 0.000000 0.926758 0.269531
0 -9.000000 -17.150000 36.400000 -0.382683 -0.923880 0.000000 0.926758 0.577043
details.bmp
0 -9.601041 -16.901041 32.100000 -0.382683 -0.923880 0.000000 0.899902 0.269531
0 -9.000000 -17.150000 36.400000 -0.382683 -0.923880 0.000000 0.926758 0.577043
0 -9.601041 -16.901041 36.400000 -0.382683 -0.923880 0.000000 0.899902 0.577043
details.bmp
0 -9.000000 -17.150000 32.100000 0.382683 -0.923880 0.000000 0.926758 0.269531
0 -8.398959 -16.901041 32.100000 0.382683 -0.923880 0.000000 0.953613 0.269531
0 -8.398959 -16.901041 36.400000 0.382683 -0.923880 0.000000 0.953613 0.577043
details.bmp
0 -9.000000 -17.150000 32.100000 0.382683 -0.923880 0.000000 0.926758 0.269531
0 -8.398959 -16.901041 36.400000 0.382683 -0.923880 0.000000 0.953613 0.577043
0 -9.000000 -17.150000 36.400000 0.382683 -0.923880 0.000000 0.926758 0.577043
details.bmp
0 -8.398959 -16.901041 32.100000 0.923880 -0.382683 0.000000 0.953613 0.269531
0 -8.150000 -16.300000 32.100000 0.923880 -0.382683 0.000000 0.980469 0.269531
0 -8.150000 -16.300000 36.400000 0.923880 -0.382683 0.000000 0.980469 0.577043
details.bmp
0 -8.398959 -16.901041 32.100000 0.923880 -0.382683 0.000000 0.953613 0.269531
0 -8.150000 -16.300000 36.400000 0.923880 -0.382683 0.000000 0.980469 0.577043
0 -8.398959 -16.901041 36.400000 0.923880 -0.382683 0.000000 0.953613 0.577043
details.bmp
0 -8.150000 -16.300000 36.400000 0.838717 0.347408 0.419358 0.765625 0.577043
0 -8.398959 -15.698959 36.400000 0.838717 0.347408 0.419358 0.792480 0.577043
0 -8.717157 -16.017157 37.300000 0.838717 0.347408 0.419358 0.792480 0.641406
details.bmp
0 -8.150000 -16.300000 36.400000 0.838717 0.347408 0.419358 0.765625 0.577043
0 -8.717157 -16.017157 37.300000 0.838717 0.347408 0.419358 0.792480 0.641406
0 -8.600000 -16.300000 37.300000 0.838717 0.347408 0.419358 0.765625 0.641406
details.bmp
0 -8.398959 -15.698959 36.400000 0.347408 0.838717 0.419358 0.792480 0.577043
0 -9.000000 -15.450000 36.400000 0.347408 0.838717 0.419358 0.819336 0.577043
0 -9.000000 -15.900000 37.300000 0.347408 0.838717 0.419358 0.819336 0.641406
details.bmp
0 -8.398959 -15.698959 36.400000 0.347408 0.838717 0.419358 0.792480 0.577043
0 -9.000000 -15.900000 37.300000 0.347408 0.838717 0.419358 0.819336 0.641406
0 -8.717157 -16.017157 37.300000 0.347408 0.838717 0.419358 0.792480 0.641406
details.bmp
0 -9.000000 -15.450000 36.400000 -0.347408 0.838717 0.419358 0.819336 0.577043
0 -9.601041 -15.698959 36.400000 -0.347408 0.838717 0.419358 0.846191 0.577043
0 -9.282843 -16.017157 37.300000 -0.347408 0.838717 0.419358 0.846191 0.641406
details.bmp
0 -9.000000 -15.450000 36.400000 -0.347408 0.838717 0.419358 0.819336 0.577043
0 -9.282843 -16.017157 37.300000 -0.347408 0.838717 0.419358 0.846191 0.641406
0 -9.000000 -15.900000 37.300000 -0.347408 0.838717 0.419358 0.819336 0.641406
details.bmp
0 -9.601041 -15.698959 36.400000 -0.838717 0.347408 0.419358 0.846191 0.577043
0 -9.850000 -16.300000 36.400000 -0.838717 0.347408 0.419358 0.873047 0.577043
0 -9.400000 -16.300000 37.300000 -0.838717 0.347408 0.419358 0.873047 0.641406
details.bmp
0 -9.601041 -15.698959 36.400000 -0.838717 0.347408 0.419358 0.846191 0.577043
0 -9.400000 -16.300000 37.300000 -0.838717 0.347408 0.419358 0.873047 0.641406
0 -9.282843 -16.017157 37.300000 -0.838717 0.347408 0.419358 0.846191 0.641406
details.bmp
0 -9.850000 -16.300000 36.400000 -0.838717 -0.347408 0.419358 0.873047 0.577043
0 -9.601041 -16.901041 36.400000 -0.838717 -0.347408 0.419358 0.899902 0.577043
0 -9.282843 -16.582843 37.300000 -0.838717 -0.347408 0.419358 0.899902 0.641406
details.bmp
0 -9.850000 -16.300000 36.400000 -0.838717 -0.347408 0.419358 0.873047 0.577043
0 -9.282843 -16.582843 37.300000 -0.838717 -0.347408 0.419358 0.899902 0.641406
0 -9.400000 -16.300000 37.300000 -0.838717 -0.347408 0.419358 0.873047 0.641406
details.bmp
0 -9.601041 -16.901041 36.400000 -0.347408 -0.838717 0.419358 0.899902 0.577043
0 -9.000000 -17.150000 36.400000 -0.347408 -0.838717 0.419358 0.926758 0.577043
0 -9.000000 -16.700000 37.300000 -0.347408 -0.838717 0.419358 0.926758 0.641406
details.bmp
0 -9.601041 -16.901041 36.400000 -0.347408 -0.838717 0.419358 0.899902 0.577043
0 -9.000000 -16.700000 37.300000 -0.347408 -0.838717 0.419358 0.926758 0.641406
0 -9.282843 -16.582843 37.300000 -0.347408 -0.838717 0.419358 0.899902 0.641406
details.bmp
0 -9.000000 -17.150000 36.400000 0.347408 -0.838717 0.419358 0.926758 0.577043
0 -8.398959 -16.901041 36.400000 0.347408 -0.838717 0.419358 0.953613 0.577043
0 -8.717157 -16.582843 37.300000 0.347408 -0.838717 0.419358 0.953613 0.641406
details.bmp
0 -9.000000 -17.150000 36.400000 0.347408 -0.838717 0.419358 0.926758 0.577043
0 -8.717157 -16.582843 37.300000 0.347408 -0.838717 0.419358 0.953613 0.641406
0 -9.000000 -16.700000 37.300000 0.347408 -0.838717 0.419358 0.926758 0.641406
details.bmp
0 -8.398959 -16.901041 36.400000 0.838717 -0.347408 0.419358 0.953613 0.577043
0 -8.150000 -16.300000 36.400000 0.838717 -0.347408 0.419358 0.980469 0.577043
0 -8.600000 -16.300000 37.300000 0.838717 -0.347408 0.419358 0.980469 0.641406
details.bmp
0 -8.398959 -16.901041 36.400000 0.838717 -0.347408 0.419358 0.953613 0.577043
0 -8.600000 -16.300000 37.300000 0.838717 -0.347408 0.419358 0.980469 0.641406
0 -8.717157 -16.582843 37.300000 0.838717 -0.347408 0.419358 0.953613 0.641406
details.bmp
0 -8.600000 -16.300000 37.300000 0.923880 0.382683 0.000000 0.765625 0.641406
0 -8.717157 -16.017157 37.300000 0.923880 0.382683 0.000000 0.792480 0.641406
0 -8.717157 -16.017157 38.600000 0.923880 0.382683 0.000000 0.792480 0.734375
details.bmp
0 -8.600000 -16.300000 37.300000 0.923880 0.382683 -0.000000 0.765625 0.641406
0 -8.717157 -16.017157 38.600000 0.923880 0.382683 -0.000000 0.792480 0.734375
0 -8.600000 -16.300000 38.600000 0.923880 0.382683 -0.000000 0.765625 0.734375
details.bmp
0 -8.717157 -16.017157 37.300000 0.382683 0.923880 0.000000 0.792480 0.641406
0 -9.000000 -15.900000 37.300000 0.382683 0.923880 0.000000 0.819336 0.641406
0 -9.000000 -15.900000 38.600000 0.382683 0.923880 0.000000 0.819336 0.734375
details.bmp
0 -8.717157 -16.017157 37.300000 0.382683 0.923880 -0.000000 0.792480 0.641406
0 -9.000000 -15.900000 38.600000 0.382683 0.923880 -0.000000 0.819336 0.734375
0 -8.717157 -16.017157 38.600000 0.382683 0.923880 -0.000000 0.792480 0.734375
details.bmp
0 -9.000000 -15.900000 37.300000 -0.382683 0.923880 0.000000 0.819336 0.641406
0 -9.282843 -16.017157 37.300000 -0.382683 0.923880 0.000000 0.846191 0.641406
0 -9.282843 -16.017157 38.600000 -0.382683 0.923880 0.000000 0.846191 0.734375
details.bmp
0 -9.000000 -15.900000 37.300000 -0.382683 0.923880 0.000000 0.819336 0.641406
0 -9.282843 -16.017157 38.600000 -0.382683 0.923880 0.000000 0.846191 0.734375
0 -9.000000 -15.900000 38.600000 -0.382683 0.923880 0.000000 0.819336 0.734375
details.bmp
0 -9.282843 -16.017157 37.300000 -0.923880 0.382683 0.000000 0.846191 0.641406
0 -9.400000 -16.300000 37.300000 -0.923880 0.382683 0.000000 0.873047 0.641406
0 -9.400000 -16.300000 38.600000 -0.923880 0.382683 0.000000 0.873047 0.734375
details.bmp
0 -9.282843 -16.017157 37.300000 -0.923880 0.382683 0.000000 0.846191 0.641406
0 -9.400000 -16.300000 38.600000 -0.923880 0.382683 0.000000 0.873047 0.734375
0 -9.282843 -16.017157 38.600000 -0.923880 0.382683 0.000000 0.846191 0.734375
details.bmp
0 -9.400000 -16.300000 37.300000 -0.923880 -0.382683 0.000000 0.873047 0.641406
0 -9.282843 -16.582843 37.300000 -0.923880 -0.382683 0.000000 0.899902 0.641406
0 -9.282843 -16.582843 38.600000 -0.923880 -0.382683 0.000000 0.899902 0.734375
details.bmp
0 -9.400000 -16.300000 37.300000 -0.923880 -0.382683 0.000000 0.873047 0.641406
0 -9.282843 -16.582843 38.600000 -0.923880 -0.382683 0.000000 0.899902 0.734375
0 -9.400000 -16.300000 38.600000 -0.923880 -0.382683 0.000000 0.873047 0.734375
details.bmp
0 -9.282843 -16.582843 37.300000 -0.382683 -0.923880 0.000000 0.899902 0.641406
0 -9.000000 -16.700000 37.300000 -0.382683 -0.923880 0.000000 0.926758 0.641406
0 -9.000000 -16.700000 38.600000 -0.382683 -0.923880 0.000000 0.926758 0.734375
details.bmp
0 -9.282843 -16.582843 37.300000 -0.382683 -0.923880 0.000000 0.899902 0.641406
0 -9.000000 -16.700000 38.600000 -0.382683 -0.923880 0.000000 0.926758 0.734375
0 -9.282843 -16.582843 38.600000 -0.382683 -0.923880 0.000000 0.899902 0.734375
details.bmp
0 -9.000000 -16.700000 37.300000 0.382683 -0.923880 0.000000 0.926758 0.641406
0 -8.717157 -16.582843 37.300000 0.382683 -0.923880 0.000000 0.953613 0.641406
0 -8.717157 -16.582843 38.600000 0.382683 -0.923880 0.000000 0.953613 0.734375
details.bmp
0 -9.000000 -16.700000 37.300000 0.382683 -0.923880 0.000000 0.926758 0.641406
0 -8.717157 -16.582843 38.600000 0.382683 -0.923880 0.000000 0.953613 0.734375
0 -9.000000 -16.700000 38.600000 0.382683 -0.923880 0.000000 0.926758 0.734375
details.bmp
0 -8.717157 -16.582843 37.300000 0.923880 -0.382683 0.000000 0.953613 0.641406
0 -8.600000 -16.300000 37.300000 0.923880 -0.382683 0.000000 0.980469 0.641406
0 -8.600000 -16.300000 38.600000 0.923880 -0.382683 0.000000 0.980469 0.734375
details.bmp
0 -8.717157 -16.582843 37.300000 0.923880 -0.382683 0.000000 0.953613 0.641406
0 -8.600000 -16.300000 38.600000 0.923880 -0.382683 0.000000 0.980469 0.734375
0 -8.717157 -16.582843 38.600000 0.923880 -0.382683 0.000000 0.953613 0.734375
details.bmp
0 -9.000000 -16.300000 38.600000 0.000000 0.000000 1.000000 0.015625 0.769531
0 -8.600000 -16.300000 38.600000 0.000000 0.000000 1.000000 0.230469 0.769531
0 -8.717157 -16.017157 38.600000 0.000000 0.000000 1.000000 0.230469 0.984375
details.bmp
0 -9.000000 -16.300000 38.600000 0.000000 0.000000 1.000000 0.015625 0.769531
0 -8.717157 -16.017157 38.600000 0.000000 0.000000 1.000000 0.230469 0.769531
0 -9.000000 -15.900000 38.600000 0.000000 0.000000 1.000000 0.230469 0.984375
details.bmp
0 -9.000000 -16.300000 38.600000 0.000000 -0.000000 1.000000 0.015625 0.769531
0 -9.000000 -15.900000 38.600000 0.000000 -0.000000 1.000000 0.230469 0.769531
0 -9.282843 -16.017157 38.600000 0.000000 -0.000000 1.000000 0.230469 0.984375
details.bmp
0 -9.000000 -16.300000 38.600000 0.000000 0.000000 1.000000 0.015625 0.769531
0 -9.282843 -16.017157 38.600000 0.000000 0.000000 1.000000 0.230469 0.769531
0 -9.400000 -16.300000 38.600000 0.000000 0.000000 1.000000 0.230469 0.984375
details.bmp
0 -9.000000 -16.300000 38.600000 0.000000 0.000000 1.000000 0.015625 0.769531
0 -9.400000 -16.300000 38.600000 0.000000 0.000000 1.000000 0.230469 0.769531
0 -9.282843 -16.582843 38.600000 0.000000 0.000000 1.000000 0.230469 0.984375
details.bmp
0 -9.000000 -16.300000 38.600000 0.000000 0.000000 1.000000 0.015625 0.769531
0 -9.282843 -16.582843 38.600000 0.000000 0.000000 1.000000 0.230469 0.769531
0 -9.000000 -16.700000 38.600000 0.000000 0.000000 1.000000 0.230469 0.984375
details.bmp
0 -9.000000 -16.300000 38.600000 0.000000 0.000000 1.000000 0.015625 0.769531
0 -9.000000 -16.700000 38.600000 0.000000 0.000000 1.000000 0.230469 0.769531
0 -8.717157 -16.582843 38.600000 0.000000 0.000000 1.000000 0.230469 0.984375
details.bmp
0 -9.000000 -16.300000 38.600000 -0.000000 0.000000 1.000000 0.015625 0.769531
0 -8.717157 -16.582843 38.600000 -0.000000 0.000000 1.000000 0.230469 0.769531
0 -8.600000 -16.300000 38.600000 -0.000000 0.000000 1.000000 0.230469 0.984375
end
